SplineFontDB: 3.0
FontName: CheyenneSans-BlackItalic
FullName: Cheyenne Sans Black Italic
FamilyName: Cheyenne Sans Black
Weight: Black
Copyright: 
Version: 1.000; ttfautohint (v1.8.2)
ItalicAngle: -8
UnderlinePosition: -150
UnderlineWidth: 50
Ascent: 800
Descent: 200
InvalidEm: 0
sfntRevision: 0x00010000
LayerCount: 2
Layer: 0 1 "Back" 1
Layer: 1 1 "Fore" 0
XUID: [1021 646 1163163066 10512202]
StyleMap: 0x0001
FSType: 0
OS2Version: 3
OS2_WeightWidthSlopeOnly: 0
OS2_UseTypoMetrics: 0
CreationTime: 1513572760
ModificationTime: 1543764696
PfmFamily: 81
TTFWeight: 900
TTFWidth: 5
LineGap: 0
VLineGap: 0
Panose: 0 0 10 0 0 0 0 0 0 0
OS2TypoAscent: 743
OS2TypoAOffset: 0
OS2TypoDescent: -161
OS2TypoDOffset: 0
OS2TypoLinegap: 0
OS2WinAscent: 822
OS2WinAOffset: 0
OS2WinDescent: 178
OS2WinDOffset: 0
HheadAscent: 822
HheadAOffset: 0
HheadDescent: -178
HheadDOffset: 0
OS2SubXSize: 650
OS2SubYSize: 600
OS2SubXOff: 0
OS2SubYOff: 75
OS2SupXSize: 650
OS2SupYSize: 600
OS2SupXOff: 0
OS2SupYOff: 350
OS2StrikeYSize: 50
OS2StrikeYPos: 310
OS2CapHeight: 723
OS2XHeight: 517
OS2Vendor: 'IMPA'
OS2CodePages: 20000193.00000000
OS2UnicodeRanges: 00000007.00000000.00000000.00000000
Lookup: 1 0 0 "'aalt' Access All Alternates in Latin lookup 0" { "'aalt' Access All Alternates in Latin lookup 0 subtable"  } ['aalt' ('DFLT' <'dflt' > 'latn' <'AZE ' 'CAT ' 'CRT ' 'KAZ ' 'MOL ' 'ROM ' 'TAT ' 'TRK ' 'dflt' > ) ]
Lookup: 3 0 0 "'aalt' Access All Alternates in Latin lookup 1" { "'aalt' Access All Alternates in Latin lookup 1 subtable"  } ['aalt' ('DFLT' <'dflt' > 'latn' <'AZE ' 'CAT ' 'CRT ' 'KAZ ' 'MOL ' 'ROM ' 'TAT ' 'TRK ' 'dflt' > ) ]
Lookup: 6 0 0 "'ccmp' Glyph Composition/Decomposition in Latin lookup 2" { "'ccmp' Glyph Composition/Decomposition in Latin lookup 2 contextual 0"  "'ccmp' Glyph Composition/Decomposition in Latin lookup 2 contextual 1"  } ['ccmp' ('DFLT' <'dflt' > 'latn' <'AZE ' 'CAT ' 'CRT ' 'KAZ ' 'MOL ' 'ROM ' 'TAT ' 'TRK ' 'dflt' > ) ]

StartChar: .notdef
Encoding: 65536 -1 0
Width: 627
Flags: W
LayerCount: 2
Fore
SplineSet
625.5 820.5 m 128,-1,1
 630 815 630 815 628 805 c 2,2,-1
 496 -133 l 2,3,4
 494 -148 494 -148 485 -154.5 c 128,-1,5
 476 -161 476 -161 459 -161 c 2,6,-1
 23 -161 l 2,7,8
 8 -161 8 -161 3 -155.5 c 128,-1,9
 -2 -150 -2 -150 0 -137 c 2,10,-1
 132 803 l 2,11,12
 134 814 134 814 139.5 820 c 128,-1,13
 145 826 145 826 154 826 c 2,14,-1
 613 826 l 2,15,0
 621 826 621 826 625.5 820.5 c 128,-1,1
568.5 772.5 m 128,-1,17
 565 777 565 777 558 777 c 2,18,-1
 215 777 l 1,19,-1
 456 -57 l 1,20,-1
 571 760 l 2,21,16
 572 768 572 768 568.5 772.5 c 128,-1,17
60 -107 m 128,-1,23
 64 -112 64 -112 76 -112 c 2,24,-1
 412 -112 l 1,25,-1
 171 716 l 1,26,-1
 57 -92 l 2,27,22
 56 -102 56 -102 60 -107 c 128,-1,23
EndSplineSet
EndChar

StartChar: exclam
Encoding: 33 33 4
Width: 299
GlyphClass: 2
Flags: W
LayerCount: 2
Fore
SplineSet
194 259 m 1,0,-1
 75 259 l 1,1,-1
 86 723 l 1,2,-1
 311 723 l 1,3,-1
 194 259 l 1,0,-1
199 0 m 1,4,-1
 -6 0 l 1,5,-1
 21 192 l 1,6,-1
 226 192 l 1,7,-1
 199 0 l 1,4,-1
EndSplineSet
EndChar

StartChar: quotedbl
Encoding: 34 34 5
Width: 526
GlyphClass: 2
Flags: W
LayerCount: 2
Fore
SplineSet
462 401 m 1,0,-1
 371 401 l 1,1,-1
 371 723 l 1,2,-1
 554 723 l 1,3,-1
 462 401 l 1,0,-1
206 401 m 1,4,-1
 115 401 l 1,5,-1
 115 723 l 1,6,-1
 298 723 l 1,7,-1
 206 401 l 1,4,-1
EndSplineSet
EndChar

StartChar: numbersign
Encoding: 35 35 6
Width: 617
GlyphClass: 2
Flags: W
LayerCount: 2
Fore
SplineSet
483 421 m 1,0,-1
 452 310 l 1,1,-1
 559 310 l 1,2,-1
 545 216 l 1,3,-1
 425 216 l 1,4,-1
 363 -3 l 1,5,-1
 269 9 l 1,6,-1
 328 216 l 1,7,-1
 206 216 l 1,8,-1
 144 -3 l 1,9,-1
 51 9 l 1,10,-1
 110 216 l 1,11,-1
 -1 216 l 1,12,-1
 13 310 l 1,13,-1
 138 310 l 1,14,-1
 169 421 l 1,15,-1
 60 421 l 1,16,-1
 73 515 l 1,17,-1
 196 515 l 1,18,-1
 257 725 l 1,19,-1
 349 716 l 1,20,-1
 291 515 l 1,21,-1
 414 515 l 1,22,-1
 475 725 l 1,23,-1
 568 716 l 1,24,-1
 510 515 l 1,25,-1
 619 515 l 1,26,-1
 606 421 l 1,27,-1
 483 421 l 1,0,-1
387 421 m 1,28,-1
 264 421 l 1,29,-1
 233 310 l 1,30,-1
 356 310 l 1,31,-1
 387 421 l 1,28,-1
EndSplineSet
EndChar

StartChar: dollar
Encoding: 36 36 7
Width: 693
GlyphClass: 2
Flags: W
LayerCount: 2
Fore
SplineSet
549 74 m 128,-1,1
 480 12 480 12 374 -1 c 0,2,3
 361 -2 361 -2 357 -6 c 128,-1,4
 353 -10 353 -10 351 -21 c 2,5,-1
 344 -71 l 1,6,-1
 222 -71 l 1,7,-1
 232 -3 l 1,8,9
 155 4 155 4 95.5 28.5 c 128,-1,10
 36 53 36 53 -16 97 c 1,11,-1
 107 217 l 1,12,13
 170 150 170 150 252 131 c 1,14,-1
 274 280 l 1,15,16
 151 297 151 297 104 357 c 128,-1,17
 57 417 57 417 69 502 c 0,18,19
 80 580 80 580 142 636.5 c 128,-1,20
 204 693 204 693 312 716 c 0,21,22
 321 718 321 718 329 723 c 128,-1,23
 337 728 337 728 338 736 c 2,24,-1
 345 782 l 1,25,-1
 464 782 l 1,26,-1
 455 722 l 1,27,28
 573 685 573 685 638 641 c 1,29,-1
 530 519 l 1,30,31
 498 556 498 556 447 578 c 0,32,33
 445 579 445 579 442 579 c 0,34,35
 434 579 434 579 433 570 c 2,36,-1
 416 449 l 1,37,-1
 492 431 l 2,38,39
 562 413 562 413 601.5 357.5 c 128,-1,40
 641 302 641 302 631 228 c 0,41,0
 618 136 618 136 549 74 c 128,-1,1
317 585 m 1,42,43
 292 585 292 585 262.5 568 c 128,-1,44
 233 551 233 551 230 526 c 0,45,46
 226 496 226 496 244 481.5 c 128,-1,47
 262 467 262 467 300 463 c 1,48,-1
 317 585 l 1,42,43
438.5 155.5 m 128,-1,50
 464 173 464 173 467 195 c 0,51,52
 475 251 475 251 390 264 c 1,53,-1
 371 131 l 1,54,49
 413 138 413 138 438.5 155.5 c 128,-1,50
EndSplineSet
EndChar

StartChar: percent
Encoding: 37 37 8
Width: 962
GlyphClass: 2
Flags: W
LayerCount: 2
Fore
SplineSet
379 705 m 128,-1,1
 419 676 419 676 438.5 628 c 128,-1,2
 458 580 458 580 450 527 c 0,3,4
 443 475 443 475 411 428.5 c 128,-1,5
 379 382 379 382 331 354 c 128,-1,6
 283 326 283 326 230 326 c 0,7,8
 176 326 176 326 135.5 354 c 128,-1,9
 95 382 95 382 76 428.5 c 128,-1,10
 57 475 57 475 64 527 c 0,11,12
 71 580 71 580 104 628 c 128,-1,13
 137 676 137 676 185.5 705 c 128,-1,14
 234 734 234 734 287 734 c 0,15,0
 339 734 339 734 379 705 c 128,-1,1
254 -4 m 1,16,-1
 149 -2 l 1,17,-1
 739 731 l 1,18,-1
 844 731 l 1,19,-1
 254 -4 l 1,16,-1
286.5 446.5 m 128,-1,21
 301 472 301 472 309 527 c 0,22,23
 317 585 317 585 309 612.5 c 128,-1,24
 301 640 301 640 273 640 c 128,-1,25
 245 640 245 640 229 612 c 128,-1,26
 213 584 213 584 205 527 c 0,27,28
 197 472 197 472 205 446.5 c 128,-1,29
 213 421 213 421 242 421 c 0,30,20
 272 421 272 421 286.5 446.5 c 128,-1,21
826.5 369.5 m 128,-1,32
 867 340 867 340 886 292.5 c 128,-1,33
 905 245 905 245 898 192 c 0,34,35
 891 140 891 140 859 93.5 c 128,-1,36
 827 47 827 47 778.5 18.5 c 128,-1,37
 730 -10 730 -10 677 -10 c 128,-1,38
 624 -10 624 -10 583 18.5 c 128,-1,39
 542 47 542 47 523 93.5 c 128,-1,40
 504 140 504 140 511 192 c 0,41,42
 518 245 518 245 551 292.5 c 128,-1,43
 584 340 584 340 633 369.5 c 128,-1,44
 682 399 682 399 734 399 c 128,-1,31
 786 399 786 399 826.5 369.5 c 128,-1,32
733 111 m 128,-1,46
 748 136 748 136 756 191 c 0,47,48
 764 249 764 249 756 276.5 c 128,-1,49
 748 304 748 304 720 304 c 128,-1,50
 692 304 692 304 676.5 276 c 128,-1,51
 661 248 661 248 653 191 c 0,52,53
 645 137 645 137 652.5 111.5 c 128,-1,54
 660 86 660 86 689 86 c 128,-1,45
 718 86 718 86 733 111 c 128,-1,46
EndSplineSet
EndChar

StartChar: ampersand
Encoding: 38 38 9
Width: 846
GlyphClass: 2
Flags: W
LayerCount: 2
Fore
SplineSet
569.5 713.5 m 128,-1,1
 622 693 622 693 648.5 656.5 c 128,-1,2
 675 620 675 620 669 574 c 0,3,4
 662 522 662 522 616 476.5 c 128,-1,5
 570 431 570 431 492 384 c 1,6,-1
 552 299 l 1,7,-1
 568 336 l 2,8,9
 605 427 605 427 606 430 c 2,10,-1
 808 430 l 1,11,12
 792 402 792 402 765 367 c 128,-1,13
 738 332 738 332 710 298 c 0,14,15
 652 228 652 228 627 189 c 1,16,-1
 762 0 l 1,17,-1
 540 0 l 1,18,-1
 495 62 l 1,19,20
 382 -5 382 -5 246 -5 c 0,21,22
 120 -5 120 -5 66.5 45 c 128,-1,23
 13 95 13 95 25 181 c 0,24,25
 35 254 35 254 87.5 303.5 c 128,-1,26
 140 353 140 353 249 407 c 1,27,-1
 233 428 l 2,28,29
 204 468 204 468 192.5 493.5 c 128,-1,30
 181 519 181 519 186 556 c 0,31,32
 193 607 193 607 229 647.5 c 128,-1,33
 265 688 265 688 322.5 711 c 128,-1,34
 380 734 380 734 449 734 c 0,35,0
 517 734 517 734 569.5 713.5 c 128,-1,1
401 607.5 m 128,-1,37
 382 593 382 593 379 570 c 0,38,39
 375 542 375 542 407 501 c 2,40,-1
 427 477 l 1,41,42
 463 500 463 500 480 520.5 c 128,-1,43
 497 541 497 541 500 564 c 0,44,45
 504 591 504 591 489 606.5 c 128,-1,46
 474 622 474 622 448 622 c 0,47,36
 420 622 420 622 401 607.5 c 128,-1,37
273 260 m 128,-1,49
 250 237 250 237 247 211 c 0,50,51
 242 177 242 177 265.5 158.5 c 128,-1,52
 289 140 289 140 317 140 c 0,53,54
 338 140 338 140 367.5 148.5 c 128,-1,55
 397 157 397 157 418 174 c 1,56,-1
 327 299 l 1,57,48
 296 283 296 283 273 260 c 128,-1,49
EndSplineSet
EndChar

StartChar: quotesingle
Encoding: 39 39 10
Width: 261
GlyphClass: 2
Flags: W
LayerCount: 2
Fore
SplineSet
186 401 m 1,0,-1
 95 401 l 1,1,-1
 95 723 l 1,2,-1
 278 723 l 1,3,-1
 186 401 l 1,0,-1
EndSplineSet
EndChar

StartChar: parenleft
Encoding: 40 40 11
Width: 353
GlyphClass: 2
Flags: W
LayerCount: 2
Fore
SplineSet
266.5 508 m 128,-1,1
 221 394 221 394 205 277 c 0,2,3
 189 166 189 166 202.5 62 c 128,-1,4
 216 -42 216 -42 256 -161 c 1,5,-1
 118 -161 l 1,6,7
 63 -42 63 -42 41.5 58 c 128,-1,8
 20 158 20 158 37 278 c 0,9,10
 54 399 54 399 107.5 512.5 c 128,-1,11
 161 626 161 626 242 723 c 1,12,-1
 381 723 l 1,13,0
 312 622 312 622 266.5 508 c 128,-1,1
EndSplineSet
EndChar

StartChar: parenright
Encoding: 41 41 12
Width: 353
GlyphClass: 2
Flags: W
LayerCount: 2
Fore
SplineSet
143.5 54 m 128,-1,1
 189 168 189 168 205 285 c 0,2,3
 221 396 221 396 207.5 500 c 128,-1,4
 194 604 194 604 154 723 c 1,5,-1
 292 723 l 1,6,7
 347 604 347 604 368.5 504 c 128,-1,8
 390 404 390 404 373 284 c 0,9,10
 356 163 356 163 302.5 49.5 c 128,-1,11
 249 -64 249 -64 168 -161 c 1,12,-1
 29 -161 l 1,13,0
 98 -60 98 -60 143.5 54 c 128,-1,1
EndSplineSet
EndChar

StartChar: asterisk
Encoding: 42 42 13
Width: 537
GlyphClass: 2
Flags: W
LayerCount: 2
Fore
SplineSet
277 420 m 1,0,-1
 169 272 l 1,1,-1
 80 342 l 1,2,-1
 209 471 l 1,3,-1
 54 515 l 1,4,-1
 110 624 l 1,5,-1
 251 555 l 1,6,-1
 262 723 l 1,7,-1
 382 723 l 1,8,-1
 341 554 l 1,9,-1
 505 623 l 1,10,-1
 524 513 l 1,11,-1
 362 471 l 1,12,-1
 453 343 l 1,13,-1
 344 274 l 1,14,-1
 277 420 l 1,0,-1
EndSplineSet
EndChar

StartChar: plus
Encoding: 43 43 14
Width: 609
GlyphClass: 2
Flags: W
LayerCount: 2
Fore
SplineSet
550 295 m 1,0,-1
 365 295 l 1,1,-1
 339 110 l 1,2,-1
 201 110 l 1,3,-1
 227 295 l 1,4,-1
 41 295 l 1,5,-1
 61 433 l 1,6,-1
 247 433 l 1,7,-1
 273 619 l 1,8,-1
 411 619 l 1,9,-1
 385 433 l 1,10,-1
 570 433 l 1,11,-1
 550 295 l 1,0,-1
EndSplineSet
EndChar

StartChar: comma
Encoding: 44 44 15
Width: 302
GlyphClass: 2
Flags: W
LayerCount: 2
Fore
SplineSet
59 -6 m 1,0,-1
 2 1 l 1,1,-1
 26 170 l 1,2,-1
 203 170 l 1,3,-1
 182 20 l 1,4,-1
 42 -153 l 1,5,-1
 -22 -153 l 1,6,-1
 59 -6 l 1,0,-1
EndSplineSet
Substitution2: "'tnum' Tabular Numbers in Latin lookup 23 subtable" comma.tf
Substitution2: "'aalt' Access All Alternates in Latin lookup 0 subtable" comma.tf
EndChar

StartChar: hyphen
Encoding: 45 45 16
Width: 401
GlyphClass: 2
Flags: W
LayerCount: 2
Fore
SplineSet
320 188 m 1,0,-1
 30 188 l 1,1,-1
 50 325 l 1,2,-1
 340 325 l 1,3,-1
 320 188 l 1,0,-1
EndSplineSet
EndChar

StartChar: period
Encoding: 46 46 17
Width: 302
GlyphClass: 2
Flags: W
LayerCount: 2
Fore
SplineSet
200 0 m 1,0,-1
 -5 0 l 1,1,-1
 23 196 l 1,2,-1
 228 196 l 1,3,-1
 200 0 l 1,0,-1
EndSplineSet
Substitution2: "'tnum' Tabular Numbers in Latin lookup 23 subtable" period.tf
Substitution2: "'aalt' Access All Alternates in Latin lookup 0 subtable" period.tf
EndChar

StartChar: slash
Encoding: 47 47 18
Width: 400
GlyphClass: 2
Flags: W
LayerCount: 2
Fore
SplineSet
315 723 m 1,0,-1
 444 723 l 1,1,-1
 87 0 l 1,2,-1
 -42 0 l 1,3,-1
 315 723 l 1,0,-1
EndSplineSet
Substitution2: "'frac' Diagonal Fractions in Latin lookup 16 subtable" fraction
Substitution2: "'aalt' Access All Alternates in Latin lookup 0 subtable" fraction
EndChar

StartChar: zero
Encoding: 48 48 19
Width: 681
GlyphClass: 2
Flags: W
LayerCount: 2
Fore
SplineSet
555.5 689.5 m 128,-1,1
 620 645 620 645 646.5 560.5 c 128,-1,2
 673 476 673 476 657 360 c 0,3,4
 641 245 641 245 591 162 c 128,-1,5
 541 79 541 79 465 35.5 c 128,-1,6
 389 -8 389 -8 294 -8 c 128,-1,7
 199 -8 199 -8 134.5 35.5 c 128,-1,8
 70 79 70 79 43 162 c 128,-1,9
 16 245 16 245 33 360 c 0,10,11
 49 476 49 476 100 560.5 c 128,-1,12
 151 645 151 645 228 689.5 c 128,-1,13
 305 734 305 734 398 734 c 128,-1,0
 491 734 491 734 555.5 689.5 c 128,-1,1
374.5 165 m 128,-1,15
 399 186 399 186 415 232.5 c 128,-1,16
 431 279 431 279 442 359 c 0,17,18
 459 481 459 481 444 532.5 c 128,-1,19
 429 584 429 584 376 584 c 0,20,21
 324 584 324 584 294.5 532.5 c 128,-1,22
 265 481 265 481 247 359 c 0,23,24
 236 280 236 280 239 233 c 128,-1,25
 242 186 242 186 260 165 c 128,-1,26
 278 144 278 144 314 144 c 128,-1,14
 350 144 350 144 374.5 165 c 128,-1,15
EndSplineSet
Substitution2: "'onum' Oldstyle Figures in Latin lookup 24 subtable" zero.osf
Substitution2: "'tnum' Tabular Numbers in Latin lookup 23 subtable" zero.tf
Substitution2: "'frac' Diagonal Fractions in Latin lookup 17 subtable" zero.numr
Substitution2: "'dnom' Denominators in Latin lookup 15 subtable" zero.dnom
Substitution2: "'numr' Numerators in Latin lookup 14 subtable" zero.numr
Substitution2: "'sups' Superscript in Latin lookup 13 subtable" uni2070
Substitution2: "'sinf' Scientific Inferiors in Latin lookup 12 subtable" zero.subs
Substitution2: "'subs' Subscript in Latin lookup 11 subtable" zero.subs
AlternateSubs2: "'aalt' Access All Alternates in Latin lookup 1 subtable" zero.subs uni2070 zero.numr zero.dnom zero.tf zero.osf
EndChar

StartChar: one
Encoding: 49 49 20
Width: 422
GlyphClass: 2
Flags: W
LayerCount: 2
Fore
SplineSet
165 511 m 1,0,-1
 41 484 l 1,1,-1
 59 613 l 1,2,-1
 295 723 l 1,3,-1
 390 723 l 1,4,-1
 288 0 l 1,5,-1
 93 0 l 1,6,-1
 165 511 l 1,0,-1
EndSplineSet
Substitution2: "'onum' Oldstyle Figures in Latin lookup 24 subtable" one.osf
Substitution2: "'tnum' Tabular Numbers in Latin lookup 23 subtable" one.tf
Substitution2: "'frac' Diagonal Fractions in Latin lookup 17 subtable" one.numr
Substitution2: "'dnom' Denominators in Latin lookup 15 subtable" one.dnom
Substitution2: "'numr' Numerators in Latin lookup 14 subtable" one.numr
Substitution2: "'sups' Superscript in Latin lookup 13 subtable" uni00B9
Substitution2: "'sinf' Scientific Inferiors in Latin lookup 12 subtable" one.subs
Substitution2: "'subs' Subscript in Latin lookup 11 subtable" one.subs
AlternateSubs2: "'aalt' Access All Alternates in Latin lookup 1 subtable" one.subs uni00B9 one.numr one.dnom one.tf one.osf
EndChar

StartChar: two
Encoding: 50 50 21
Width: 645
GlyphClass: 2
Flags: W
LayerCount: 2
Fore
SplineSet
4 136 m 1,0,-1
 252 320 l 2,1,2
 330 379 330 379 365 408 c 128,-1,3
 400 437 400 437 413.5 456.5 c 128,-1,4
 427 476 427 476 430 501 c 0,5,6
 435 534 435 534 415 555 c 128,-1,7
 395 576 395 576 356 576 c 0,8,9
 312 576 312 576 277 550 c 128,-1,10
 242 524 242 524 223 468 c 1,11,-1
 40 468 l 1,12,13
 51 545 51 545 93 604.5 c 128,-1,14
 135 664 135 664 208.5 698.5 c 128,-1,15
 282 733 282 733 382 733 c 0,16,17
 470 733 470 733 530 704 c 128,-1,18
 590 675 590 675 617 623 c 128,-1,19
 644 571 644 571 635 503 c 0,20,21
 627 449 627 449 596 408.5 c 128,-1,22
 565 368 565 368 488 306 c 2,23,-1
 308 160 l 1,24,-1
 593 160 l 1,25,-1
 571 0 l 1,26,-1
 -15 0 l 1,27,-1
 4 136 l 1,0,-1
EndSplineSet
Substitution2: "'onum' Oldstyle Figures in Latin lookup 24 subtable" two.osf
Substitution2: "'tnum' Tabular Numbers in Latin lookup 23 subtable" two.tf
Substitution2: "'frac' Diagonal Fractions in Latin lookup 17 subtable" two.numr
Substitution2: "'dnom' Denominators in Latin lookup 15 subtable" two.dnom
Substitution2: "'numr' Numerators in Latin lookup 14 subtable" two.numr
Substitution2: "'sups' Superscript in Latin lookup 13 subtable" uni00B2
Substitution2: "'sinf' Scientific Inferiors in Latin lookup 12 subtable" two.subs
Substitution2: "'subs' Subscript in Latin lookup 11 subtable" two.subs
AlternateSubs2: "'aalt' Access All Alternates in Latin lookup 1 subtable" two.subs uni00B2 two.numr two.dnom two.tf two.osf
EndChar

StartChar: three
Encoding: 51 51 22
Width: 694
GlyphClass: 2
Flags: W
LayerCount: 2
Fore
SplineSet
162 677 m 128,-1,1
 264 733 264 733 409 733 c 0,2,3
 490 733 490 733 554.5 709 c 128,-1,4
 619 685 619 685 652.5 641 c 128,-1,5
 686 597 686 597 678 540 c 0,6,7
 663 433 663 433 528 388 c 1,8,9
 586 372 586 372 625.5 328 c 128,-1,10
 665 284 665 284 655 215 c 0,11,12
 645 144 645 144 589.5 93 c 128,-1,13
 534 42 534 42 457 16 c 128,-1,14
 380 -10 380 -10 306 -10 c 0,15,16
 145 -10 145 -10 66 44.5 c 128,-1,17
 -13 99 -13 99 6 238 c 1,18,-1
 190 238 l 1,19,20
 193 186 193 186 228 164 c 128,-1,21
 263 142 263 142 310 142 c 0,22,23
 362 142 362 142 398 163.5 c 128,-1,24
 434 185 434 185 438 215 c 0,25,26
 442 246 442 246 418 268.5 c 128,-1,27
 394 291 394 291 349 292 c 2,28,-1
 251 294 l 1,29,-1
 272 444 l 1,30,-1
 359 449 l 2,31,32
 404 451 404 451 433.5 472 c 128,-1,33
 463 493 463 493 468 523 c 0,34,35
 472 551 472 551 444 569 c 128,-1,36
 416 587 416 587 381 587 c 0,37,38
 321 587 321 587 280 568.5 c 128,-1,39
 239 550 239 550 225 490 c 1,40,-1
 42 490 l 1,41,0
 60 621 60 621 162 677 c 128,-1,1
EndSplineSet
Substitution2: "'onum' Oldstyle Figures in Latin lookup 24 subtable" three.osf
Substitution2: "'tnum' Tabular Numbers in Latin lookup 23 subtable" three.tf
Substitution2: "'frac' Diagonal Fractions in Latin lookup 17 subtable" three.numr
Substitution2: "'dnom' Denominators in Latin lookup 15 subtable" three.dnom
Substitution2: "'numr' Numerators in Latin lookup 14 subtable" three.numr
Substitution2: "'sups' Superscript in Latin lookup 13 subtable" uni00B3
Substitution2: "'sinf' Scientific Inferiors in Latin lookup 12 subtable" three.subs
Substitution2: "'subs' Subscript in Latin lookup 11 subtable" three.subs
AlternateSubs2: "'aalt' Access All Alternates in Latin lookup 1 subtable" three.subs uni00B3 three.numr three.dnom three.tf three.osf
EndChar

StartChar: four
Encoding: 52 52 23
Width: 638
GlyphClass: 2
Flags: W
LayerCount: 2
Fore
SplineSet
581 723 m 1,0,-1
 521 302 l 1,1,-1
 625 302 l 1,2,-1
 602 138 l 1,3,-1
 498 138 l 1,4,-1
 479 0 l 1,5,-1
 283 0 l 1,6,-1
 303 138 l 1,7,-1
 -13 138 l 1,8,-1
 9 295 l 1,9,-1
 388 723 l 1,10,-1
 581 723 l 1,0,-1
328 302 m 1,11,-1
 350 458 l 1,12,-1
 212 302 l 1,13,-1
 328 302 l 1,11,-1
EndSplineSet
Substitution2: "'onum' Oldstyle Figures in Latin lookup 24 subtable" four.osf
Substitution2: "'tnum' Tabular Numbers in Latin lookup 23 subtable" four.tf
Substitution2: "'frac' Diagonal Fractions in Latin lookup 17 subtable" four.numr
Substitution2: "'dnom' Denominators in Latin lookup 15 subtable" four.dnom
Substitution2: "'numr' Numerators in Latin lookup 14 subtable" four.numr
Substitution2: "'sups' Superscript in Latin lookup 13 subtable" uni2074
Substitution2: "'sinf' Scientific Inferiors in Latin lookup 12 subtable" four.subs
Substitution2: "'subs' Subscript in Latin lookup 11 subtable" four.subs
AlternateSubs2: "'aalt' Access All Alternates in Latin lookup 1 subtable" four.subs uni2074 four.numr four.dnom four.tf four.osf
EndChar

StartChar: five
Encoding: 53 53 24
Width: 678
GlyphClass: 2
Flags: W
LayerCount: 2
Fore
SplineSet
655 723 m 1,0,-1
 625 567 l 1,1,-1
 288 567 l 1,2,-1
 260 447 l 1,3,4
 313 461 313 461 342 466.5 c 128,-1,5
 371 472 371 472 405 472 c 0,6,7
 484 472 484 472 539.5 444 c 128,-1,8
 595 416 595 416 620.5 362.5 c 128,-1,9
 646 309 646 309 636 236 c 0,10,11
 620 120 620 120 531 55 c 128,-1,12
 442 -10 442 -10 303 -10 c 0,13,14
 193 -10 193 -10 111 33 c 128,-1,15
 29 76 29 76 -3 145 c 1,16,-1
 156 243 l 1,17,18
 178 208 178 208 195.5 188 c 128,-1,19
 213 168 213 168 238.5 155 c 128,-1,20
 264 142 264 142 301 142 c 0,21,22
 353 142 353 142 386 166.5 c 128,-1,23
 419 191 419 191 424 229 c 0,24,25
 429 266 429 266 405.5 292 c 128,-1,26
 382 318 382 318 329 318 c 0,27,28
 306 318 306 318 284.5 312.5 c 128,-1,29
 263 307 263 307 227 292 c 0,30,31
 217 288 217 288 212 288 c 0,32,33
 206 288 206 288 198 293 c 2,34,-1
 76 364 l 1,35,-1
 161 723 l 1,36,-1
 655 723 l 1,0,-1
EndSplineSet
Substitution2: "'onum' Oldstyle Figures in Latin lookup 24 subtable" five.osf
Substitution2: "'tnum' Tabular Numbers in Latin lookup 23 subtable" five.tf
Substitution2: "'frac' Diagonal Fractions in Latin lookup 17 subtable" five.numr
Substitution2: "'dnom' Denominators in Latin lookup 15 subtable" five.dnom
Substitution2: "'numr' Numerators in Latin lookup 14 subtable" five.numr
Substitution2: "'sups' Superscript in Latin lookup 13 subtable" uni2075
Substitution2: "'sinf' Scientific Inferiors in Latin lookup 12 subtable" five.subs
Substitution2: "'subs' Subscript in Latin lookup 11 subtable" five.subs
AlternateSubs2: "'aalt' Access All Alternates in Latin lookup 1 subtable" five.subs uni2075 five.numr five.dnom five.tf five.osf
EndChar

StartChar: six
Encoding: 54 54 25
Width: 670
GlyphClass: 2
Flags: W
LayerCount: 2
Fore
SplineSet
542 705.5 m 128,-1,1
 602 678 602 678 633 626.5 c 128,-1,2
 664 575 664 575 654 506 c 1,3,-1
 478 506 l 1,4,5
 472 546 472 546 450.5 564.5 c 128,-1,6
 429 583 429 583 390 583 c 0,7,8
 338 583 338 583 302 544.5 c 128,-1,9
 266 506 266 506 258 451 c 0,10,11
 256 435 256 435 257 418 c 1,12,13
 316 451 316 451 406 451 c 0,14,15
 481 451 481 451 534.5 424 c 128,-1,16
 588 397 588 397 612.5 348 c 128,-1,17
 637 299 637 299 628 236 c 0,18,19
 618 167 618 167 572 112 c 128,-1,20
 526 57 526 57 454 25.5 c 128,-1,21
 382 -6 382 -6 298 -6 c 0,22,23
 200 -6 200 -6 134 37.5 c 128,-1,24
 68 81 68 81 41.5 160.5 c 128,-1,25
 15 240 15 240 29 345 c 0,26,27
 46 465 46 465 98 552.5 c 128,-1,28
 150 640 150 640 229 686.5 c 128,-1,29
 308 733 308 733 406 733 c 0,30,0
 482 733 482 733 542 705.5 c 128,-1,1
291 302 m 128,-1,32
 267 293 267 293 250.5 280 c 128,-1,33
 234 267 234 267 232 258 c 0,34,35
 223 197 223 197 244.5 166 c 128,-1,36
 266 135 266 135 310 135 c 0,37,38
 350 135 350 135 383.5 161.5 c 128,-1,39
 417 188 417 188 423 227 c 0,40,41
 429 270 429 270 402.5 290.5 c 128,-1,42
 376 311 376 311 336 311 c 0,43,31
 315 311 315 311 291 302 c 128,-1,32
EndSplineSet
Substitution2: "'onum' Oldstyle Figures in Latin lookup 24 subtable" six.osf
Substitution2: "'tnum' Tabular Numbers in Latin lookup 23 subtable" six.tf
Substitution2: "'frac' Diagonal Fractions in Latin lookup 17 subtable" six.numr
Substitution2: "'dnom' Denominators in Latin lookup 15 subtable" six.dnom
Substitution2: "'numr' Numerators in Latin lookup 14 subtable" six.numr
Substitution2: "'sups' Superscript in Latin lookup 13 subtable" uni2076
Substitution2: "'sinf' Scientific Inferiors in Latin lookup 12 subtable" six.subs
Substitution2: "'subs' Subscript in Latin lookup 11 subtable" six.subs
AlternateSubs2: "'aalt' Access All Alternates in Latin lookup 1 subtable" six.subs uni2076 six.numr six.dnom six.tf six.osf
EndChar

StartChar: seven
Encoding: 55 55 26
Width: 597
GlyphClass: 2
Flags: W
LayerCount: 2
Fore
SplineSet
644 723 m 1,0,-1
 616 524 l 1,1,2
 554 464 554 464 487.5 373.5 c 128,-1,3
 421 283 421 283 372.5 183.5 c 128,-1,4
 324 84 324 84 314 0 c 1,5,-1
 105 0 l 1,6,7
 114 61 114 61 152 153.5 c 128,-1,8
 190 246 190 246 263 356 c 128,-1,9
 336 466 336 466 444 567 c 1,10,-1
 53 567 l 1,11,-1
 75 723 l 1,12,-1
 644 723 l 1,0,-1
EndSplineSet
Substitution2: "'onum' Oldstyle Figures in Latin lookup 24 subtable" seven.osf
Substitution2: "'tnum' Tabular Numbers in Latin lookup 23 subtable" seven.tf
Substitution2: "'frac' Diagonal Fractions in Latin lookup 17 subtable" seven.numr
Substitution2: "'dnom' Denominators in Latin lookup 15 subtable" seven.dnom
Substitution2: "'numr' Numerators in Latin lookup 14 subtable" seven.numr
Substitution2: "'sups' Superscript in Latin lookup 13 subtable" uni2077
Substitution2: "'sinf' Scientific Inferiors in Latin lookup 12 subtable" seven.subs
Substitution2: "'subs' Subscript in Latin lookup 11 subtable" seven.subs
AlternateSubs2: "'aalt' Access All Alternates in Latin lookup 1 subtable" seven.subs uni2077 seven.numr seven.dnom seven.tf seven.osf
EndChar

StartChar: eight
Encoding: 56 56 27
Width: 652
GlyphClass: 2
Flags: W
LayerCount: 2
Fore
SplineSet
519 706 m 128,-1,1
 579 679 579 679 608.5 632.5 c 128,-1,2
 638 586 638 586 630 530 c 0,3,4
 622 475 622 475 581.5 442.5 c 128,-1,5
 541 410 541 410 502 397 c 1,6,7
 542 375 542 375 566.5 356.5 c 128,-1,8
 591 338 591 338 608.5 302.5 c 128,-1,9
 626 267 626 267 618 214 c 0,10,11
 603 108 603 108 509 49 c 128,-1,12
 415 -10 415 -10 269 -10 c 0,13,14
 135 -10 135 -10 60 39 c 128,-1,15
 -15 88 -15 88 -2 177 c 0,16,17
 7 243 7 243 49 279 c 128,-1,18
 91 315 91 315 151 335 c 1,19,20
 148 337 148 337 122.5 355 c 128,-1,21
 97 373 97 373 76.5 412.5 c 128,-1,22
 56 452 56 452 63 502 c 0,23,24
 72 565 72 565 113 617.5 c 128,-1,25
 154 670 154 670 222.5 701.5 c 128,-1,26
 291 733 291 733 379 733 c 0,27,0
 459 733 459 733 519 706 c 128,-1,1
302 575.5 m 128,-1,29
 277 559 277 559 272 530 c 0,30,31
 267 491 267 491 312 474 c 2,32,-1
 371 452 l 2,33,34
 379 450 379 450 382 450 c 0,35,36
 405 450 405 450 427 474 c 128,-1,37
 449 498 449 498 453 523 c 0,38,39
 457 551 457 551 433 571.5 c 128,-1,40
 409 592 409 592 363 592 c 0,41,28
 327 592 327 592 302 575.5 c 128,-1,29
372.5 148.5 m 128,-1,43
 398 165 398 165 402 194 c 0,44,45
 405 215 405 215 394 231 c 128,-1,46
 383 247 383 247 349 260 c 2,47,-1
 283 285 l 2,48,49
 276 288 276 288 267 288 c 0,50,51
 241 288 241 288 216.5 266 c 128,-1,52
 192 244 192 244 188 213 c 0,53,54
 183 174 183 174 209.5 153 c 128,-1,55
 236 132 236 132 303 132 c 0,56,42
 347 132 347 132 372.5 148.5 c 128,-1,43
EndSplineSet
Substitution2: "'onum' Oldstyle Figures in Latin lookup 24 subtable" eight.osf
Substitution2: "'tnum' Tabular Numbers in Latin lookup 23 subtable" eight.tf
Substitution2: "'frac' Diagonal Fractions in Latin lookup 17 subtable" eight.numr
Substitution2: "'dnom' Denominators in Latin lookup 15 subtable" eight.dnom
Substitution2: "'numr' Numerators in Latin lookup 14 subtable" eight.numr
Substitution2: "'sups' Superscript in Latin lookup 13 subtable" uni2078
Substitution2: "'sinf' Scientific Inferiors in Latin lookup 12 subtable" eight.subs
Substitution2: "'subs' Subscript in Latin lookup 11 subtable" eight.subs
AlternateSubs2: "'aalt' Access All Alternates in Latin lookup 1 subtable" eight.subs uni2078 eight.numr eight.dnom eight.tf eight.osf
EndChar

StartChar: nine
Encoding: 57 57 28
Width: 670
GlyphClass: 2
Flags: W
LayerCount: 2
Fore
SplineSet
136 20.5 m 128,-1,1
 75 49 75 49 43.5 101 c 128,-1,2
 12 153 12 153 21 219 c 1,3,-1
 204 219 l 1,4,5
 205 183 205 183 225.5 162.5 c 128,-1,6
 246 142 246 142 284 142 c 0,7,8
 346 142 346 142 388.5 175 c 128,-1,9
 431 208 431 208 442 284 c 0,10,11
 443 293 443 293 444 315 c 1,12,13
 388 264 388 264 284 264 c 0,14,15
 209 264 209 264 152.5 292 c 128,-1,16
 96 320 96 320 68.5 371 c 128,-1,17
 41 422 41 422 51 489 c 0,18,19
 61 558 61 558 107 613 c 128,-1,20
 153 668 153 668 225 699.5 c 128,-1,21
 297 731 297 731 381 731 c 0,22,23
 480 731 480 731 545.5 687.5 c 128,-1,24
 611 644 611 644 637.5 564.5 c 128,-1,25
 664 485 664 485 649 380 c 0,26,27
 621 182 621 182 523 87 c 128,-1,28
 425 -8 425 -8 272 -8 c 0,29,0
 197 -8 197 -8 136 20.5 c 128,-1,1
388 423 m 128,-1,31
 412 432 412 432 428.5 445 c 128,-1,32
 445 458 445 458 447 467 c 0,33,34
 456 529 456 529 434.5 560 c 128,-1,35
 413 591 413 591 369 591 c 0,36,37
 330 591 330 591 300 565 c 128,-1,38
 270 539 270 539 264 498 c 0,39,40
 258 458 258 458 282 436 c 128,-1,41
 306 414 306 414 343 414 c 0,42,30
 364 414 364 414 388 423 c 128,-1,31
EndSplineSet
Substitution2: "'onum' Oldstyle Figures in Latin lookup 24 subtable" nine.osf
Substitution2: "'tnum' Tabular Numbers in Latin lookup 23 subtable" nine.tf
Substitution2: "'frac' Diagonal Fractions in Latin lookup 17 subtable" nine.numr
Substitution2: "'dnom' Denominators in Latin lookup 15 subtable" nine.dnom
Substitution2: "'numr' Numerators in Latin lookup 14 subtable" nine.numr
Substitution2: "'sups' Superscript in Latin lookup 13 subtable" uni2079
Substitution2: "'sinf' Scientific Inferiors in Latin lookup 12 subtable" nine.subs
Substitution2: "'subs' Subscript in Latin lookup 11 subtable" nine.subs
AlternateSubs2: "'aalt' Access All Alternates in Latin lookup 1 subtable" nine.subs uni2079 nine.numr nine.dnom nine.tf nine.osf
EndChar

StartChar: colon
Encoding: 58 58 29
Width: 302
GlyphClass: 2
Flags: W
LayerCount: 2
Fore
SplineSet
245 320 m 1,0,-1
 40 320 l 1,1,-1
 67 512 l 1,2,-1
 272 512 l 1,3,-1
 245 320 l 1,0,-1
200 3 m 1,4,-1
 -5 3 l 1,5,-1
 22 195 l 1,6,-1
 227 195 l 1,7,-1
 200 3 l 1,4,-1
EndSplineSet
EndChar

StartChar: semicolon
Encoding: 59 59 30
Width: 302
GlyphClass: 2
Flags: W
LayerCount: 2
Fore
SplineSet
67 509 m 1,0,-1
 272 509 l 1,1,-1
 244 313 l 1,2,-1
 39 313 l 1,3,-1
 67 509 l 1,0,-1
65 0 m 1,4,-1
 -5 0 l 1,5,-1
 22 193 l 1,6,-1
 227 193 l 1,7,-1
 203 22 l 1,8,-1
 46 -165 l 1,9,-1
 -31 -165 l 1,10,-1
 65 0 l 1,4,-1
EndSplineSet
EndChar

StartChar: less
Encoding: 60 60 31
Width: 608
GlyphClass: 2
Flags: W
LayerCount: 2
Fore
SplineSet
501 72 m 1,0,-1
 32 263 l 1,1,-1
 54 418 l 1,2,-1
 577 609 l 1,3,-1
 554 449 l 1,4,-1
 249 339 l 1,5,-1
 524 234 l 1,6,-1
 501 72 l 1,0,-1
EndSplineSet
EndChar

StartChar: equal
Encoding: 61 61 32
Width: 609
GlyphClass: 2
Flags: W
LayerCount: 2
Fore
SplineSet
564 389 m 1,0,-1
 55 389 l 1,1,-1
 74 527 l 1,2,-1
 583 527 l 1,3,-1
 564 389 l 1,0,-1
531 154 m 1,4,-1
 22 154 l 1,5,-1
 41 292 l 1,6,-1
 550 292 l 1,7,-1
 531 154 l 1,4,-1
EndSplineSet
EndChar

StartChar: greater
Encoding: 62 62 33
Width: 608
GlyphClass: 2
Flags: W
LayerCount: 2
Fore
SplineSet
353 339 m 1,0,-1
 77 449 l 1,1,-1
 100 609 l 1,2,-1
 570 418 l 1,3,-1
 548 263 l 1,4,-1
 24 72 l 1,5,-1
 47 234 l 1,6,-1
 353 339 l 1,0,-1
EndSplineSet
EndChar

StartChar: question
Encoding: 63 63 34
Width: 540
GlyphClass: 2
Flags: W
LayerCount: 2
Fore
SplineSet
148 686.5 m 128,-1,1
 223 733 223 733 324 733 c 0,2,3
 397 733 397 733 451.5 710 c 128,-1,4
 506 687 506 687 532.5 648.5 c 128,-1,5
 559 610 559 610 553 566 c 0,6,7
 548 528 548 528 530 499.5 c 128,-1,8
 512 471 512 471 489.5 450.5 c 128,-1,9
 467 430 467 430 432 404 c 0,10,11
 383 368 383 368 356 337.5 c 128,-1,12
 329 307 329 307 323 262 c 1,13,-1
 171 262 l 1,14,15
 178 313 178 313 197.5 351.5 c 128,-1,16
 217 390 217 390 240.5 415.5 c 128,-1,17
 264 441 264 441 298 471 c 0,18,19
 329 500 329 500 343.5 517.5 c 128,-1,20
 358 535 358 535 361 555 c 0,21,22
 364 578 364 578 347 592 c 128,-1,23
 330 606 330 606 304 606 c 0,24,25
 271 606 271 606 239.5 582.5 c 128,-1,26
 208 559 208 559 186 516 c 1,27,-1
 28 551 l 1,28,0
 73 640 73 640 148 686.5 c 128,-1,1
312 0 m 1,29,-1
 107 0 l 1,30,-1
 134 192 l 1,31,-1
 339 192 l 1,32,-1
 312 0 l 1,29,-1
EndSplineSet
EndChar

StartChar: at
Encoding: 64 64 35
Width: 837
GlyphClass: 2
Flags: W
LayerCount: 2
Fore
SplineSet
513 -88 m 128,-1,1
 444 -110 444 -110 363 -110 c 0,2,3
 245 -110 245 -110 164.5 -61.5 c 128,-1,4
 84 -13 84 -13 49.5 70.5 c 128,-1,5
 15 154 15 154 29 255 c 0,6,7
 44 361 44 361 106 450 c 128,-1,8
 168 539 168 539 268 591.5 c 128,-1,9
 368 644 368 644 491 644 c 0,10,11
 586 644 586 644 662 610.5 c 128,-1,12
 738 577 738 577 778 506 c 128,-1,13
 818 435 818 435 803 330 c 0,14,15
 793 257 793 257 760.5 200 c 128,-1,16
 728 143 728 143 679.5 111 c 128,-1,17
 631 79 631 79 573 79 c 0,18,19
 533 79 533 79 513 91.5 c 128,-1,20
 493 104 493 104 480 121 c 0,21,22
 476 126 476 126 475 126 c 0,23,24
 472 126 472 126 467 120 c 0,25,26
 440 95 440 95 405.5 80 c 128,-1,27
 371 65 371 65 333 65 c 0,28,29
 265 65 265 65 228 112 c 128,-1,30
 191 159 191 159 202 236 c 0,31,32
 210 295 210 295 242.5 347 c 128,-1,33
 275 399 275 399 325.5 431 c 128,-1,34
 376 463 376 463 437 463 c 0,35,36
 474 463 474 463 493.5 452.5 c 128,-1,37
 513 442 513 442 532 422 c 0,38,39
 535 419 535 419 537.5 420 c 128,-1,40
 540 421 540 421 542 426 c 2,41,-1
 546 438 l 1,42,-1
 650 438 l 1,43,-1
 585 229 l 2,44,45
 581 215 581 215 581 210 c 0,46,47
 577 180 577 180 601 180 c 0,48,49
 619 180 619 180 639 195.5 c 128,-1,50
 659 211 659 211 674.5 243.5 c 128,-1,51
 690 276 690 276 697 324 c 0,52,53
 714 443 714 443 651 494.5 c 128,-1,54
 588 546 588 546 477 546 c 0,55,56
 325 546 325 546 241 465.5 c 128,-1,57
 157 385 157 385 139 258 c 0,58,59
 120 122 120 122 188.5 51 c 128,-1,60
 257 -20 257 -20 392 -20 c 0,61,62
 454 -20 454 -20 493 -6.5 c 128,-1,63
 532 7 532 7 580 37 c 1,64,-1
 623 -34 l 1,65,0
 582 -66 582 -66 513 -88 c 128,-1,1
340.5 197 m 128,-1,67
 353 174 353 174 383 174 c 0,68,69
 419 174 419 174 448.5 205.5 c 128,-1,70
 478 237 478 237 484 276 c 0,71,72
 488 308 488 308 475 331.5 c 128,-1,73
 462 355 462 355 432 355 c 0,74,75
 398 355 398 355 368 325 c 128,-1,76
 338 295 338 295 332 252 c 0,77,66
 328 220 328 220 340.5 197 c 128,-1,67
EndSplineSet
EndChar

StartChar: A
Encoding: 65 65 36
Width: 724
GlyphClass: 2
Flags: W
AnchorPoint: "Anchor-5" -46 0 basechar 0
AnchorPoint: "Anchor-4" -46 0 basechar 0
AnchorPoint: "Anchor-3" 331 723 basechar 0
AnchorPoint: "Anchor-2" 674 9 basechar 0
LayerCount: 2
Fore
SplineSet
319 723 m 1,0,-1
 518 723 l 1,1,-1
 672 0 l 1,2,-1
 480 0 l 1,3,-1
 452 140 l 1,4,-1
 224 140 l 1,5,-1
 155 0 l 1,6,-1
 -39 0 l 1,7,-1
 319 723 l 1,0,-1
431 306 m 1,8,-1
 392 537 l 1,9,-1
 288 306 l 1,10,-1
 431 306 l 1,8,-1
EndSplineSet
Substitution2: "Single Substitution lookup 30 subtable" ordfeminine
Substitution2: "'aalt' Access All Alternates in Latin lookup 0 subtable" ordfeminine
EndChar

StartChar: B
Encoding: 66 66 37
Width: 697
GlyphClass: 2
Flags: W
LayerCount: 2
Fore
SplineSet
121 723 m 1,0,-1
 410 723 l 2,1,2
 559 723 559 723 622.5 674.5 c 128,-1,3
 686 626 686 626 673 532 c 0,4,5
 666 480 666 480 634 442 c 128,-1,6
 602 404 602 404 533 372 c 1,7,8
 613 347 613 347 632 301 c 128,-1,9
 651 255 651 255 643 197 c 0,10,11
 629 94 629 94 554 47 c 128,-1,12
 479 0 479 0 324 0 c 2,13,-1
 19 0 l 1,14,-1
 121 723 l 1,0,-1
398 441 m 2,15,16
 432 441 432 441 455 459.5 c 128,-1,17
 478 478 478 478 482 507 c 0,18,19
 486 539 486 539 465.5 558 c 128,-1,20
 445 577 445 577 410 577 c 2,21,-1
 295 577 l 1,22,-1
 276 441 l 1,23,-1
 398 441 l 2,15,16
352 146 m 2,24,25
 393 146 393 146 418.5 168 c 128,-1,26
 444 190 444 190 448 221 c 0,27,28
 452 251 452 251 432.5 271 c 128,-1,29
 413 291 413 291 377 291 c 2,30,-1
 255 291 l 1,31,-1
 235 146 l 1,32,-1
 352 146 l 2,24,25
EndSplineSet
EndChar

StartChar: C
Encoding: 67 67 38
Width: 732
GlyphClass: 2
Flags: W
AnchorPoint: "Anchor-5" -46 0 basechar 0
AnchorPoint: "Anchor-4" 336 0 basechar 0
AnchorPoint: "Anchor-3" 336 723 basechar 0
AnchorPoint: "Anchor-2" -46 0 basechar 0
LayerCount: 2
Fore
SplineSet
588 699.5 m 128,-1,1
 652 666 652 666 685.5 605.5 c 128,-1,2
 719 545 719 545 716 468 c 1,3,-1
 513 468 l 1,4,5
 512 519 512 519 485.5 548 c 128,-1,6
 459 577 459 577 410 577 c 0,7,8
 351 577 351 577 311 529 c 128,-1,9
 271 481 271 481 255 368 c 0,10,11
 239 253 239 253 265.5 199.5 c 128,-1,12
 292 146 292 146 350 146 c 0,13,14
 398 146 398 146 433 181 c 128,-1,15
 468 216 468 216 485 270 c 1,16,-1
 688 270 l 1,17,18
 653 140 653 140 573.5 65 c 128,-1,19
 494 -10 494 -10 335 -10 c 0,20,21
 232 -10 232 -10 160 39 c 128,-1,22
 88 88 88 88 57.5 175 c 128,-1,23
 27 262 27 262 42 371 c 128,-1,24
 57 480 57 480 111.5 562 c 128,-1,25
 166 644 166 644 250 688.5 c 128,-1,26
 334 733 334 733 439 733 c 0,27,0
 524 733 524 733 588 699.5 c 128,-1,1
EndSplineSet
EndChar

StartChar: D
Encoding: 68 68 39
Width: 735
GlyphClass: 2
Flags: W
AnchorPoint: "Anchor-5" -46 0 basechar 0
AnchorPoint: "Anchor-4" -46 0 basechar 0
AnchorPoint: "Anchor-3" 323 723 basechar 0
AnchorPoint: "Anchor-2" -46 0 basechar 0
LayerCount: 2
Fore
SplineSet
235 723 m 2,0,1
 350 723 350 723 380 722 c 0,2,3
 568 715 568 715 647.5 620 c 128,-1,4
 727 525 727 525 704 364 c 0,5,6
 689 256 689 256 636.5 174 c 128,-1,7
 584 92 584 92 493 46 c 128,-1,8
 402 0 402 0 278 0 c 2,9,-1
 19 0 l 1,10,-1
 121 723 l 1,11,-1
 235 723 l 2,0,1
236 153 m 1,12,-1
 306 153 l 2,13,14
 346 153 346 153 387 175 c 128,-1,15
 428 197 428 197 459.5 245 c 128,-1,16
 491 293 491 293 502 367 c 0,17,18
 516 465 516 465 478 517.5 c 128,-1,19
 440 570 440 570 364 570 c 2,20,-1
 294 570 l 1,21,-1
 236 153 l 1,12,-1
EndSplineSet
EndChar

StartChar: E
Encoding: 69 69 40
Width: 651
GlyphClass: 2
Flags: W
AnchorPoint: "Anchor-5" -46 0 basechar 0
AnchorPoint: "Anchor-4" 286 0 basechar 0
AnchorPoint: "Anchor-3" 286 723 basechar 0
AnchorPoint: "Anchor-2" 553 10 basechar 0
LayerCount: 2
Fore
SplineSet
121 723 m 1,0,-1
 655 723 l 1,1,-1
 631 562 l 1,2,-1
 294 562 l 1,3,-1
 277 442 l 1,4,-1
 559 442 l 1,5,-1
 537 285 l 1,6,-1
 254 285 l 1,7,-1
 237 162 l 1,8,-1
 577 162 l 1,9,-1
 554 0 l 1,10,-1
 19 0 l 1,11,-1
 121 723 l 1,0,-1
EndSplineSet
EndChar

StartChar: F
Encoding: 70 70 41
Width: 621
GlyphClass: 2
Flags: W
LayerCount: 2
Fore
SplineSet
651 723 m 1,0,-1
 627 564 l 1,1,-1
 293 564 l 1,2,-1
 275 434 l 1,3,-1
 554 434 l 1,4,-1
 532 279 l 1,5,-1
 253 279 l 1,6,-1
 214 0 l 1,7,-1
 19 0 l 1,8,-1
 121 723 l 1,9,-1
 651 723 l 1,0,-1
EndSplineSet
EndChar

StartChar: G
Encoding: 71 71 42
Width: 773
GlyphClass: 2
Flags: W
AnchorPoint: "Anchor-5" -46 0 basechar 0
AnchorPoint: "Anchor-4" 334 0 basechar 0
AnchorPoint: "Anchor-3" 334 723 basechar 0
AnchorPoint: "Anchor-2" -46 0 basechar 0
LayerCount: 2
Fore
SplineSet
158 36.5 m 128,-1,1
 87 83 87 83 56 167 c 128,-1,2
 25 251 25 251 40 359 c 0,3,4
 56 470 56 470 113 555 c 128,-1,5
 170 640 170 640 257 686.5 c 128,-1,6
 344 733 344 733 447 733 c 0,7,8
 540 733 540 733 606.5 695.5 c 128,-1,9
 673 658 673 658 703.5 597.5 c 128,-1,10
 734 537 734 537 726 468 c 1,11,-1
 523 468 l 1,12,13
 520 515 520 515 494 543.5 c 128,-1,14
 468 572 468 572 419 572 c 0,15,16
 359 572 359 572 314 523 c 128,-1,17
 269 474 269 474 253 365 c 0,18,19
 236 246 236 246 272.5 202.5 c 128,-1,20
 309 159 309 159 369 159 c 0,21,22
 408 159 408 159 440 179.5 c 128,-1,23
 472 200 472 200 484 227 c 2,24,-1
 497 253 l 1,25,-1
 371 253 l 1,26,-1
 389 384 l 1,27,-1
 720 382 l 1,28,-1
 666 0 l 1,29,-1
 538 0 l 1,30,-1
 549 80 l 1,31,32
 519 53 519 53 493 35 c 128,-1,33
 467 17 467 17 426.5 3.5 c 128,-1,34
 386 -10 386 -10 331 -10 c 0,35,0
 229 -10 229 -10 158 36.5 c 128,-1,1
EndSplineSet
EndChar

StartChar: H
Encoding: 72 72 43
Width: 740
GlyphClass: 2
Flags: W
AnchorPoint: "Anchor-5" -46 0 basechar 0
AnchorPoint: "Anchor-4" 319 0 basechar 0
AnchorPoint: "Anchor-3" 321 723 basechar 0
AnchorPoint: "Anchor-2" -46 0 basechar 0
LayerCount: 2
Fore
SplineSet
255 290 m 1,0,-1
 214 0 l 1,1,-1
 19 0 l 1,2,-1
 121 723 l 1,3,-1
 316 723 l 1,4,-1
 277 449 l 1,5,-1
 496 449 l 1,6,-1
 535 723 l 1,7,-1
 730 723 l 1,8,-1
 628 0 l 1,9,-1
 433 0 l 1,10,-1
 474 290 l 1,11,-1
 255 290 l 1,0,-1
EndSplineSet
EndChar

StartChar: I
Encoding: 73 73 44
Width: 326
GlyphClass: 2
Flags: W
AnchorPoint: "Anchor-5" -46 0 basechar 0
AnchorPoint: "Anchor-4" 127 0 basechar 0
AnchorPoint: "Anchor-3" 117 723 basechar 0
AnchorPoint: "Anchor-2" 190 3 basechar 0
LayerCount: 2
Fore
SplineSet
316 723 m 1,0,-1
 214 0 l 1,1,-1
 19 0 l 1,2,-1
 121 723 l 1,3,-1
 316 723 l 1,0,-1
EndSplineSet
EndChar

StartChar: J
Encoding: 74 74 45
Width: 432
GlyphClass: 2
Flags: W
AnchorPoint: "Anchor-5" -46 0 basechar 0
AnchorPoint: "Anchor-4" -46 0 basechar 0
AnchorPoint: "Anchor-3" 173 723 basechar 0
AnchorPoint: "Anchor-2" -46 0 basechar 0
LayerCount: 2
Fore
SplineSet
315.5 93 m 128,-1,1
 291 42 291 42 241 16 c 128,-1,2
 191 -10 191 -10 105 -10 c 0,3,4
 73 -10 73 -10 34.5 -7 c 128,-1,5
 -4 -4 -4 -4 -25 0 c 1,6,-1
 0 175 l 1,7,8
 44 170 44 170 63 170 c 0,9,10
 113 170 113 170 134.5 195 c 128,-1,11
 156 220 156 220 164 279 c 2,12,-1
 227 723 l 1,13,-1
 422 723 l 1,14,-1
 352 229 l 2,15,0
 340 144 340 144 315.5 93 c 128,-1,1
EndSplineSet
EndChar

StartChar: K
Encoding: 75 75 46
Width: 744
GlyphClass: 2
Flags: W
AnchorPoint: "Anchor-5" -46 0 basechar 0
AnchorPoint: "Anchor-4" 311 0 basechar 0
AnchorPoint: "Anchor-3" 311 723 basechar 0
AnchorPoint: "Anchor-2" -46 0 basechar 0
LayerCount: 2
Fore
SplineSet
472 0 m 1,0,-1
 354 305 l 1,1,-1
 248 189 l 1,2,-1
 221 0 l 1,3,-1
 19 0 l 1,4,-1
 121 723 l 1,5,-1
 323 723 l 1,6,-1
 282 431 l 1,7,-1
 532 723 l 1,8,-1
 751 723 l 1,9,-1
 513 447 l 1,10,-1
 681 0 l 1,11,-1
 472 0 l 1,0,-1
EndSplineSet
EndChar

StartChar: L
Encoding: 76 76 47
Width: 570
GlyphClass: 2
Flags: W
AnchorPoint: "Anchor-5" 440 723 basechar 0
AnchorPoint: "Anchor-4" 258 0 basechar 0
AnchorPoint: "Anchor-3" 106 723 basechar 0
AnchorPoint: "Anchor-2" -46 0 basechar 0
LayerCount: 2
Fore
SplineSet
316 723 m 1,0,-1
 236 160 l 1,1,-1
 525 160 l 1,2,-1
 503 0 l 1,3,-1
 19 0 l 1,4,-1
 121 723 l 1,5,-1
 316 723 l 1,0,-1
EndSplineSet
EndChar

StartChar: M
Encoding: 77 77 48
Width: 943
GlyphClass: 2
Flags: W
LayerCount: 2
Fore
SplineSet
121 723 m 1,0,-1
 410 723 l 1,1,-1
 465 282 l 1,2,-1
 645 723 l 1,3,-1
 933 723 l 1,4,-1
 831 0 l 1,5,-1
 636 0 l 1,6,-1
 710 524 l 1,7,-1
 495 0 l 1,8,-1
 355 0 l 1,9,-1
 288 524 l 1,10,-1
 214 0 l 1,11,-1
 19 0 l 1,12,-1
 121 723 l 1,0,-1
EndSplineSet
EndChar

StartChar: N
Encoding: 78 78 49
Width: 804
GlyphClass: 2
Flags: W
AnchorPoint: "Anchor-5" -46 0 basechar 0
AnchorPoint: "Anchor-4" 355 0 basechar 0
AnchorPoint: "Anchor-3" 355 723 basechar 0
AnchorPoint: "Anchor-2" -46 0 basechar 0
LayerCount: 2
Fore
SplineSet
794 723 m 1,0,-1
 692 0 l 1,1,-1
 516 0 l 1,2,-1
 275 431 l 1,3,-1
 214 0 l 1,4,-1
 19 0 l 1,5,-1
 121 723 l 1,6,-1
 317 723 l 1,7,-1
 542 320 l 1,8,-1
 599 723 l 1,9,-1
 794 723 l 1,0,-1
EndSplineSet
EndChar

StartChar: O
Encoding: 79 79 50
Width: 772
GlyphClass: 2
Flags: W
AnchorPoint: "Anchor-5" -46 0 basechar 0
AnchorPoint: "Anchor-4" 342 0 basechar 0
AnchorPoint: "Anchor-3" 340 723 basechar 0
AnchorPoint: "Anchor-2" 431 10 basechar 0
LayerCount: 2
Fore
SplineSet
160.5 35.5 m 128,-1,1
 87 81 87 81 56 164.5 c 128,-1,2
 25 248 25 248 41 360 c 128,-1,3
 57 472 57 472 112 556.5 c 128,-1,4
 167 641 167 641 253 687 c 128,-1,5
 339 733 339 733 444 733 c 0,6,7
 548 733 548 733 620.5 687 c 128,-1,8
 693 641 693 641 724.5 556.5 c 128,-1,9
 756 472 756 472 741 360 c 0,10,11
 725 249 725 249 670 165 c 128,-1,12
 615 81 615 81 530 35.5 c 128,-1,13
 445 -10 445 -10 340 -10 c 0,14,0
 234 -10 234 -10 160.5 35.5 c 128,-1,1
470 196 m 128,-1,16
 514 246 514 246 529 357 c 0,17,18
 545 472 545 472 515.5 524.5 c 128,-1,19
 486 577 486 577 422 577 c 128,-1,20
 358 577 358 577 313 524.5 c 128,-1,21
 268 472 268 472 252 357 c 0,22,23
 236 246 236 246 266.5 196 c 128,-1,24
 297 146 297 146 362 146 c 0,25,15
 426 146 426 146 470 196 c 128,-1,16
EndSplineSet
Substitution2: "Single Substitution lookup 30 subtable" ordmasculine
Substitution2: "'aalt' Access All Alternates in Latin lookup 0 subtable" ordmasculine
EndChar

StartChar: P
Encoding: 80 80 51
Width: 661
GlyphClass: 2
Flags: W
LayerCount: 2
Fore
SplineSet
121 723 m 1,0,-1
 407 723 l 2,1,2
 488 723 488 723 548 694 c 128,-1,3
 608 665 608 665 637.5 609.5 c 128,-1,4
 667 554 667 554 656 478 c 0,5,6
 641 371 641 371 563 310 c 128,-1,7
 485 249 485 249 365 249 c 2,8,-1
 249 249 l 1,9,-1
 214 0 l 1,10,-1
 19 0 l 1,11,-1
 121 723 l 1,0,-1
379 394 m 2,12,13
 415 394 415 394 444.5 423 c 128,-1,14
 474 452 474 452 479 488 c 0,15,16
 484 525 484 525 461 552 c 128,-1,17
 438 579 438 579 405 579 c 2,18,-1
 293 579 l 1,19,-1
 267 394 l 1,20,-1
 379 394 l 2,12,13
EndSplineSet
EndChar

StartChar: Q
Encoding: 81 81 52
Width: 779
GlyphClass: 2
Flags: W
LayerCount: 2
Fore
SplineSet
101.5 556.5 m 128,-1,1
 157 641 157 641 243 687 c 128,-1,2
 329 733 329 733 434 733 c 128,-1,3
 539 733 539 733 611.5 687 c 128,-1,4
 684 641 684 641 715.5 556.5 c 128,-1,5
 747 472 747 472 732 360 c 0,6,7
 708 190 708 190 590 80 c 1,8,9
 593 59 593 59 621 43 c 128,-1,10
 649 27 649 27 685 27 c 1,11,-1
 663 -125 l 1,12,13
 598 -125 598 -125 557 -117 c 128,-1,14
 516 -109 516 -109 480.5 -83 c 128,-1,15
 445 -57 445 -57 410 -5 c 1,16,17
 365 -10 365 -10 330 -10 c 0,18,19
 224 -10 224 -10 150.5 35.5 c 128,-1,20
 77 81 77 81 46 164.5 c 128,-1,21
 15 248 15 248 31 360 c 0,22,0
 46 472 46 472 101.5 556.5 c 128,-1,1
255.5 195.5 m 128,-1,24
 284 146 284 146 352 146 c 128,-1,25
 420 146 420 146 461.5 195.5 c 128,-1,26
 503 245 503 245 519 358 c 0,27,28
 535 474 535 474 506.5 525.5 c 128,-1,29
 478 577 478 577 412 577 c 128,-1,30
 346 577 346 577 303 525.5 c 128,-1,31
 260 474 260 474 243 358 c 0,32,23
 227 245 227 245 255.5 195.5 c 128,-1,24
EndSplineSet
EndChar

StartChar: R
Encoding: 82 82 53
Width: 709
GlyphClass: 2
Flags: W
AnchorPoint: "Anchor-5" -46 0 basechar 0
AnchorPoint: "Anchor-4" 311 0 basechar 0
AnchorPoint: "Anchor-3" 301 723 basechar 0
AnchorPoint: "Anchor-2" -46 0 basechar 0
LayerCount: 2
Fore
SplineSet
421 0 m 1,0,-1
 351 249 l 1,1,-1
 249 249 l 1,2,-1
 214 0 l 1,3,-1
 19 0 l 1,4,-1
 121 723 l 1,5,-1
 449 723 l 2,6,7
 583 723 583 723 637.5 659 c 128,-1,8
 692 595 692 595 677 490 c 0,9,10
 666 412 666 412 629 363 c 128,-1,11
 592 314 592 314 532 280 c 1,12,-1
 620 0 l 1,13,-1
 421 0 l 1,0,-1
446 423 m 128,-1,15
 476 452 476 452 481 488 c 0,16,17
 486 525 486 525 463 552 c 128,-1,18
 440 579 440 579 406 579 c 2,19,-1
 295 579 l 1,20,-1
 269 394 l 1,21,-1
 380 394 l 2,22,14
 416 394 416 394 446 423 c 128,-1,15
EndSplineSet
EndChar

StartChar: S
Encoding: 83 83 54
Width: 716
GlyphClass: 2
Flags: W
AnchorPoint: "Anchor-5" -46 0 basechar 0
AnchorPoint: "Anchor-4" 314 0 basechar 0
AnchorPoint: "Anchor-3" 314 723 basechar 0
AnchorPoint: "Anchor-2" -46 0 basechar 0
LayerCount: 2
Fore
SplineSet
167 15 m 128,-1,1
 98 40 98 40 57 91.5 c 128,-1,2
 16 143 16 143 21 220 c 1,3,-1
 223 220 l 1,4,5
 226 182 226 182 255.5 160.5 c 128,-1,6
 285 139 285 139 336 139 c 0,7,8
 388 139 388 139 423.5 154.5 c 128,-1,9
 459 170 459 170 464 205 c 0,10,11
 468 234 468 234 439.5 246.5 c 128,-1,12
 411 259 411 259 352 269 c 2,13,-1
 241 288 l 2,14,15
 155 302 155 302 112 357.5 c 128,-1,16
 69 413 69 413 82 504 c 0,17,18
 92 574 92 574 139.5 625.5 c 128,-1,19
 187 677 187 677 260 704.5 c 128,-1,20
 333 732 333 732 417 732 c 0,21,22
 503 732 503 732 568 700.5 c 128,-1,23
 633 669 633 669 667 616.5 c 128,-1,24
 701 564 701 564 700 504 c 1,25,-1
 503 504 l 1,26,27
 505 545 505 545 479 563.5 c 128,-1,28
 453 582 453 582 400 582 c 0,29,30
 348 582 348 582 322 565 c 128,-1,31
 296 548 296 548 293 525 c 0,32,33
 289 499 289 499 304 484.5 c 128,-1,34
 319 470 319 470 363 462 c 2,35,-1
 473 443 l 2,36,37
 608 419 608 419 641 352.5 c 128,-1,38
 674 286 674 286 663 205 c 0,39,40
 654 144 654 144 605.5 95 c 128,-1,41
 557 46 557 46 481 18 c 128,-1,42
 405 -10 405 -10 316 -10 c 0,43,0
 236 -10 236 -10 167 15 c 128,-1,1
EndSplineSet
EndChar

StartChar: T
Encoding: 84 84 55
Width: 631
GlyphClass: 2
Flags: W
AnchorPoint: "Anchor-5" -46 0 basechar 0
AnchorPoint: "Anchor-4" 278 0 basechar 0
AnchorPoint: "Anchor-3" 278 723 basechar 0
AnchorPoint: "Anchor-2" -46 0 basechar 0
LayerCount: 2
Fore
SplineSet
68 723 m 1,0,-1
 675 723 l 1,1,-1
 651 552 l 1,2,-1
 444 552 l 1,3,-1
 366 0 l 1,4,-1
 171 0 l 1,5,-1
 249 552 l 1,6,-1
 44 552 l 1,7,-1
 68 723 l 1,0,-1
EndSplineSet
EndChar

StartChar: U
Encoding: 85 85 56
Width: 755
GlyphClass: 2
Flags: W
AnchorPoint: "Anchor-5" -46 0 basechar 0
AnchorPoint: "Anchor-4" -46 0 basechar 0
AnchorPoint: "Anchor-3" 313 723 basechar 0
AnchorPoint: "Anchor-2" 410 12 basechar 0
LayerCount: 2
Fore
SplineSet
580 71 m 128,-1,1
 496 -10 496 -10 330 -10 c 128,-1,2
 164 -10 164 -10 102 71 c 128,-1,3
 40 152 40 152 61 299 c 2,4,-1
 121 723 l 1,5,-1
 318 723 l 1,6,-1
 257 291 l 2,7,8
 247 221 247 221 275 187 c 128,-1,9
 303 153 303 153 353 153 c 128,-1,10
 403 153 403 153 440 187 c 128,-1,11
 477 221 477 221 487 291 c 2,12,-1
 548 723 l 1,13,-1
 745 723 l 1,14,-1
 685 299 l 2,15,0
 664 152 664 152 580 71 c 128,-1,1
EndSplineSet
EndChar

StartChar: V
Encoding: 86 86 57
Width: 716
GlyphClass: 2
Flags: W
LayerCount: 2
Fore
SplineSet
419 0 m 1,0,-1
 205 0 l 1,1,-1
 63 723 l 1,2,-1
 246 723 l 1,3,-1
 344 228 l 1,4,-1
 581 723 l 1,5,-1
 765 723 l 1,6,-1
 419 0 l 1,0,-1
EndSplineSet
EndChar

StartChar: W
Encoding: 87 87 58
Width: 976
GlyphClass: 2
Flags: W
AnchorPoint: "Anchor-5" -46 0 basechar 0
AnchorPoint: "Anchor-4" -46 0 basechar 0
AnchorPoint: "Anchor-3" 442 723 basechar 0
AnchorPoint: "Anchor-2" -46 0 basechar 0
LayerCount: 2
Fore
SplineSet
702 0 m 1,0,-1
 557 0 l 1,1,-1
 497 393 l 1,2,-1
 327 0 l 1,3,-1
 184 0 l 1,4,-1
 68 723 l 1,5,-1
 256 723 l 1,6,-1
 313 335 l 1,7,-1
 476 723 l 1,8,-1
 612 723 l 1,9,-1
 669 335 l 1,10,-1
 832 723 l 1,11,-1
 1020 723 l 1,12,-1
 702 0 l 1,0,-1
EndSplineSet
EndChar

StartChar: X
Encoding: 88 88 59
Width: 737
GlyphClass: 2
Flags: W
LayerCount: 2
Fore
SplineSet
436 0 m 1,0,-1
 335 227 l 1,1,-1
 173 0 l 1,2,-1
 -34 0 l 1,3,-1
 253 365 l 1,4,-1
 74 723 l 1,5,-1
 315 723 l 1,6,-1
 399 527 l 1,7,-1
 538 723 l 1,8,-1
 742 723 l 1,9,-1
 479 393 l 1,10,-1
 679 0 l 1,11,-1
 436 0 l 1,0,-1
EndSplineSet
EndChar

StartChar: Y
Encoding: 89 89 60
Width: 710
GlyphClass: 2
Flags: W
AnchorPoint: "Anchor-5" -46 0 basechar 0
AnchorPoint: "Anchor-4" -46 0 basechar 0
AnchorPoint: "Anchor-3" 333 723 basechar 0
AnchorPoint: "Anchor-2" -46 0 basechar 0
LayerCount: 2
Fore
SplineSet
447 301 m 1,0,-1
 405 0 l 1,1,-1
 210 0 l 1,2,-1
 252 301 l 1,3,-1
 57 723 l 1,4,-1
 267 723 l 1,5,-1
 373 466 l 1,6,-1
 552 723 l 1,7,-1
 764 723 l 1,8,-1
 447 301 l 1,0,-1
EndSplineSet
EndChar

StartChar: Z
Encoding: 90 90 61
Width: 698
GlyphClass: 2
Flags: W
AnchorPoint: "Anchor-5" -46 0 basechar 0
AnchorPoint: "Anchor-4" 308 0 basechar 0
AnchorPoint: "Anchor-3" 331 723 basechar 0
AnchorPoint: "Anchor-2" -46 0 basechar 0
LayerCount: 2
Fore
SplineSet
8 89 m 1,0,-1
 415 563 l 1,1,-1
 106 563 l 1,2,-1
 129 723 l 1,3,-1
 718 723 l 1,4,-1
 706 638 l 1,5,-1
 291 162 l 1,6,-1
 633 162 l 1,7,-1
 610 0 l 1,8,-1
 -5 0 l 1,9,-1
 8 89 l 1,0,-1
EndSplineSet
EndChar

StartChar: bracketleft
Encoding: 91 91 62
Width: 357
GlyphClass: 2
Flags: W
LayerCount: 2
Fore
SplineSet
379 723 m 1,0,-1
 364 619 l 1,1,-1
 251 619 l 1,2,-1
 156 -57 l 1,3,-1
 269 -57 l 1,4,-1
 254 -161 l 1,5,-1
 -14 -161 l 1,6,-1
 111 723 l 1,7,-1
 379 723 l 1,0,-1
EndSplineSet
EndChar

StartChar: backslash
Encoding: 92 92 63
Width: 400
GlyphClass: 2
Flags: W
LayerCount: 2
Fore
SplineSet
57 723 m 1,0,-1
 186 723 l 1,1,-1
 339 0 l 1,2,-1
 210 0 l 1,3,-1
 57 723 l 1,0,-1
EndSplineSet
EndChar

StartChar: bracketright
Encoding: 93 93 64
Width: 357
GlyphClass: 2
Flags: W
LayerCount: 2
Fore
SplineSet
-14 -161 m 1,0,-1
 1 -57 l 1,1,-1
 114 -57 l 1,2,-1
 209 619 l 1,3,-1
 96 619 l 1,4,-1
 111 723 l 1,5,-1
 379 723 l 1,6,-1
 254 -161 l 1,7,-1
 -14 -161 l 1,0,-1
EndSplineSet
EndChar

StartChar: asciicircum
Encoding: 94 94 65
Width: 487
GlyphClass: 2
Flags: W
LayerCount: 2
Fore
SplineSet
239 339 m 1,0,-1
 115 117 l 1,1,-1
 -8 117 l 1,2,-1
 207 491 l 2,3,4
 216 508 216 508 232.5 517 c 128,-1,5
 249 526 249 526 267 526 c 0,6,7
 284 526 284 526 297 517.5 c 128,-1,8
 310 509 310 509 314 492 c 2,9,-1
 421 117 l 1,10,-1
 299 117 l 1,11,-1
 239 339 l 1,0,-1
EndSplineSet
EndChar

StartChar: underscore
Encoding: 95 95 66
Width: 578
GlyphClass: 2
Flags: W
LayerCount: 2
Fore
SplineSet
451 -156 m 1,0,-1
 -19 -156 l 1,1,-1
 0 -20 l 1,2,-1
 470 -20 l 1,3,-1
 451 -156 l 1,0,-1
EndSplineSet
EndChar

StartChar: grave
Encoding: 96 96 67
Width: 335
GlyphClass: 2
Flags: W
LayerCount: 2
Fore
SplineSet
355 628 m 1,0,-1
 318 551 l 1,1,-1
 51 617 l 1,2,-1
 109 735 l 1,3,-1
 355 628 l 1,0,-1
EndSplineSet
EndChar

StartChar: a
Encoding: 97 97 68
Width: 620
GlyphClass: 2
Flags: W
LayerCount: 2
Fore
SplineSet
517 0 m 1,0,-1
 321 0 l 1,1,-1
 517 0 l 1,0,-1
321 0 m 1,2,-1
 329 48 l 1,3,4
 291 16 291 16 255 3 c 128,-1,5
 219 -10 219 -10 183 -10 c 0,6,7
 93 -10 93 -10 44 56 c 0,8,9
 -4 120 -4 120 15 260 c 0,10,11
 27 348 27 348 62.5 408 c 128,-1,12
 98 468 98 468 147.5 497.5 c 128,-1,13
 197 527 197 527 253 527 c 0,14,15
 291 527 291 527 326.5 514 c 128,-1,16
 362 501 362 501 388 477 c 1,17,-1
 394 517 l 1,18,-1
 590 517 l 1,19,-1
 516 0 l 1,20,-1
 321 0 l 1,2,-1
325 155 m 128,-1,22
 349 194 349 194 359 264 c 0,23,24
 378 400 378 400 308 400 c 0,25,26
 273 400 273 400 247.5 366 c 128,-1,27
 222 332 222 332 212 264 c 128,-1,28
 202 196 202 196 218 156 c 128,-1,29
 234 116 234 116 268 116 c 0,30,21
 301 116 301 116 325 155 c 128,-1,22
EndSplineSet
Substitution2: "Single Substitution lookup 30 subtable" ordfeminine
Substitution2: "'aalt' Access All Alternates in Latin lookup 0 subtable" ordfeminine
EndChar

StartChar: b
Encoding: 98 98 69
Width: 618
GlyphClass: 2
Flags: W
LayerCount: 2
Fore
SplineSet
232.5 11 m 128,-1,1
 191 32 191 32 177 72 c 1,2,-1
 147 0 l 1,3,-1
 10 0 l 1,4,-1
 114 743 l 1,5,-1
 309 743 l 1,6,-1
 267 439 l 1,7,8
 298 484 298 484 339 505.5 c 128,-1,9
 380 527 380 527 421 527 c 0,10,11
 516 527 516 527 559 456 c 128,-1,12
 602 385 602 385 585 262 c 0,13,14
 567 136 567 136 499 63 c 128,-1,15
 431 -10 431 -10 325 -10 c 0,16,0
 274 -10 274 -10 232.5 11 c 128,-1,1
353.5 158 m 128,-1,18
 378 190 378 190 388 264 c 0,19,20
 398 336 398 336 382 363 c 128,-1,21
 366 390 366 390 332 390 c 0,22,23
 260 390 260 390 242 264 c 0,24,25
 223 126 223 126 292 126 c 0,26,17
 329 126 329 126 353.5 158 c 128,-1,18
EndSplineSet
EndChar

StartChar: c
Encoding: 99 99 70
Width: 535
GlyphClass: 2
Flags: W
AnchorPoint: "Anchor-5" -46 0 basechar 0
AnchorPoint: "Anchor-4" 238 0 basechar 0
AnchorPoint: "Anchor-3" 239 517 basechar 0
AnchorPoint: "Anchor-2" -46 0 basechar 0
LayerCount: 2
Fore
SplineSet
429.5 496.5 m 128,-1,1
 476 466 476 466 495.5 416 c 128,-1,2
 515 366 515 366 509 306 c 1,3,-1
 351 306 l 1,4,5
 351 336 351 336 339 359.5 c 128,-1,6
 327 383 327 383 294 383 c 0,7,8
 256 383 256 383 229 351 c 128,-1,9
 202 319 202 319 193 258 c 0,10,11
 184 196 184 196 203.5 160 c 128,-1,12
 223 124 223 124 261 124 c 0,13,14
 293 124 293 124 311.5 149 c 128,-1,15
 330 174 330 174 338 200 c 1,16,-1
 491 200 l 1,17,18
 483 144 483 144 449.5 96 c 128,-1,19
 416 48 416 48 361 19 c 128,-1,20
 306 -10 306 -10 238 -10 c 0,21,22
 164 -10 164 -10 109 23.5 c 128,-1,23
 54 57 54 57 28.5 117.5 c 128,-1,24
 3 178 3 178 14 256 c 0,25,26
 25 335 25 335 67.5 396.5 c 128,-1,27
 110 458 110 458 174.5 492.5 c 128,-1,28
 239 527 239 527 313 527 c 0,29,0
 383 527 383 527 429.5 496.5 c 128,-1,1
EndSplineSet
EndChar

StartChar: d
Encoding: 100 100 71
Width: 620
GlyphClass: 2
Flags: W
AnchorPoint: "Anchor-5" 530 517 basechar 0
AnchorPoint: "Anchor-4" 251 0 basechar 0
AnchorPoint: "Anchor-3" -46 0 basechar 0
AnchorPoint: "Anchor-2" -46 0 basechar 0
LayerCount: 2
Fore
SplineSet
45 63 m 128,-1,1
 -3 136 -3 136 15 262 c 0,2,3
 32 385 32 385 95 456 c 128,-1,4
 158 527 158 527 253 527 c 0,5,6
 297 527 297 527 333.5 511 c 128,-1,7
 370 495 370 495 386 458 c 1,8,-1
 426 743 l 1,9,-1
 621 743 l 1,10,-1
 517 0 l 1,11,-1
 379 0 l 1,12,-1
 374 68 l 1,13,14
 348 34 348 34 303 12 c 128,-1,15
 258 -10 258 -10 199 -10 c 0,16,0
 93 -10 93 -10 45 63 c 128,-1,1
323.5 154.5 m 128,-1,18
 348 183 348 183 356 239 c 2,19,-1
 362 284 l 2,20,21
 377 390 377 390 300 390 c 0,22,23
 265 390 265 390 239 362.5 c 128,-1,24
 213 335 213 335 203 264 c 0,25,26
 193 191 193 191 210.5 158.5 c 128,-1,27
 228 126 228 126 265 126 c 0,28,17
 299 126 299 126 323.5 154.5 c 128,-1,18
EndSplineSet
EndChar

StartChar: e
Encoding: 101 101 72
Width: 566
GlyphClass: 2
Flags: W
AnchorPoint: "Anchor-5" -46 0 basechar 0
AnchorPoint: "Anchor-4" 245 0 basechar 0
AnchorPoint: "Anchor-3" 242 517 basechar 0
AnchorPoint: "Anchor-2" 370 25 basechar 0
LayerCount: 2
Fore
SplineSet
210 148 m 128,-1,1
 228 126 228 126 262 126 c 0,2,3
 292 126 292 126 313.5 137 c 128,-1,4
 335 148 335 148 350 176 c 1,5,-1
 522 176 l 1,6,7
 506 121 506 121 463.5 78.5 c 128,-1,8
 421 36 421 36 363.5 13 c 128,-1,9
 306 -10 306 -10 248 -10 c 0,10,11
 168 -10 168 -10 111 22.5 c 128,-1,12
 54 55 54 55 28 114.5 c 128,-1,13
 2 174 2 174 13 252 c 0,14,15
 24 327 24 327 64.5 390 c 128,-1,16
 105 453 105 453 170 490 c 128,-1,17
 235 527 235 527 315 527 c 0,18,19
 397 527 397 527 449 492.5 c 128,-1,20
 501 458 501 458 521.5 397.5 c 128,-1,21
 542 337 542 337 531 259 c 2,22,-1
 525 214 l 1,23,-1
 199 214 l 1,24,0
 192 170 192 170 210 148 c 128,-1,1
361 323 m 1,25,26
 365 354 365 354 348.5 375 c 128,-1,27
 332 396 332 396 297 396 c 0,28,29
 267 396 267 396 242 374 c 128,-1,30
 217 352 217 352 213 323 c 1,31,-1
 361 323 l 1,25,26
EndSplineSet
EndChar

StartChar: f
Encoding: 102 102 73
Width: 414
GlyphClass: 2
Flags: W
LayerCount: 2
Fore
SplineSet
396 385 m 1,0,-1
 302 385 l 1,1,-1
 225 -161 l 1,2,-1
 30 -161 l 1,3,-1
 107 385 l 1,4,-1
 24 385 l 1,5,-1
 43 517 l 1,6,-1
 126 517 l 1,7,-1
 135 586 l 2,8,9
 144 650 144 650 191.5 686.5 c 128,-1,10
 239 723 239 723 310 723 c 2,11,-1
 448 723 l 1,12,-1
 431 597 l 1,13,-1
 371 597 l 2,14,15
 347 597 347 597 336 586 c 128,-1,16
 325 575 325 575 321 547 c 2,17,-1
 317 517 l 1,18,-1
 415 517 l 1,19,-1
 396 385 l 1,0,-1
EndSplineSet
EndChar

StartChar: g
Encoding: 103 103 74
Width: 653
GlyphClass: 2
Flags: W
AnchorPoint: "Anchor-5" -46 0 basechar 0
AnchorPoint: "Anchor-4" -46 0 basechar 0
AnchorPoint: "Anchor-3" 273 517 basechar 0
AnchorPoint: "Anchor-2" -46 0 basechar 0
LayerCount: 2
Fore
SplineSet
85 -155.5 m 128,-1,1
 19 -140 19 -140 -11 -113 c 128,-1,2
 -41 -86 -41 -86 -36 -52 c 0,3,4
 -32 -22 -32 -22 -8 -4 c 128,-1,5
 16 14 16 14 33 19.5 c 128,-1,6
 50 25 50 25 78 32 c 1,7,8
 75 33 75 33 57 42.5 c 128,-1,9
 39 52 39 52 26.5 72.5 c 128,-1,10
 14 93 14 93 18 119 c 0,11,12
 23 152 23 152 56.5 177 c 128,-1,13
 90 202 90 202 150 210 c 1,14,15
 100 233 100 233 77 276.5 c 128,-1,16
 54 320 54 320 60 364 c 0,17,18
 67 414 67 414 107.5 450.5 c 128,-1,19
 148 487 148 487 211 506 c 128,-1,20
 274 525 274 525 346 525 c 0,21,22
 396 525 396 525 428.5 515.5 c 128,-1,23
 461 506 461 506 493 488 c 1,24,25
 626 536 626 536 672 555 c 1,26,-1
 652 417 l 1,27,-1
 562 405 l 1,28,29
 565 383 565 383 562 365 c 0,30,31
 556 320 556 320 520.5 279 c 128,-1,32
 485 238 485 238 424.5 212.5 c 128,-1,33
 364 187 364 187 286 187 c 0,34,35
 242 187 242 187 218 190 c 1,36,37
 204 187 204 187 202 181 c 0,38,39
 201 173 201 173 215 170 c 128,-1,40
 229 167 229 167 252 165.5 c 128,-1,41
 275 164 275 164 283 164 c 2,42,-1
 385 158 l 2,43,44
 487 151 487 151 532.5 108.5 c 128,-1,45
 578 66 578 66 569 3 c 0,46,47
 562 -48 562 -48 523 -87 c 128,-1,48
 484 -126 484 -126 414.5 -148.5 c 128,-1,49
 345 -171 345 -171 250 -171 c 0,50,0
 151 -171 151 -171 85 -155.5 c 128,-1,1
354 308 m 128,-1,52
 374 327 374 327 378 357 c 128,-1,53
 382 387 382 387 367.5 408.5 c 128,-1,54
 353 430 353 430 326 430 c 128,-1,55
 299 430 299 430 278.5 408.5 c 128,-1,56
 258 387 258 387 254 357 c 128,-1,57
 250 327 250 327 265 308 c 128,-1,58
 280 289 280 289 307 289 c 128,-1,51
 334 289 334 289 354 308 c 128,-1,52
359.5 -61 m 128,-1,60
 378 -53 378 -53 380 -37 c 128,-1,61
 382 -21 382 -21 366.5 -10.5 c 128,-1,62
 351 0 351 0 321 2 c 2,63,-1
 228 8 l 2,64,65
 192 10 192 10 175 -1.5 c 128,-1,66
 158 -13 158 -13 156 -29 c 0,67,68
 153 -53 153 -53 184.5 -61 c 128,-1,69
 216 -69 216 -69 294 -69 c 0,70,59
 341 -69 341 -69 359.5 -61 c 128,-1,60
EndSplineSet
EndChar

StartChar: h
Encoding: 104 104 75
Width: 625
GlyphClass: 2
Flags: W
AnchorPoint: "Anchor-5" -46 0 basechar 0
AnchorPoint: "Anchor-4" 267 0 basechar 0
AnchorPoint: "Anchor-3" 403 517 basechar 0
AnchorPoint: "Anchor-2" -46 0 basechar 0
LayerCount: 2
Fore
SplineSet
114 743 m 1,0,-1
 306 743 l 1,1,-1
 266 453 l 1,2,3
 291 476 291 476 307 488 c 128,-1,4
 323 500 323 500 349.5 508.5 c 128,-1,5
 376 517 376 517 414 517 c 0,6,7
 463 517 463 517 501.5 495.5 c 128,-1,8
 540 474 540 474 559 435 c 128,-1,9
 578 396 578 396 571 346 c 2,10,-1
 522 0 l 1,11,-1
 327 0 l 1,12,-1
 372 323 l 2,13,14
 375 344 375 344 358 357 c 128,-1,15
 341 370 341 370 318 370 c 128,-1,16
 295 370 295 370 274 356 c 128,-1,17
 253 342 253 342 250 321 c 2,18,-1
 205 0 l 1,19,-1
 10 0 l 1,20,-1
 114 743 l 1,0,-1
EndSplineSet
EndChar

StartChar: i
Encoding: 105 105 76
Width: 308
GlyphClass: 2
Flags: W
LayerCount: 2
Fore
SplineSet
286 579 m 1,0,-1
 91 579 l 1,1,-1
 114 743 l 1,2,-1
 309 743 l 1,3,-1
 286 579 l 1,0,-1
205 0 m 1,4,-1
 10 0 l 1,5,-1
 83 517 l 1,6,-1
 278 517 l 1,7,-1
 205 0 l 1,4,-1
EndSplineSet
Substitution2: "Single Substitution lookup 28 subtable" dotlessi
Substitution2: "'locl' Localized Forms in Latin lookup 10 subtable" i.loclTRK
Substitution2: "'locl' Localized Forms in Latin lookup 9 subtable" i.loclTRK
Substitution2: "'locl' Localized Forms in Latin lookup 8 subtable" i.loclTRK
Substitution2: "'locl' Localized Forms in Latin lookup 7 subtable" i.loclTRK
Substitution2: "'locl' Localized Forms in Latin lookup 6 subtable" i.loclTRK
AlternateSubs2: "'aalt' Access All Alternates in Latin lookup 1 subtable" dotlessi i.loclTRK
EndChar

StartChar: j
Encoding: 106 106 77
Width: 311
GlyphClass: 2
Flags: W
LayerCount: 2
Fore
SplineSet
289 579 m 1,0,-1
 94 579 l 1,1,-1
 117 743 l 1,2,-1
 312 743 l 1,3,-1
 289 579 l 1,0,-1
-19 -166 m 0,4,5
 -42 -166 -42 -166 -56.5 -162 c 128,-1,6
 -71 -158 -71 -158 -77 -154 c 128,-1,7
 -83 -150 -83 -150 -84 -149 c 2,8,-1
 -67 -19 l 1,9,-1
 -36 -14 l 2,10,11
 -8 -8 -8 -8 3.5 1.5 c 128,-1,12
 15 11 15 11 17 28 c 2,13,-1
 86 517 l 1,14,-1
 281 517 l 1,15,-1
 212 28 l 2,16,17
 185 -166 185 -166 -19 -166 c 0,4,5
EndSplineSet
Substitution2: "Single Substitution lookup 28 subtable" uni0237
Substitution2: "'aalt' Access All Alternates in Latin lookup 0 subtable" uni0237
EndChar

StartChar: k
Encoding: 107 107 78
Width: 613
GlyphClass: 2
Flags: W
AnchorPoint: "Anchor-5" -46 0 basechar 0
AnchorPoint: "Anchor-4" 263 0 basechar 0
AnchorPoint: "Anchor-3" -46 0 basechar 0
AnchorPoint: "Anchor-2" -46 0 basechar 0
LayerCount: 2
Fore
SplineSet
362 0 m 1,0,-1
 270 190 l 1,1,-1
 226 146 l 1,2,-1
 205 0 l 1,3,-1
 10 0 l 1,4,-1
 114 743 l 1,5,-1
 309 743 l 1,6,-1
 252 332 l 1,7,-1
 431 517 l 1,8,-1
 623 517 l 1,9,-1
 404 303 l 1,10,-1
 551 0 l 1,11,-1
 362 0 l 1,0,-1
EndSplineSet
EndChar

StartChar: l
Encoding: 108 108 79
Width: 347
GlyphClass: 2
Flags: W
AnchorPoint: "Anchor-5" 350 765 basechar 0
AnchorPoint: "Anchor-4" 93 0 basechar 0
AnchorPoint: "Anchor-3" 107 765 basechar 0
AnchorPoint: "Anchor-2" -46 0 basechar 0
LayerCount: 2
Fore
SplineSet
76.5 13 m 128,-1,1
 37 37 37 37 31 71.5 c 128,-1,2
 25 106 25 106 32 156 c 2,3,-1
 114 743 l 1,4,-1
 305 743 l 1,5,-1
 227 182 l 2,6,7
 224 159 224 159 233 144.5 c 128,-1,8
 242 130 242 130 277 125 c 2,9,-1
 297 123 l 1,10,-1
 281 5 l 1,11,12
 238 -11 238 -11 205 -11 c 0,13,0
 116 -11 116 -11 76.5 13 c 128,-1,1
EndSplineSet
Substitution2: "'ss01' Style Set 1 in Latin lookup 27 subtable" l.ss01
Substitution2: "'salt' Stylistic Alternatives in Latin lookup 26 subtable" l.ss01
Substitution2: "'aalt' Access All Alternates in Latin lookup 0 subtable" l.ss01
EndChar

StartChar: m
Encoding: 109 109 80
Width: 942
GlyphClass: 2
Flags: W
LayerCount: 2
Fore
SplineSet
83 517 m 1,0,-1
 275 517 l 1,1,-1
 266 455 l 2,2,3
 270 458 270 458 300 479 c 128,-1,4
 330 500 330 500 368.5 513.5 c 128,-1,5
 407 527 407 527 444 527 c 0,6,7
 486 527 486 527 522 510 c 128,-1,8
 558 493 558 493 577 455 c 1,9,10
 607 487 607 487 654.5 507 c 128,-1,11
 702 527 702 527 744 527 c 0,12,13
 785 527 785 527 821 507 c 128,-1,14
 857 487 857 487 877 450 c 128,-1,15
 897 413 897 413 890 364 c 2,16,-1
 839 0 l 1,17,-1
 644 0 l 1,18,-1
 692 341 l 2,19,20
 695 362 695 362 678.5 375.5 c 128,-1,21
 662 389 662 389 639 389 c 0,22,23
 600 389 600 389 585 370 c 128,-1,24
 570 351 570 351 565 310 c 2,25,-1
 521 0 l 1,26,-1
 327 0 l 1,27,-1
 375 341 l 2,28,29
 378 362 378 362 361 375.5 c 128,-1,30
 344 389 344 389 321 389 c 128,-1,31
 298 389 298 389 277 375.5 c 128,-1,32
 256 362 256 362 253 341 c 2,33,-1
 205 0 l 1,34,-1
 10 0 l 1,35,-1
 83 517 l 1,0,-1
EndSplineSet
EndChar

StartChar: n
Encoding: 110 110 81
Width: 626
GlyphClass: 2
Flags: W
AnchorPoint: "Anchor-5" -46 0 basechar 0
AnchorPoint: "Anchor-4" 266 0 basechar 0
AnchorPoint: "Anchor-3" 266 517 basechar 0
AnchorPoint: "Anchor-2" -46 0 basechar 0
LayerCount: 2
Fore
SplineSet
83 517 m 1,0,-1
 276 517 l 1,1,-1
 267 455 l 1,2,3
 293 479 293 479 309.5 490.5 c 128,-1,4
 326 502 326 502 351.5 510.5 c 128,-1,5
 377 519 377 519 415 519 c 0,6,7
 460 519 460 519 499 496.5 c 128,-1,8
 538 474 538 474 558.5 435 c 128,-1,9
 579 396 579 396 572 349 c 2,10,-1
 523 0 l 1,11,-1
 328 0 l 1,12,-1
 373 323 l 2,13,14
 376 344 376 344 359.5 357 c 128,-1,15
 343 370 343 370 320 370 c 0,16,17
 296 370 296 370 274.5 357 c 128,-1,18
 253 344 253 344 250 323 c 2,19,-1
 205 0 l 1,20,-1
 10 0 l 1,21,-1
 83 517 l 1,0,-1
EndSplineSet
EndChar

StartChar: o
Encoding: 111 111 82
Width: 573
GlyphClass: 2
Flags: W
AnchorPoint: "Anchor-5" -46 0 basechar 0
AnchorPoint: "Anchor-4" 238 0 basechar 0
AnchorPoint: "Anchor-3" 241 517 basechar 0
AnchorPoint: "Anchor-2" 317 10 basechar 0
LayerCount: 2
Fore
SplineSet
105 23.5 m 128,-1,1
 50 57 50 57 26.5 117.5 c 128,-1,2
 3 178 3 178 14 255 c 0,3,4
 25 335 25 335 67.5 397 c 128,-1,5
 110 459 110 459 174.5 493 c 128,-1,6
 239 527 239 527 315 527 c 0,7,8
 394 527 394 527 448.5 492 c 128,-1,9
 503 457 503 457 526.5 395 c 128,-1,10
 550 333 550 333 539 255 c 0,11,12
 528 178 528 178 487 118 c 128,-1,13
 446 58 446 58 382 24 c 128,-1,14
 318 -10 318 -10 239 -10 c 128,-1,0
 160 -10 160 -10 105 23.5 c 128,-1,1
322 170 m 128,-1,16
 343 209 343 209 351 262 c 0,17,18
 369 388 369 388 296 388 c 0,19,20
 222 388 222 388 204 262 c 0,21,22
 196 208 196 208 206.5 169.5 c 128,-1,23
 217 131 217 131 259 131 c 128,-1,15
 301 131 301 131 322 170 c 128,-1,16
EndSplineSet
Substitution2: "Single Substitution lookup 30 subtable" ordmasculine
Substitution2: "'aalt' Access All Alternates in Latin lookup 0 subtable" ordmasculine
EndChar

StartChar: p
Encoding: 112 112 83
Width: 618
GlyphClass: 2
Flags: W
LayerCount: 2
Fore
SplineSet
83 517 m 1,0,-1
 279 517 l 1,1,-1
 270 457 l 1,2,3
 302 494 302 494 341.5 510.5 c 128,-1,4
 381 527 381 527 422 527 c 0,5,6
 478 527 478 527 519 497.5 c 128,-1,7
 560 468 560 468 578.5 408 c 128,-1,8
 597 348 597 348 585 260 c 0,9,10
 572 166 572 166 532 105.5 c 128,-1,11
 492 45 492 45 438.5 17.5 c 128,-1,12
 385 -10 385 -10 326 -10 c 0,13,14
 239 -10 239 -10 213 58 c 1,15,-1
 182 -161 l 1,16,-1
 -13 -161 l 1,17,-1
 83 517 l 1,0,-1
367 160 m 128,-1,19
 395 194 395 194 405 260 c 0,20,21
 413 320 413 320 394 355 c 128,-1,22
 375 390 375 390 341 390 c 0,23,24
 310 390 310 390 281 361.5 c 128,-1,25
 252 333 252 333 247 299 c 2,26,-1
 236 221 l 2,27,28
 230 181 230 181 251 153.5 c 128,-1,29
 272 126 272 126 304 126 c 0,30,18
 339 126 339 126 367 160 c 128,-1,19
EndSplineSet
EndChar

StartChar: q
Encoding: 113 113 84
Width: 620
GlyphClass: 2
Flags: W
LayerCount: 2
Fore
SplineSet
299 -161 m 1,0,-1
 329 48 l 1,1,2
 291 16 291 16 255 3 c 128,-1,3
 219 -10 219 -10 183 -10 c 0,4,5
 93 -10 93 -10 44 55.5 c 128,-1,6
 -5 121 -5 121 15 260 c 0,7,8
 27 348 27 348 62.5 408 c 128,-1,9
 98 468 98 468 147.5 497.5 c 128,-1,10
 197 527 197 527 253 527 c 0,11,12
 291 527 291 527 326.5 514 c 128,-1,13
 362 501 362 501 388 477 c 1,14,-1
 394 517 l 1,15,-1
 590 517 l 1,16,-1
 494 -161 l 1,17,-1
 299 -161 l 1,0,-1
325 155 m 128,-1,19
 349 194 349 194 359 264 c 0,20,21
 378 400 378 400 308 400 c 0,22,23
 273 400 273 400 247.5 366 c 128,-1,24
 222 332 222 332 212 264 c 128,-1,25
 202 196 202 196 218 156 c 128,-1,26
 234 116 234 116 268 116 c 0,27,18
 301 116 301 116 325 155 c 128,-1,19
EndSplineSet
EndChar

StartChar: r
Encoding: 114 114 85
Width: 449
GlyphClass: 2
Flags: W
AnchorPoint: "Anchor-5" -46 0 basechar 0
AnchorPoint: "Anchor-4" 119 0 basechar 0
AnchorPoint: "Anchor-3" 196 517 basechar 0
AnchorPoint: "Anchor-2" -46 0 basechar 0
LayerCount: 2
Fore
SplineSet
83 517 m 1,0,-1
 271 517 l 1,1,-1
 251 374 l 1,2,3
 281 442 281 442 329.5 484.5 c 128,-1,4
 378 527 378 527 446 527 c 1,5,-1
 421 344 l 1,6,7
 405 346 405 346 378 346 c 0,8,9
 306 346 306 346 276 319 c 128,-1,10
 246 292 246 292 240 248 c 2,11,-1
 205 0 l 1,12,-1
 10 0 l 1,13,-1
 83 517 l 1,0,-1
EndSplineSet
EndChar

StartChar: s
Encoding: 115 115 86
Width: 527
GlyphClass: 2
Flags: W
AnchorPoint: "Anchor-5" -46 0 basechar 0
AnchorPoint: "Anchor-4" 225 0 basechar 0
AnchorPoint: "Anchor-3" 226 517 basechar 0
AnchorPoint: "Anchor-2" -46 0 basechar 0
LayerCount: 2
Fore
SplineSet
65.5 31.5 m 128,-1,1
 1 73 1 73 -1 164 c 1,2,-1
 159 164 l 1,3,4
 165 136 165 136 187 127.5 c 128,-1,5
 209 119 209 119 244 119 c 0,6,7
 278 119 278 119 296.5 127.5 c 128,-1,8
 315 136 315 136 317 149 c 0,9,10
 319 164 319 164 305 171.5 c 128,-1,11
 291 179 291 179 260 185 c 2,12,-1
 185 197 l 1,13,14
 23 227 23 227 41 357 c 0,15,16
 48 405 48 405 81.5 443.5 c 128,-1,17
 115 482 115 482 171 504.5 c 128,-1,18
 227 527 227 527 300 527 c 0,19,20
 370 527 370 527 420 506 c 128,-1,21
 470 485 470 485 492.5 446.5 c 128,-1,22
 515 408 515 408 506 356 c 1,23,-1
 348 356 l 1,24,25
 346 381 346 381 327 392.5 c 128,-1,26
 308 404 308 404 278 404 c 0,27,28
 216 404 216 404 211 371 c 0,29,30
 209 358 209 358 226 349.5 c 128,-1,31
 243 341 243 341 284 334 c 2,32,-1
 348 322 l 1,33,34
 433 301 433 301 460.5 253.5 c 128,-1,35
 488 206 488 206 481 160 c 0,36,37
 470 79 470 79 398 34.5 c 128,-1,38
 326 -10 326 -10 223 -10 c 0,39,0
 130 -10 130 -10 65.5 31.5 c 128,-1,1
EndSplineSet
EndChar

StartChar: t
Encoding: 116 116 87
Width: 451
GlyphClass: 2
Flags: W
AnchorPoint: "Anchor-5" 386 795 basechar 0
AnchorPoint: "Anchor-4" 220 0 basechar 0
AnchorPoint: "Anchor-3" -46 0 basechar 0
AnchorPoint: "Anchor-2" -46 0 basechar 0
LayerCount: 2
Fore
SplineSet
306 385 m 1,0,-1
 274 151 l 2,1,2
 272 135 272 135 279 129 c 128,-1,3
 286 123 286 123 301 123 c 2,4,-1
 382 123 l 1,5,-1
 366 8 l 1,6,7
 332 -8 332 -8 261 -8 c 0,8,9
 147 -8 147 -8 107.5 32 c 128,-1,10
 68 72 68 72 78 142 c 2,11,-1
 112 385 l 1,12,-1
 28 385 l 1,13,-1
 47 517 l 1,14,-1
 138 517 l 1,15,-1
 189 678 l 1,16,-1
 347 678 l 1,17,-1
 325 518 l 1,18,-1
 438 518 l 1,19,-1
 419 385 l 1,20,-1
 306 385 l 1,0,-1
EndSplineSet
EndChar

StartChar: u
Encoding: 117 117 88
Width: 626
GlyphClass: 2
Flags: W
AnchorPoint: "Anchor-5" -46 0 basechar 0
AnchorPoint: "Anchor-4" 267 0 basechar 0
AnchorPoint: "Anchor-3" 266 517 basechar 0
AnchorPoint: "Anchor-2" 492 10 basechar 0
LayerCount: 2
Fore
SplineSet
114 10 m 128,-1,1
 72 30 72 30 48.5 67 c 128,-1,2
 25 104 25 104 32 153 c 2,3,-1
 83 517 l 1,4,-1
 278 517 l 1,5,-1
 230 180 l 2,6,7
 227 157 227 157 241 142 c 128,-1,8
 255 127 255 127 283 127 c 128,-1,9
 311 127 311 127 329.5 142 c 128,-1,10
 348 157 348 157 351 180 c 2,11,-1
 399 517 l 1,12,-1
 596 517 l 1,13,-1
 519 0 l 1,14,-1
 375 0 l 1,15,-1
 371 68 l 1,16,17
 342 29 342 29 293 9.5 c 128,-1,18
 244 -10 244 -10 200 -10 c 128,-1,0
 156 -10 156 -10 114 10 c 128,-1,1
EndSplineSet
EndChar

StartChar: v
Encoding: 118 118 89
Width: 570
GlyphClass: 2
Flags: W
LayerCount: 2
Fore
SplineSet
302 0 m 1,0,-1
 177 0 l 1,1,-1
 39 517 l 1,2,-1
 212 517 l 1,3,-1
 276 253 l 1,4,-1
 410 517 l 1,5,-1
 586 517 l 1,6,-1
 302 0 l 1,0,-1
EndSplineSet
EndChar

StartChar: w
Encoding: 119 119 90
Width: 811
GlyphClass: 2
Flags: W
AnchorPoint: "Anchor-5" -46 0 basechar 0
AnchorPoint: "Anchor-4" -46 0 basechar 0
AnchorPoint: "Anchor-3" 364 517 basechar 0
AnchorPoint: "Anchor-2" -46 0 basechar 0
LayerCount: 2
Fore
SplineSet
572 0 m 1,0,-1
 433 0 l 1,1,-1
 391 251 l 1,2,-1
 274 0 l 1,3,-1
 141 0 l 1,4,-1
 39 517 l 1,5,-1
 208 517 l 1,6,-1
 253 266 l 1,7,-1
 365 517 l 1,8,-1
 500 517 l 1,9,-1
 538 265 l 1,10,-1
 654 517 l 1,11,-1
 827 517 l 1,12,-1
 572 0 l 1,0,-1
EndSplineSet
EndChar

StartChar: x
Encoding: 120 120 91
Width: 623
GlyphClass: 2
Flags: W
LayerCount: 2
Fore
SplineSet
365 0 m 1,0,-1
 285 137 l 1,1,-1
 166 0 l 1,2,-1
 -34 0 l 1,3,-1
 202 270 l 1,4,-1
 57 517 l 1,5,-1
 257 517 l 1,6,-1
 324 405 l 1,7,-1
 422 517 l 1,8,-1
 622 517 l 1,9,-1
 405 270 l 1,10,-1
 565 0 l 1,11,-1
 365 0 l 1,0,-1
EndSplineSet
EndChar

StartChar: y
Encoding: 121 121 92
Width: 603
GlyphClass: 2
Flags: W
AnchorPoint: "Anchor-5" -46 0 basechar 0
AnchorPoint: "Anchor-4" -46 0 basechar 0
AnchorPoint: "Anchor-3" 280 517 basechar 0
AnchorPoint: "Anchor-2" -46 0 basechar 0
LayerCount: 2
Fore
SplineSet
36.5 -160 m 128,-1,1
 12 -155 12 -155 1 -150 c 128,-1,2
 -10 -145 -10 -145 -13 -143 c 2,3,-1
 4 -20 l 1,4,-1
 54 -23 l 2,5,6
 62 -24 62 -24 77 -24 c 0,7,8
 112 -24 112 -24 131.5 -15.5 c 128,-1,9
 151 -7 151 -7 156.5 1 c 128,-1,10
 162 9 162 9 168 20 c 2,11,-1
 171 30 l 1,12,-1
 39 517 l 1,13,-1
 230 517 l 1,14,-1
 288 236 l 1,15,-1
 430 517 l 1,16,-1
 620 517 l 1,17,-1
 349 30 l 2,18,19
 306 -49 306 -49 265.5 -91.5 c 128,-1,20
 225 -134 225 -134 185.5 -149.5 c 128,-1,21
 146 -165 146 -165 97 -165 c 0,22,0
 61 -165 61 -165 36.5 -160 c 128,-1,1
EndSplineSet
EndChar

StartChar: z
Encoding: 122 122 93
Width: 531
GlyphClass: 2
Flags: W
AnchorPoint: "Anchor-5" -46 0 basechar 0
AnchorPoint: "Anchor-4" -46 0 basechar 0
AnchorPoint: "Anchor-3" 228 517 basechar 0
AnchorPoint: "Anchor-2" -46 0 basechar 0
LayerCount: 2
Fore
SplineSet
-12 92 m 1,0,-1
 272 398 l 1,1,-1
 53 398 l 1,2,-1
 70 517 l 1,3,-1
 536 517 l 1,4,-1
 523 428 l 1,5,-1
 236 121 l 1,6,-1
 481 121 l 1,7,-1
 464 0 l 1,8,-1
 -25 0 l 1,9,-1
 -12 92 l 1,0,-1
EndSplineSet
EndChar

StartChar: braceleft
Encoding: 123 123 94
Width: 425
GlyphClass: 2
Flags: W
LayerCount: 2
Fore
SplineSet
197 664 m 128,-1,1
 228 694 228 694 270.5 708.5 c 128,-1,2
 313 723 313 723 354 723 c 2,3,-1
 447 723 l 1,4,-1
 432 619 l 1,5,-1
 381 619 l 2,6,7
 352 619 352 619 337.5 612 c 128,-1,8
 323 605 323 605 318.5 594.5 c 128,-1,9
 314 584 314 584 312 567 c 2,10,-1
 286 382 l 2,11,12
 278 338 278 338 241.5 316.5 c 128,-1,13
 205 295 205 295 162 290 c 0,14,15
 156 289 156 289 155 287 c 128,-1,16
 154 285 154 285 161 284 c 0,17,18
 268 274 268 274 258 182 c 2,19,-1
 231 -5 l 2,20,21
 227 -33 227 -33 239 -45 c 128,-1,22
 251 -57 251 -57 286 -57 c 2,23,-1
 337 -57 l 1,24,-1
 322 -161 l 1,25,-1
 232 -161 l 2,26,27
 189 -161 189 -161 150 -146.5 c 128,-1,28
 111 -132 111 -132 89 -102 c 128,-1,29
 67 -72 67 -72 73 -28 c 2,30,-1
 100 164 l 2,31,32
 111 242 111 242 -2 242 c 1,33,-1
 11 332 l 1,34,35
 72 332 72 332 100.5 351 c 128,-1,36
 129 370 129 370 135 414 c 2,37,-1
 160 591 l 2,38,0
 166 634 166 634 197 664 c 128,-1,1
EndSplineSet
EndChar

StartChar: bar
Encoding: 124 124 95
Width: 269
GlyphClass: 2
Flags: W
LayerCount: 2
Fore
SplineSet
-4 -161 m 1,0,-1
 135 826 l 1,1,-1
 273 826 l 1,2,-1
 134 -161 l 1,3,-1
 -4 -161 l 1,0,-1
EndSplineSet
EndChar

StartChar: braceright
Encoding: 125 125 96
Width: 425
GlyphClass: 2
Flags: W
LayerCount: 2
Fore
SplineSet
248 -102 m 128,-1,1
 217 -132 217 -132 174.5 -146.5 c 128,-1,2
 132 -161 132 -161 91 -161 c 2,3,-1
 -2 -161 l 1,4,-1
 13 -57 l 1,5,-1
 64 -57 l 2,6,7
 93 -57 93 -57 107.5 -50 c 128,-1,8
 122 -43 122 -43 126.5 -32.5 c 128,-1,9
 131 -22 131 -22 133 -5 c 2,10,-1
 159 180 l 2,11,12
 167 224 167 224 203.5 245.5 c 128,-1,13
 240 267 240 267 283 272 c 0,14,15
 289 273 289 273 290 275 c 128,-1,16
 291 277 291 277 284 278 c 0,17,18
 177 288 177 288 187 380 c 2,19,-1
 214 567 l 2,20,21
 218 595 218 595 206 607 c 128,-1,22
 194 619 194 619 159 619 c 2,23,-1
 108 619 l 1,24,-1
 123 723 l 1,25,-1
 213 723 l 2,26,27
 256 723 256 723 295 708.5 c 128,-1,28
 334 694 334 694 356 664 c 128,-1,29
 378 634 378 634 372 590 c 2,30,-1
 345 398 l 2,31,32
 334 320 334 320 447 320 c 1,33,-1
 434 230 l 1,34,35
 373 230 373 230 344.5 211 c 128,-1,36
 316 192 316 192 310 148 c 2,37,-1
 285 -29 l 2,38,0
 279 -72 279 -72 248 -102 c 128,-1,1
EndSplineSet
EndChar

StartChar: asciitilde
Encoding: 126 126 97
Width: 645
GlyphClass: 2
Flags: W
LayerCount: 2
Fore
SplineSet
504.5 297.5 m 128,-1,1
 456 269 456 269 411 269 c 0,2,3
 382 269 382 269 359.5 279 c 128,-1,4
 337 289 337 289 309 307 c 0,5,6
 284 323 284 323 267 331 c 128,-1,7
 250 339 250 339 229 339 c 0,8,9
 195 339 195 339 167 318.5 c 128,-1,10
 139 298 139 298 96 255 c 1,11,-1
 54 347 l 1,12,13
 114 403 114 403 157 429.5 c 128,-1,14
 200 456 200 456 248 456 c 0,15,16
 279 456 279 456 301.5 446 c 128,-1,17
 324 436 324 436 352 417 c 0,18,19
 374 402 374 402 389 394.5 c 128,-1,20
 404 387 404 387 423 387 c 0,21,22
 456 387 456 387 488.5 410 c 128,-1,23
 521 433 521 433 547 471 c 1,24,-1
 591 381 l 1,25,0
 553 326 553 326 504.5 297.5 c 128,-1,1
EndSplineSet
EndChar

StartChar: exclamdown
Encoding: 161 161 99
Width: 299
GlyphClass: 2
Flags: W
LayerCount: 2
Fore
SplineSet
43 325 m 1,0,-1
 70 517 l 1,1,-1
 275 517 l 1,2,-1
 248 325 l 1,3,-1
 43 325 l 1,0,-1
-36 -161 m 1,4,-1
 78 257 l 1,5,-1
 196 257 l 1,6,-1
 190 -161 l 1,7,-1
 -36 -161 l 1,4,-1
EndSplineSet
EndChar

StartChar: cent
Encoding: 162 162 100
Width: 567
GlyphClass: 2
Flags: W
AnchorPoint: "Anchor-1" 250 628 basechar 0
AnchorPoint: "Anchor-0" 249 111 basechar 0
LayerCount: 2
Fore
SplineSet
338.5 260 m 128,-1,1
 357 285 357 285 365 311 c 1,2,-1
 518 311 l 1,3,4
 508 242 508 242 459 186.5 c 128,-1,5
 410 131 410 131 336 110 c 1,6,-1
 321 0 l 1,7,-1
 199 0 l 1,8,-1
 214 105 l 1,9,10
 155 116 155 116 112 152 c 128,-1,11
 69 188 69 188 50 243.5 c 128,-1,12
 31 299 31 299 41 367 c 0,13,14
 51 436 51 436 85 492.5 c 128,-1,15
 119 549 119 549 172.5 586 c 128,-1,16
 226 623 226 623 288 634 c 1,17,-1
 301 723 l 1,18,-1
 423 723 l 1,19,-1
 409 629 l 1,20,21
 478 609 478 609 511 550 c 128,-1,22
 544 491 544 491 536 417 c 1,23,-1
 378 417 l 1,24,25
 378 447 378 447 365.5 470.5 c 128,-1,26
 353 494 353 494 320 494 c 0,27,28
 282 494 282 494 255 462 c 128,-1,29
 228 430 228 430 220 369 c 0,30,31
 211 307 211 307 230.5 271 c 128,-1,32
 250 235 250 235 288 235 c 0,33,0
 320 235 320 235 338.5 260 c 128,-1,1
EndSplineSet
EndChar

StartChar: sterling
Encoding: 163 163 101
Width: 671
GlyphClass: 2
Flags: W
LayerCount: 2
Fore
SplineSet
-5 159 m 1,0,-1
 26 159 l 2,1,2
 107 159 107 159 117 231 c 0,3,4
 121 257 121 257 122 290.5 c 128,-1,5
 123 324 123 324 123 334 c 1,6,-1
 20 334 l 1,7,-1
 34 435 l 1,8,-1
 115 435 l 1,9,-1
 124 532 l 2,10,11
 128 596 128 596 167.5 641.5 c 128,-1,12
 207 687 207 687 267.5 710 c 128,-1,13
 328 733 328 733 396 733 c 0,14,15
 487 733 487 733 548 691 c 128,-1,16
 609 649 609 649 633 567 c 1,17,-1
 458 519 l 1,18,19
 447 556 447 556 436.5 569.5 c 128,-1,20
 426 583 426 583 406 583 c 0,21,22
 383 583 383 583 368 567 c 128,-1,23
 353 551 353 551 350 523 c 0,24,25
 347 501 347 501 347 435 c 1,26,-1
 480 435 l 1,27,-1
 466 334 l 1,28,-1
 347 334 l 1,29,30
 343 299 343 299 338 278.5 c 128,-1,31
 333 258 333 258 323 237 c 0,32,33
 313 214 313 214 299.5 199.5 c 128,-1,34
 286 185 286 185 254 160 c 1,35,-1
 353 160 l 2,36,37
 397 160 397 160 419 176.5 c 128,-1,38
 441 193 441 193 463 238 c 1,39,-1
 622 206 l 1,40,41
 583 103 583 103 515 51.5 c 128,-1,42
 447 0 447 0 347 0 c 2,43,-1
 -27 0 l 1,44,-1
 -5 159 l 1,0,-1
EndSplineSet
EndChar

StartChar: currency
Encoding: 164 164 102
Width: 608
GlyphClass: 2
Flags: W
LayerCount: 2
Fore
SplineSet
157 155 m 0,0,1
 154 157 154 157 149 157 c 128,-1,2
 144 157 144 157 140 153 c 2,3,-1
 66 89 l 1,4,-1
 0 167 l 1,5,-1
 82 238 l 1,6,7
 67 269 67 269 63 298 c 128,-1,8
 59 327 59 327 64 363 c 0,9,10
 73 429 73 429 110 480 c 0,11,12
 114 486 114 486 115 488 c 0,13,14
 116 492 116 492 111 497 c 2,15,-1
 56 561 l 1,16,-1
 143 640 l 1,17,-1
 206 567 l 1,18,19
 274 605 274 605 336 605 c 0,20,21
 402 605 402 605 456 571 c 0,22,23
 463 568 463 568 467 572 c 2,24,-1
 533 630 l 1,25,-1
 598 552 l 1,26,-1
 526 490 l 1,27,28
 555 430 555 430 545 364 c 0,29,30
 535 292 535 292 493 241 c 0,31,32
 491 238 491 238 492 236 c 2,33,-1
 545 176 l 1,34,-1
 458 98 l 1,35,-1
 405 161 l 1,36,37
 338 123 338 123 273 123 c 128,-1,38
 208 123 208 123 157 155 c 0,0,1
377.5 279.5 m 128,-1,40
 417 315 417 315 424 364 c 0,41,42
 428 395 428 395 416.5 423 c 128,-1,43
 405 451 405 451 380 467.5 c 128,-1,44
 355 484 355 484 321 484 c 0,45,46
 288 484 288 484 258 467.5 c 128,-1,47
 228 451 228 451 208.5 423 c 128,-1,48
 189 395 189 395 184 364 c 0,49,50
 180 332 180 332 192 304.5 c 128,-1,51
 204 277 204 277 229 260.5 c 128,-1,52
 254 244 254 244 287 244 c 0,53,39
 338 244 338 244 377.5 279.5 c 128,-1,40
EndSplineSet
EndChar

StartChar: yen
Encoding: 165 165 103
Width: 695
GlyphClass: 2
Flags: W
LayerCount: 2
Fore
SplineSet
489 357 m 1,0,-1
 611 357 l 1,1,-1
 597 258 l 1,2,-1
 451 258 l 1,3,-1
 442 191 l 1,4,-1
 588 191 l 1,5,-1
 574 93 l 1,6,-1
 428 93 l 1,7,-1
 415 0 l 1,8,-1
 194 0 l 1,9,-1
 207 93 l 1,10,-1
 61 93 l 1,11,-1
 75 191 l 1,12,-1
 221 191 l 1,13,-1
 230 258 l 1,14,-1
 84 258 l 1,15,-1
 98 357 l 1,16,-1
 210 357 l 1,17,-1
 37 723 l 1,18,-1
 289 723 l 1,19,-1
 393 471 l 1,20,-1
 566 723 l 1,21,-1
 769 723 l 1,22,-1
 489 357 l 1,0,-1
EndSplineSet
EndChar

StartChar: brokenbar
Encoding: 166 166 104
Width: 269
GlyphClass: 2
Flags: W
LayerCount: 2
Fore
SplineSet
77 412 m 1,0,-1
 135 826 l 1,1,-1
 273 826 l 1,2,-1
 215 412 l 1,3,-1
 77 412 l 1,0,-1
-4 -161 m 1,4,-1
 55 253 l 1,5,-1
 193 253 l 1,6,-1
 134 -161 l 1,7,-1
 -4 -161 l 1,4,-1
EndSplineSet
EndChar

StartChar: section
Encoding: 167 167 105
Width: 527
GlyphClass: 2
Flags: W
LayerCount: 2
Fore
SplineSet
51 -48.5 m 128,-1,1
 -8 -14 -8 -14 -24 34 c 1,2,-1
 100 90 l 1,3,4
 121 61 121 61 144.5 45 c 128,-1,5
 168 29 168 29 213 29 c 0,6,7
 246 29 246 29 266.5 38.5 c 128,-1,8
 287 48 287 48 290 68 c 0,9,10
 292 83 292 83 280 95 c 128,-1,11
 268 107 268 107 235 120 c 2,12,-1
 170 145 l 2,13,14
 83 179 83 179 49.5 217 c 128,-1,15
 16 255 16 255 25 317 c 0,16,17
 31 362 31 362 56 395.5 c 128,-1,18
 81 429 81 429 122 449 c 1,19,20
 89 473 89 473 76.5 501.5 c 128,-1,21
 64 530 64 530 70 566 c 0,22,23
 77 613 77 613 108 651 c 128,-1,24
 139 689 139 689 190.5 711 c 128,-1,25
 242 733 242 733 308 733 c 0,26,27
 388 733 388 733 444 698.5 c 128,-1,28
 500 664 500 664 517 616 c 1,29,-1
 393 561 l 1,30,31
 369 590 369 590 348.5 605.5 c 128,-1,32
 328 621 328 621 296 621 c 0,33,34
 274 621 274 621 259.5 611.5 c 128,-1,35
 245 602 245 602 242 585 c 0,36,37
 239 564 239 564 275 552 c 2,38,-1
 344 525 l 2,39,40
 431 491 431 491 464.5 453 c 128,-1,41
 498 415 498 415 490 353 c 0,42,43
 478 268 478 268 397 221 c 1,44,45
 438 196 438 196 453 166.5 c 128,-1,46
 468 137 468 137 462 95 c 0,47,48
 451 14 451 14 383.5 -34.5 c 128,-1,49
 316 -83 316 -83 202 -83 c 0,50,0
 110 -83 110 -83 51 -48.5 c 128,-1,1
315 284.5 m 128,-1,52
 329 296 329 296 331 316 c 0,53,54
 332 323 332 323 332 327 c 0,55,56
 330 355 330 355 271 378 c 2,57,-1
 237 392 l 1,58,59
 187 388 187 388 182 346 c 0,60,61
 180 329 180 329 191.5 318.5 c 128,-1,62
 203 308 203 308 243 292 c 2,63,-1
 282 276 l 1,64,51
 301 273 301 273 315 284.5 c 128,-1,52
EndSplineSet
EndChar

StartChar: dieresis
Encoding: 168 168 106
Width: 444
GlyphClass: 2
Flags: W
LayerCount: 2
Fore
SplineSet
219 584 m 1,0,-1
 53 584 l 1,1,-1
 73 723 l 1,2,-1
 239 723 l 1,3,-1
 219 584 l 1,0,-1
453 584 m 1,4,-1
 287 584 l 1,5,-1
 307 723 l 1,6,-1
 473 723 l 1,7,-1
 453 584 l 1,4,-1
EndSplineSet
EndChar

StartChar: copyright
Encoding: 169 169 107
Width: 834
GlyphClass: 2
Flags: W
LayerCount: 2
Fore
SplineSet
185 40 m 128,-1,1
 107 90 107 90 69 175 c 128,-1,2
 31 260 31 260 45 362 c 0,3,4
 59 462 59 462 121 547.5 c 128,-1,5
 183 633 183 633 275 683 c 128,-1,6
 367 733 367 733 468 733 c 128,-1,7
 569 733 569 733 647.5 683 c 128,-1,8
 726 633 726 633 764 547.5 c 128,-1,9
 802 462 802 462 788 362 c 0,10,11
 774 260 774 260 712 175 c 128,-1,12
 650 90 650 90 557.5 40 c 128,-1,13
 465 -10 465 -10 364 -10 c 128,-1,0
 263 -10 263 -10 185 40 c 128,-1,1
521 122.5 m 128,-1,15
 585 156 585 156 626 217.5 c 128,-1,16
 667 279 667 279 679 362 c 0,17,18
 691 444 691 444 667 506 c 128,-1,19
 643 568 643 568 588 602 c 128,-1,20
 533 636 533 636 454 636 c 0,21,22
 374 636 374 636 310.5 602 c 128,-1,23
 247 568 247 568 206 506 c 128,-1,24
 165 444 165 444 154 362 c 0,25,26
 142 279 142 279 165.5 217.5 c 128,-1,27
 189 156 189 156 243.5 122.5 c 128,-1,28
 298 89 298 89 378 89 c 0,29,14
 457 89 457 89 521 122.5 c 128,-1,15
536 547 m 128,-1,31
 572 525 572 525 590.5 491.5 c 128,-1,32
 609 458 609 458 610 423 c 1,33,-1
 478 416 l 1,34,35
 479 475 479 475 439 475 c 0,36,37
 380 475 380 475 364 364 c 0,38,39
 355 303 355 303 368.5 277 c 128,-1,40
 382 251 382 251 416 251 c 0,41,42
 445 251 445 251 463 266.5 c 128,-1,43
 481 282 481 282 502 315 c 1,44,-1
 592 297 l 1,45,46
 584 271 584 271 558.5 238 c 128,-1,47
 533 205 533 205 490 181 c 128,-1,48
 447 157 447 157 390 157 c 0,49,50
 331 157 331 157 287.5 183 c 128,-1,51
 244 209 244 209 224 255.5 c 128,-1,52
 204 302 204 302 213 362 c 0,53,54
 222 423 222 423 255 470 c 128,-1,55
 288 517 288 517 338.5 543 c 128,-1,56
 389 569 389 569 448 569 c 0,57,30
 500 569 500 569 536 547 c 128,-1,31
EndSplineSet
EndChar

StartChar: ordfeminine
Encoding: 170 170 108
Width: 409
GlyphClass: 2
Flags: W
LayerCount: 2
Fore
SplineSet
66 423.5 m 128,-1,1
 42 449 42 449 48 491 c 0,2,3
 55 541 55 541 108 573 c 128,-1,4
 161 605 161 605 241 605 c 2,5,-1
 265 605 l 1,6,-1
 268 625 l 2,7,8
 271 645 271 645 260.5 652.5 c 128,-1,9
 250 660 250 660 237 660 c 0,10,11
 199 660 199 660 180 623 c 1,12,-1
 77 643 l 1,13,14
 105 690 105 690 142.5 711.5 c 128,-1,15
 180 733 180 733 250 733 c 0,16,17
 332 732 332 732 361.5 707.5 c 128,-1,18
 391 683 391 683 384 633 c 2,19,-1
 365 501 l 2,20,21
 357 443 357 443 359 428 c 2,22,-1
 363 404 l 1,23,-1
 244 404 l 1,24,-1
 241 432 l 1,25,26
 208 413 208 413 187.5 405.5 c 128,-1,27
 167 398 167 398 141 398 c 0,28,0
 90 398 90 398 66 423.5 c 128,-1,1
238 482 m 0,29,30
 244 486 244 486 246.5 490 c 128,-1,31
 249 494 249 494 250 501 c 2,32,-1
 257 545 l 1,33,-1
 237 545 l 2,34,35
 210 545 210 545 190 532.5 c 128,-1,36
 170 520 170 520 167 499 c 0,37,38
 165 486 165 486 173.5 478 c 128,-1,39
 182 470 182 470 200 470 c 0,40,41
 222 470 222 470 238 482 c 0,29,30
EndSplineSet
EndChar

StartChar: guillemotleft
Encoding: 171 171 109
Width: 530
GlyphClass: 2
Flags: W
LayerCount: 2
Fore
SplineSet
223 59 m 1,0,-1
 123 59 l 1,1,-1
 43 251 l 1,2,-1
 177 451 l 1,3,-1
 278 451 l 1,4,-1
 186 251 l 1,5,-1
 223 59 l 1,0,-1
426 59 m 1,6,-1
 326 59 l 1,7,-1
 245 251 l 1,8,-1
 380 451 l 1,9,-1
 481 451 l 1,10,-1
 389 251 l 1,11,-1
 426 59 l 1,6,-1
EndSplineSet
EndChar

StartChar: logicalnot
Encoding: 172 172 110
Width: 609
GlyphClass: 2
Flags: W
LayerCount: 2
Fore
SplineSet
570 433 m 1,0,-1
 528 137 l 1,1,-1
 372 137 l 1,2,-1
 394 295 l 1,3,-1
 41 295 l 1,4,-1
 61 433 l 1,5,-1
 570 433 l 1,0,-1
EndSplineSet
EndChar

StartChar: uni00AD
Encoding: 173 173 111
Width: 400
GlyphClass: 2
Flags: W
LayerCount: 2
Fore
SplineSet
340 188 m 1,0,-1
 50 188 l 1,1,-1
 70 325 l 1,2,-1
 360 325 l 1,3,-1
 340 188 l 1,0,-1
EndSplineSet
EndChar

StartChar: registered
Encoding: 174 174 112
Width: 556
GlyphClass: 2
Flags: W
LayerCount: 2
Fore
SplineSet
151.5 299 m 128,-1,1
 102 330 102 330 78.5 383 c 128,-1,2
 55 436 55 436 64 500 c 128,-1,3
 73 564 73 564 111.5 617 c 128,-1,4
 150 670 150 670 208 701.5 c 128,-1,5
 266 733 266 733 330 733 c 0,6,7
 393 733 393 733 442 701.5 c 128,-1,8
 491 670 491 670 514.5 616.5 c 128,-1,9
 538 563 538 563 529 500 c 128,-1,10
 520 437 520 437 481.5 383.5 c 128,-1,11
 443 330 443 330 385.5 299 c 128,-1,12
 328 268 328 268 265 268 c 0,13,0
 201 268 201 268 151.5 299 c 128,-1,1
394 381.5 m 128,-1,15
 443 426 443 426 453 500 c 128,-1,16
 463 574 463 574 427 619 c 128,-1,17
 391 664 391 664 320 664 c 0,18,19
 248 664 248 664 199.5 619.5 c 128,-1,20
 151 575 151 575 140 500 c 128,-1,21
 129 425 129 425 165.5 381 c 128,-1,22
 202 337 202 337 274 337 c 0,23,14
 345 337 345 337 394 381.5 c 128,-1,15
215 614 m 1,24,-1
 327 614 l 2,25,26
 372 614 372 614 395 597.5 c 128,-1,27
 418 581 418 581 413 550 c 0,28,29
 410 529 410 529 395.5 513 c 128,-1,30
 381 497 381 497 360 488 c 1,31,-1
 391 384 l 1,32,-1
 314 384 l 1,33,-1
 295 480 l 1,34,-1
 266 480 l 1,35,-1
 253 384 l 1,36,-1
 183 384 l 1,37,-1
 215 614 l 1,24,-1
314 526 m 2,38,39
 324 526 324 526 331.5 532 c 128,-1,40
 339 538 339 538 340 547 c 0,41,42
 341 557 341 557 334.5 562.5 c 128,-1,43
 328 568 328 568 317 568 c 2,44,-1
 279 568 l 1,45,-1
 273 526 l 1,46,-1
 314 526 l 2,38,39
EndSplineSet
EndChar

StartChar: macron
Encoding: 175 175 113
Width: 444
GlyphClass: 2
Flags: W
LayerCount: 2
Fore
SplineSet
456 604 m 1,0,-1
 56 604 l 1,1,-1
 73 723 l 1,2,-1
 473 723 l 1,3,-1
 456 604 l 1,0,-1
EndSplineSet
EndChar

StartChar: degree
Encoding: 176 176 114
Width: 477
GlyphClass: 2
Flags: W
LayerCount: 2
Fore
SplineSet
420.5 566.5 m 128,-1,1
 392 526 392 526 348.5 503.5 c 128,-1,2
 305 481 305 481 255 481 c 128,-1,3
 205 481 205 481 167.5 503.5 c 128,-1,4
 130 526 130 526 112.5 566.5 c 128,-1,5
 95 607 95 607 102 658 c 128,-1,6
 109 709 109 709 138 749.5 c 128,-1,7
 167 790 167 790 210.5 813 c 128,-1,8
 254 836 254 836 304 836 c 128,-1,9
 354 836 354 836 391.5 813 c 128,-1,10
 429 790 429 790 446.5 749.5 c 128,-1,11
 464 709 464 709 456 658 c 0,12,0
 449 607 449 607 420.5 566.5 c 128,-1,1
335.5 709 m 128,-1,14
 319 729 319 729 287 729 c 0,15,16
 256 729 256 729 234.5 709.5 c 128,-1,17
 213 690 213 690 209 659 c 0,18,19
 204 625 204 625 220 604.5 c 128,-1,20
 236 584 236 584 268 584 c 0,21,22
 299 584 299 584 321 604 c 128,-1,23
 343 624 343 624 347 657 c 0,24,13
 352 689 352 689 335.5 709 c 128,-1,14
EndSplineSet
EndChar

StartChar: plusminus
Encoding: 177 177 115
Width: 609
GlyphClass: 2
Flags: W
LayerCount: 2
Fore
SplineSet
583 526 m 1,0,-1
 564 388 l 1,1,-1
 379 388 l 1,2,-1
 353 203 l 1,3,-1
 215 203 l 1,4,-1
 241 388 l 1,5,-1
 55 388 l 1,6,-1
 74 526 l 1,7,-1
 260 526 l 1,8,-1
 286 712 l 1,9,-1
 424 712 l 1,10,-1
 398 526 l 1,11,-1
 583 526 l 1,0,-1
21 152 m 1,12,-1
 530 152 l 1,13,-1
 511 15 l 1,14,-1
 2 15 l 1,15,-1
 21 152 l 1,12,-1
EndSplineSet
EndChar

StartChar: uni00B2
Encoding: 178 178 116
Width: 392
GlyphClass: 2
Flags: W
LayerCount: 2
Fore
SplineSet
29 470 m 1,0,-1
 185 585 l 2,1,2
 234 621 234 621 256.5 640 c 128,-1,3
 279 659 279 659 287 671.5 c 128,-1,4
 295 684 295 684 297 699 c 0,5,6
 300 720 300 720 287.5 733 c 128,-1,7
 275 746 275 746 251 746 c 0,8,9
 224 746 224 746 201.5 730 c 128,-1,10
 179 714 179 714 168 678 c 1,11,-1
 53 678 l 1,12,13
 64 753 64 753 118.5 799 c 128,-1,14
 173 845 173 845 267 845 c 0,15,16
 350 845 350 845 393 805.5 c 128,-1,17
 436 766 436 766 427 700 c 0,18,19
 422 666 422 666 402.5 641 c 128,-1,20
 383 616 383 616 334 576 c 2,21,-1
 221 485 l 1,22,-1
 400 485 l 1,23,-1
 386 384 l 1,24,-1
 17 384 l 1,25,-1
 29 470 l 1,0,-1
EndSplineSet
EndChar

StartChar: uni00B3
Encoding: 179 179 117
Width: 407
GlyphClass: 2
Flags: W
LayerCount: 2
Fore
SplineSet
139 809.5 m 128,-1,1
 203 845 203 845 294 845 c 0,2,3
 346 845 346 845 386.5 830 c 128,-1,4
 427 815 427 815 448 787.5 c 128,-1,5
 469 760 469 760 464 724 c 0,6,7
 454 656 454 656 369 628 c 1,8,9
 406 618 406 618 430.5 590.5 c 128,-1,10
 455 563 455 563 449 519 c 0,11,12
 443 474 443 474 408 442 c 128,-1,13
 373 410 373 410 324.5 394 c 128,-1,14
 276 378 276 378 229 378 c 0,15,16
 128 378 128 378 78.5 412.5 c 128,-1,17
 29 447 29 447 41 534 c 1,18,-1
 157 534 l 1,19,20
 157 501 157 501 180 487 c 128,-1,21
 203 473 203 473 232 473 c 0,22,23
 265 473 265 473 288 486.5 c 128,-1,24
 311 500 311 500 313 519 c 0,25,26
 316 539 316 539 300.5 553 c 128,-1,27
 285 567 285 567 257 568 c 2,28,-1
 195 569 l 1,29,-1
 208 663 l 1,30,-1
 263 666 l 2,31,32
 292 667 292 667 310.5 680.5 c 128,-1,33
 329 694 329 694 331 713 c 0,34,35
 333 730 333 730 316 741.5 c 128,-1,36
 299 753 299 753 277 753 c 0,37,38
 240 753 240 753 214 741 c 128,-1,39
 188 729 188 729 178 692 c 1,40,-1
 63 692 l 1,41,0
 75 774 75 774 139 809.5 c 128,-1,1
EndSplineSet
EndChar

StartChar: acute
Encoding: 180 180 118
Width: 335
GlyphClass: 2
Flags: W
LayerCount: 2
Fore
SplineSet
357 617 m 1,0,-1
 70 551 l 1,1,-1
 55 628 l 1,2,-1
 332 735 l 1,3,-1
 357 617 l 1,0,-1
EndSplineSet
EndChar

StartChar: paragraph
Encoding: 182 182 119
Width: 641
GlyphClass: 2
Flags: W
LayerCount: 2
Fore
SplineSet
561 617 m 1,0,-1
 462 -83 l 1,1,-1
 347 -83 l 1,2,-1
 446 617 l 1,3,-1
 381 617 l 1,4,-1
 282 -83 l 1,5,-1
 167 -83 l 1,6,-1
 221 300 l 1,7,8
 136 310 136 310 86 362.5 c 128,-1,9
 36 415 36 415 50 512 c 0,10,11
 59 573 59 573 93.5 620.5 c 128,-1,12
 128 668 128 668 185 695.5 c 128,-1,13
 242 723 242 723 316 723 c 2,14,-1
 640 723 l 1,15,-1
 625 617 l 1,16,-1
 561 617 l 1,0,-1
EndSplineSet
EndChar

StartChar: periodcentered
Encoding: 183 183 120
Width: 302
GlyphClass: 2
Flags: W
LayerCount: 2
Fore
SplineSet
227 277 m 1,0,-1
 46 277 l 1,1,-1
 70 451 l 1,2,-1
 251 451 l 1,3,-1
 227 277 l 1,0,-1
EndSplineSet
EndChar

StartChar: cedilla
Encoding: 184 184 121
Width: 303
GlyphClass: 2
Flags: W
LayerCount: 2
Fore
SplineSet
165.5 -195.5 m 128,-1,1
 124 -219 124 -219 70 -219 c 0,2,3
 -14 -219 -14 -219 -59 -190 c 1,4,-1
 -26 -131 l 1,5,6
 18 -157 18 -157 55 -157 c 0,7,8
 75 -157 75 -157 89 -150 c 128,-1,9
 103 -143 103 -143 105 -131 c 0,10,11
 108 -112 108 -112 88.5 -102.5 c 128,-1,12
 69 -93 69 -93 21 -93 c 0,13,14
 13 -93 13 -93 10.5 -91 c 128,-1,15
 8 -89 8 -89 13 -81 c 2,16,-1
 62 5 l 1,17,-1
 141 5 l 1,18,-1
 112 -52 l 1,19,20
 168 -52 168 -52 192.5 -77 c 128,-1,21
 217 -102 217 -102 212 -134 c 0,22,0
 207 -172 207 -172 165.5 -195.5 c 128,-1,1
EndSplineSet
EndChar

StartChar: uni00B9
Encoding: 185 185 122
Width: 309
GlyphClass: 2
Flags: W
LayerCount: 2
Fore
SplineSet
118 701 m 1,0,-1
 41 684 l 1,1,-1
 52 766 l 1,2,-1
 200 835 l 1,3,-1
 260 835 l 1,4,-1
 196 380 l 1,5,-1
 73 380 l 1,6,-1
 118 701 l 1,0,-1
EndSplineSet
EndChar

StartChar: ordmasculine
Encoding: 186 186 123
Width: 389
GlyphClass: 2
Flags: W
LayerCount: 2
Fore
SplineSet
337 711.5 m 128,-1,1
 373 690 373 690 389 651.5 c 128,-1,2
 405 613 405 613 398 564 c 0,3,4
 391 516 391 516 364 478 c 128,-1,5
 337 440 337 440 295 419 c 128,-1,6
 253 398 253 398 204 398 c 0,7,8
 129 398 129 398 88 444.5 c 128,-1,9
 47 491 47 491 57 564 c 0,10,11
 64 613 64 613 92 651.5 c 128,-1,12
 120 690 120 690 161.5 711.5 c 128,-1,13
 203 733 203 733 251 733 c 0,14,0
 301 733 301 733 337 711.5 c 128,-1,1
201.5 635.5 m 128,-1,16
 187 614 187 614 181 566 c 0,17,18
 174 519 174 519 182.5 497.5 c 128,-1,19
 191 476 191 476 215 476 c 0,20,21
 240 476 240 476 254.5 497.5 c 128,-1,22
 269 519 269 519 276 566 c 0,23,24
 283 614 283 614 274 635.5 c 128,-1,25
 265 657 265 657 240 657 c 0,26,15
 216 657 216 657 201.5 635.5 c 128,-1,16
EndSplineSet
EndChar

StartChar: guillemotright
Encoding: 187 187 124
Width: 530
GlyphClass: 2
Flags: W
LayerCount: 2
Fore
SplineSet
73 451 m 1,0,-1
 174 451 l 1,1,-1
 252 251 l 1,2,-1
 118 59 l 1,3,-1
 18 59 l 1,4,-1
 109 251 l 1,5,-1
 73 451 l 1,0,-1
275 451 m 1,6,-1
 377 451 l 1,7,-1
 455 251 l 1,8,-1
 321 59 l 1,9,-1
 220 59 l 1,10,-1
 312 251 l 1,11,-1
 275 451 l 1,6,-1
EndSplineSet
EndChar

StartChar: onequarter
Encoding: 188 188 125
Width: 988
GlyphClass: 2
Flags: W
LayerCount: 2
Fore
SplineSet
103 597 m 1,0,-1
 26 580 l 1,1,-1
 37 662 l 1,2,-1
 185 731 l 1,3,-1
 245 731 l 1,4,-1
 181 276 l 1,5,-1
 58 276 l 1,6,-1
 103 597 l 1,0,-1
192 -4 m 1,7,-1
 87 -2 l 1,8,-1
 677 731 l 1,9,-1
 782 731 l 1,10,-1
 192 -4 l 1,7,-1
907 455 m 1,11,-1
 870 190 l 1,12,-1
 935 190 l 1,13,-1
 921 87 l 1,14,-1
 855 87 l 1,15,-1
 843 0 l 1,16,-1
 720 0 l 1,17,-1
 733 87 l 1,18,-1
 534 87 l 1,19,-1
 548 186 l 1,20,-1
 786 455 l 1,21,-1
 907 455 l 1,11,-1
748 190 m 1,22,-1
 762 288 l 1,23,-1
 675 190 l 1,24,-1
 748 190 l 1,22,-1
EndSplineSet
EndChar

StartChar: onehalf
Encoding: 189 189 126
Width: 957
GlyphClass: 2
Flags: W
LayerCount: 2
Fore
SplineSet
103 597 m 1,0,-1
 26 580 l 1,1,-1
 37 662 l 1,2,-1
 185 731 l 1,3,-1
 245 731 l 1,4,-1
 181 276 l 1,5,-1
 58 276 l 1,6,-1
 103 597 l 1,0,-1
192 -4 m 1,7,-1
 87 -2 l 1,8,-1
 677 731 l 1,9,-1
 782 731 l 1,10,-1
 192 -4 l 1,7,-1
540 86 m 1,11,-1
 696 201 l 2,12,13
 745 238 745 238 767.5 256.5 c 128,-1,14
 790 275 790 275 798.5 287 c 128,-1,15
 807 299 807 299 808 315 c 0,16,17
 812 336 812 336 799 349 c 128,-1,18
 786 362 786 362 762 362 c 0,19,20
 734 362 734 362 712 346 c 128,-1,21
 690 330 690 330 678 294 c 1,22,-1
 563 294 l 1,23,24
 570 343 570 343 596.5 380.5 c 128,-1,25
 623 418 623 418 669 439.5 c 128,-1,26
 715 461 715 461 778 461 c 0,27,28
 834 461 834 461 871.5 443 c 128,-1,29
 909 425 909 425 926 392 c 128,-1,30
 943 359 943 359 937 316 c 0,31,32
 932 282 932 282 912.5 256.5 c 128,-1,33
 893 231 893 231 845 192 c 2,34,-1
 732 101 l 1,35,-1
 911 101 l 1,36,-1
 897 0 l 1,37,-1
 528 0 l 1,38,-1
 540 86 l 1,11,-1
EndSplineSet
EndChar

StartChar: threequarters
Encoding: 190 190 127
Width: 1086
GlyphClass: 2
Flags: W
LayerCount: 2
Fore
SplineSet
124 704.5 m 128,-1,1
 188 740 188 740 279 740 c 0,2,3
 331 740 331 740 371.5 725 c 128,-1,4
 412 710 412 710 433 682.5 c 128,-1,5
 454 655 454 655 449 619 c 0,6,7
 439 551 439 551 354 523 c 1,8,9
 391 513 391 513 415.5 485.5 c 128,-1,10
 440 458 440 458 434 414 c 0,11,12
 428 369 428 369 393 337 c 128,-1,13
 358 305 358 305 309.5 289 c 128,-1,14
 261 273 261 273 214 273 c 0,15,16
 113 273 113 273 63.5 307.5 c 128,-1,17
 14 342 14 342 26 429 c 1,18,-1
 142 429 l 1,19,20
 142 396 142 396 165 382 c 128,-1,21
 188 368 188 368 217 368 c 0,22,23
 250 368 250 368 273 381.5 c 128,-1,24
 296 395 296 395 298 414 c 0,25,26
 301 434 301 434 285.5 448 c 128,-1,27
 270 462 270 462 242 463 c 2,28,-1
 180 464 l 1,29,-1
 193 558 l 1,30,-1
 248 561 l 2,31,32
 277 562 277 562 295.5 575.5 c 128,-1,33
 314 589 314 589 316 608 c 0,34,35
 318 625 318 625 301 636.5 c 128,-1,36
 284 648 284 648 262 648 c 0,37,38
 225 648 225 648 199 636 c 128,-1,39
 173 624 173 624 163 587 c 1,40,-1
 48 587 l 1,41,0
 60 669 60 669 124 704.5 c 128,-1,1
290 -4 m 1,42,-1
 185 -2 l 1,43,-1
 775 731 l 1,44,-1
 880 731 l 1,45,-1
 290 -4 l 1,42,-1
1005 455 m 1,46,-1
 968 190 l 1,47,-1
 1033 190 l 1,48,-1
 1019 87 l 1,49,-1
 953 87 l 1,50,-1
 941 0 l 1,51,-1
 818 0 l 1,52,-1
 831 87 l 1,53,-1
 632 87 l 1,54,-1
 646 186 l 1,55,-1
 884 455 l 1,56,-1
 1005 455 l 1,46,-1
846 190 m 1,57,-1
 860 288 l 1,58,-1
 773 190 l 1,59,-1
 846 190 l 1,57,-1
EndSplineSet
EndChar

StartChar: questiondown
Encoding: 191 191 128
Width: 560
GlyphClass: 2
Flags: W
LayerCount: 2
Fore
SplineSet
219 517 m 1,0,-1
 424 517 l 1,1,-1
 397 325 l 1,2,-1
 192 325 l 1,3,-1
 219 517 l 1,0,-1
389 -124.5 m 128,-1,5
 314 -171 314 -171 213 -171 c 0,6,7
 131 -171 131 -171 77 -148 c 128,-1,8
 23 -125 23 -125 0.5 -87 c 128,-1,9
 -22 -49 -22 -49 -15 -3 c 0,10,11
 -9 37 -9 37 9.5 66.5 c 128,-1,12
 28 96 28 96 52 115 c 128,-1,13
 76 134 76 134 113 158 c 0,14,15
 158 187 158 187 180.5 209 c 128,-1,16
 203 231 203 231 208 264 c 1,17,-1
 361 264 l 1,18,19
 353 207 353 207 323.5 169.5 c 128,-1,20
 294 132 294 132 245 93 c 0,21,22
 212 66 212 66 195.5 48 c 128,-1,23
 179 30 179 30 176 8 c 0,24,25
 173 -12 173 -12 190.5 -25.5 c 128,-1,26
 208 -39 208 -39 234 -39 c 0,27,28
 267 -39 267 -39 298.5 -16.5 c 128,-1,29
 330 6 330 6 351 46 c 1,30,-1
 509 12 l 1,31,4
 464 -78 464 -78 389 -124.5 c 128,-1,5
EndSplineSet
EndChar

StartChar: Agrave
Encoding: 192 192 129
Width: 724
GlyphClass: 2
Flags: W
AnchorPoint: "Anchor-5" -46 0 basechar 0
AnchorPoint: "Anchor-4" -46 0 basechar 0
AnchorPoint: "Anchor-3" 331 723 basechar 0
AnchorPoint: "Anchor-2" 674 9 basechar 0
LayerCount: 2
Fore
SplineSet
319 723 m 1,0,-1
 518 723 l 1,1,-1
 672 0 l 1,2,-1
 480 0 l 1,3,-1
 452 140 l 1,4,-1
 224 140 l 1,5,-1
 155 0 l 1,6,-1
 -39 0 l 1,7,-1
 319 723 l 1,0,-1
431 306 m 1,8,-1
 392 537 l 1,9,-1
 288 306 l 1,10,-1
 431 306 l 1,8,-1
598 834 m 1,11,-1
 561 757 l 1,12,-1
 294 823 l 1,13,-1
 352 941 l 1,14,-1
 598 834 l 1,11,-1
EndSplineSet
EndChar

StartChar: Aacute
Encoding: 193 193 130
Width: 724
GlyphClass: 2
Flags: W
AnchorPoint: "Anchor-5" -46 0 basechar 0
AnchorPoint: "Anchor-4" -46 0 basechar 0
AnchorPoint: "Anchor-3" 331 723 basechar 0
AnchorPoint: "Anchor-2" 674 9 basechar 0
LayerCount: 2
Fore
SplineSet
319 723 m 1,0,-1
 518 723 l 1,1,-1
 672 0 l 1,2,-1
 480 0 l 1,3,-1
 452 140 l 1,4,-1
 224 140 l 1,5,-1
 155 0 l 1,6,-1
 -39 0 l 1,7,-1
 319 723 l 1,0,-1
431 306 m 1,8,-1
 392 537 l 1,9,-1
 288 306 l 1,10,-1
 431 306 l 1,8,-1
600 823 m 1,11,-1
 313 757 l 1,12,-1
 298 834 l 1,13,-1
 575 941 l 1,14,-1
 600 823 l 1,11,-1
EndSplineSet
EndChar

StartChar: Acircumflex
Encoding: 194 194 131
Width: 724
GlyphClass: 2
Flags: W
AnchorPoint: "Anchor-5" -46 0 basechar 0
AnchorPoint: "Anchor-4" -46 0 basechar 0
AnchorPoint: "Anchor-3" 331 723 basechar 0
AnchorPoint: "Anchor-2" 674 9 basechar 0
LayerCount: 2
Fore
SplineSet
319 723 m 1,0,-1
 518 723 l 1,1,-1
 672 0 l 1,2,-1
 480 0 l 1,3,-1
 452 140 l 1,4,-1
 224 140 l 1,5,-1
 155 0 l 1,6,-1
 -39 0 l 1,7,-1
 319 723 l 1,0,-1
431 306 m 1,8,-1
 392 537 l 1,9,-1
 288 306 l 1,10,-1
 431 306 l 1,8,-1
452 868 m 1,11,-1
 370 786 l 1,12,-1
 238 786 l 1,13,-1
 397 939 l 1,14,-1
 529 939 l 1,15,-1
 642 786 l 1,16,-1
 503 786 l 1,17,-1
 452 868 l 1,11,-1
EndSplineSet
EndChar

StartChar: Atilde
Encoding: 195 195 132
Width: 724
GlyphClass: 2
Flags: W
AnchorPoint: "Anchor-5" -46 0 basechar 0
AnchorPoint: "Anchor-4" -46 0 basechar 0
AnchorPoint: "Anchor-3" 331 723 basechar 0
AnchorPoint: "Anchor-2" 674 9 basechar 0
LayerCount: 2
Fore
SplineSet
319 723 m 1,0,-1
 518 723 l 1,1,-1
 672 0 l 1,2,-1
 480 0 l 1,3,-1
 452 140 l 1,4,-1
 224 140 l 1,5,-1
 155 0 l 1,6,-1
 -39 0 l 1,7,-1
 319 723 l 1,0,-1
431 306 m 1,8,-1
 392 537 l 1,9,-1
 288 306 l 1,10,-1
 431 306 l 1,8,-1
581 808.5 m 128,-1,12
 553 800 553 800 525 800 c 0,13,14
 506 800 506 800 486 804.5 c 128,-1,15
 466 809 466 809 448 815 c 0,16,17
 403 830 403 830 372 830 c 0,18,19
 352 830 352 830 336 825 c 128,-1,20
 320 820 320 820 299 806 c 0,21,22
 290 801 290 801 287 801 c 0,23,24
 280 801 280 801 277 813 c 2,25,-1
 269 866 l 2,26,27
 268 868 268 868 267.5 871 c 128,-1,28
 267 874 267 874 267 878 c 0,29,30
 268 885 268 885 281 896 c 0,31,32
 304 915 304 915 327 925.5 c 128,-1,33
 350 936 350 936 382 936 c 0,34,35
 401 936 401 936 418.5 932 c 128,-1,36
 436 928 436 928 451.5 923.5 c 128,-1,37
 467 919 467 919 472 918 c 0,38,39
 517 903 517 903 539 903 c 0,40,41
 576 903 576 903 618 930 c 0,42,43
 624 934 624 934 630 934 c 0,44,45
 639 934 639 934 641 922 c 2,46,-1
 645 858 l 2,47,48
 646 855 646 855 645 851 c 0,49,50
 643 840 643 840 628 829 c 0,51,11
 609 817 609 817 581 808.5 c 128,-1,12
EndSplineSet
EndChar

StartChar: Adieresis
Encoding: 196 196 133
Width: 724
GlyphClass: 2
Flags: W
AnchorPoint: "Anchor-5" -46 0 basechar 0
AnchorPoint: "Anchor-4" -46 0 basechar 0
AnchorPoint: "Anchor-3" 331 723 basechar 0
AnchorPoint: "Anchor-2" 674 9 basechar 0
LayerCount: 2
Fore
SplineSet
319 723 m 1,0,-1
 518 723 l 1,1,-1
 672 0 l 1,2,-1
 480 0 l 1,3,-1
 452 140 l 1,4,-1
 224 140 l 1,5,-1
 155 0 l 1,6,-1
 -39 0 l 1,7,-1
 319 723 l 1,0,-1
431 306 m 1,8,-1
 392 537 l 1,9,-1
 288 306 l 1,10,-1
 431 306 l 1,8,-1
408 790 m 1,11,-1
 242 790 l 1,12,-1
 262 929 l 1,13,-1
 428 929 l 1,14,-1
 408 790 l 1,11,-1
642 790 m 1,15,-1
 476 790 l 1,16,-1
 496 929 l 1,17,-1
 662 929 l 1,18,-1
 642 790 l 1,15,-1
EndSplineSet
EndChar

StartChar: Aring
Encoding: 197 197 134
Width: 724
GlyphClass: 2
Flags: W
AnchorPoint: "Anchor-5" -46 0 basechar 0
AnchorPoint: "Anchor-4" -46 0 basechar 0
AnchorPoint: "Anchor-3" 331 723 basechar 0
AnchorPoint: "Anchor-2" 674 9 basechar 0
LayerCount: 2
Fore
SplineSet
319 723 m 1,0,-1
 518 723 l 1,1,-1
 672 0 l 1,2,-1
 480 0 l 1,3,-1
 452 140 l 1,4,-1
 224 140 l 1,5,-1
 155 0 l 1,6,-1
 -39 0 l 1,7,-1
 319 723 l 1,0,-1
431 306 m 1,8,-1
 392 537 l 1,9,-1
 288 306 l 1,10,-1
 431 306 l 1,8,-1
523 798 m 128,-1,12
 485 765 485 765 438 765 c 0,13,14
 390 765 390 765 361.5 798.5 c 128,-1,15
 333 832 333 832 340 881 c 0,16,17
 346 927 346 927 384.5 959 c 128,-1,18
 423 991 423 991 470 991 c 128,-1,19
 517 991 517 991 546 958 c 128,-1,20
 575 925 575 925 568 879 c 0,21,11
 561 831 561 831 523 798 c 128,-1,12
490 911 m 128,-1,23
 478 924 478 924 459 924 c 0,24,25
 439 924 439 924 423.5 910.5 c 128,-1,26
 408 897 408 897 405 878 c 128,-1,27
 402 859 402 859 414.5 844.5 c 128,-1,28
 427 830 427 830 446 830 c 128,-1,29
 465 830 465 830 480.5 844.5 c 128,-1,30
 496 859 496 859 499 878 c 0,31,22
 502 898 502 898 490 911 c 128,-1,23
EndSplineSet
EndChar

StartChar: AE
Encoding: 198 198 135
Width: 1113
GlyphClass: 2
Flags: W
AnchorPoint: "Anchor-5" -46 0 basechar 0
AnchorPoint: "Anchor-4" -46 0 basechar 0
AnchorPoint: "Anchor-3" 652 723 basechar 0
AnchorPoint: "Anchor-2" -46 0 basechar 0
LayerCount: 2
Fore
SplineSet
1016 0 m 1,0,-1
 444 0 l 1,1,-1
 464 140 l 1,2,-1
 244 140 l 1,3,-1
 155 0 l 1,4,-1
 -39 0 l 1,5,-1
 438 723 l 1,6,-1
 1109 723 l 1,7,-1
 1085 564 l 1,8,-1
 745 564 l 1,9,-1
 728 442 l 1,10,-1
 941 442 l 1,11,-1
 919 285 l 1,12,-1
 706 285 l 1,13,-1
 688 160 l 1,14,-1
 1038 160 l 1,15,-1
 1016 0 l 1,0,-1
528 601 m 1,16,-1
 338 306 l 1,17,-1
 487 306 l 1,18,-1
 528 601 l 1,16,-1
EndSplineSet
EndChar

StartChar: Ccedilla
Encoding: 199 199 136
Width: 732
GlyphClass: 2
Flags: W
AnchorPoint: "Anchor-5" -46 0 basechar 0
AnchorPoint: "Anchor-4" 336 0 basechar 0
AnchorPoint: "Anchor-3" 336 723 basechar 0
AnchorPoint: "Anchor-2" -46 0 basechar 0
LayerCount: 2
Fore
SplineSet
588 699.5 m 128,-1,1
 652 666 652 666 685.5 605.5 c 128,-1,2
 719 545 719 545 716 468 c 1,3,-1
 513 468 l 1,4,5
 512 519 512 519 485.5 548 c 128,-1,6
 459 577 459 577 410 577 c 0,7,8
 351 577 351 577 311 529 c 128,-1,9
 271 481 271 481 255 368 c 0,10,11
 239 253 239 253 265.5 199.5 c 128,-1,12
 292 146 292 146 350 146 c 0,13,14
 398 146 398 146 433 181 c 128,-1,15
 468 216 468 216 485 270 c 1,16,-1
 688 270 l 1,17,18
 653 140 653 140 573.5 65 c 128,-1,19
 494 -10 494 -10 335 -10 c 0,20,21
 232 -10 232 -10 160 39 c 128,-1,22
 88 88 88 88 57.5 175 c 128,-1,23
 27 262 27 262 42 371 c 128,-1,24
 57 480 57 480 111.5 562 c 128,-1,25
 166 644 166 644 250 688.5 c 128,-1,26
 334 733 334 733 439 733 c 0,27,0
 524 733 524 733 588 699.5 c 128,-1,1
405.5 -195.5 m 128,-1,29
 364 -219 364 -219 310 -219 c 0,30,31
 226 -219 226 -219 181 -190 c 1,32,-1
 214 -131 l 1,33,34
 258 -157 258 -157 295 -157 c 0,35,36
 315 -157 315 -157 329 -150 c 128,-1,37
 343 -143 343 -143 345 -131 c 0,38,39
 348 -112 348 -112 328.5 -102.5 c 128,-1,40
 309 -93 309 -93 261 -93 c 0,41,42
 253 -93 253 -93 250.5 -91 c 128,-1,43
 248 -89 248 -89 253 -81 c 2,44,-1
 302 5 l 1,45,-1
 381 5 l 1,46,-1
 352 -52 l 1,47,48
 408 -52 408 -52 432.5 -77 c 128,-1,49
 457 -102 457 -102 452 -134 c 0,50,28
 447 -172 447 -172 405.5 -195.5 c 128,-1,29
EndSplineSet
EndChar

StartChar: Egrave
Encoding: 200 200 137
Width: 650
GlyphClass: 2
Flags: W
AnchorPoint: "Anchor-5" -46 0 basechar 0
AnchorPoint: "Anchor-4" 286 0 basechar 0
AnchorPoint: "Anchor-3" 286 723 basechar 0
AnchorPoint: "Anchor-2" 553 10 basechar 0
LayerCount: 2
Fore
SplineSet
121 723 m 1,0,-1
 655 723 l 1,1,-1
 631 562 l 1,2,-1
 294 562 l 1,3,-1
 277 442 l 1,4,-1
 559 442 l 1,5,-1
 537 285 l 1,6,-1
 254 285 l 1,7,-1
 237 162 l 1,8,-1
 577 162 l 1,9,-1
 554 0 l 1,10,-1
 19 0 l 1,11,-1
 121 723 l 1,0,-1
553 834 m 1,12,-1
 516 757 l 1,13,-1
 249 823 l 1,14,-1
 307 941 l 1,15,-1
 553 834 l 1,12,-1
EndSplineSet
EndChar

StartChar: Eacute
Encoding: 201 201 138
Width: 650
GlyphClass: 2
Flags: W
AnchorPoint: "Anchor-5" -46 0 basechar 0
AnchorPoint: "Anchor-4" 286 0 basechar 0
AnchorPoint: "Anchor-3" 286 723 basechar 0
AnchorPoint: "Anchor-2" 553 10 basechar 0
LayerCount: 2
Fore
SplineSet
121 723 m 1,0,-1
 655 723 l 1,1,-1
 631 562 l 1,2,-1
 294 562 l 1,3,-1
 277 442 l 1,4,-1
 559 442 l 1,5,-1
 537 285 l 1,6,-1
 254 285 l 1,7,-1
 237 162 l 1,8,-1
 577 162 l 1,9,-1
 554 0 l 1,10,-1
 19 0 l 1,11,-1
 121 723 l 1,0,-1
555 823 m 1,12,-1
 268 757 l 1,13,-1
 253 834 l 1,14,-1
 530 941 l 1,15,-1
 555 823 l 1,12,-1
EndSplineSet
EndChar

StartChar: Ecircumflex
Encoding: 202 202 139
Width: 650
GlyphClass: 2
Flags: W
AnchorPoint: "Anchor-5" -46 0 basechar 0
AnchorPoint: "Anchor-4" 286 0 basechar 0
AnchorPoint: "Anchor-3" 286 723 basechar 0
AnchorPoint: "Anchor-2" 553 10 basechar 0
LayerCount: 2
Fore
SplineSet
121 723 m 1,0,-1
 655 723 l 1,1,-1
 631 562 l 1,2,-1
 294 562 l 1,3,-1
 277 442 l 1,4,-1
 559 442 l 1,5,-1
 537 285 l 1,6,-1
 254 285 l 1,7,-1
 237 162 l 1,8,-1
 577 162 l 1,9,-1
 554 0 l 1,10,-1
 19 0 l 1,11,-1
 121 723 l 1,0,-1
407 868 m 1,12,-1
 325 786 l 1,13,-1
 193 786 l 1,14,-1
 352 939 l 1,15,-1
 484 939 l 1,16,-1
 597 786 l 1,17,-1
 458 786 l 1,18,-1
 407 868 l 1,12,-1
EndSplineSet
EndChar

StartChar: Edieresis
Encoding: 203 203 140
Width: 650
GlyphClass: 2
Flags: W
AnchorPoint: "Anchor-5" -46 0 basechar 0
AnchorPoint: "Anchor-4" 286 0 basechar 0
AnchorPoint: "Anchor-3" 286 723 basechar 0
AnchorPoint: "Anchor-2" 553 10 basechar 0
LayerCount: 2
Fore
SplineSet
121 723 m 1,0,-1
 655 723 l 1,1,-1
 631 562 l 1,2,-1
 294 562 l 1,3,-1
 277 442 l 1,4,-1
 559 442 l 1,5,-1
 537 285 l 1,6,-1
 254 285 l 1,7,-1
 237 162 l 1,8,-1
 577 162 l 1,9,-1
 554 0 l 1,10,-1
 19 0 l 1,11,-1
 121 723 l 1,0,-1
363 790 m 1,12,-1
 197 790 l 1,13,-1
 217 929 l 1,14,-1
 383 929 l 1,15,-1
 363 790 l 1,12,-1
597 790 m 1,16,-1
 431 790 l 1,17,-1
 451 929 l 1,18,-1
 617 929 l 1,19,-1
 597 790 l 1,16,-1
EndSplineSet
EndChar

StartChar: Igrave
Encoding: 204 204 141
Width: 325
GlyphClass: 2
Flags: W
AnchorPoint: "Anchor-5" -46 0 basechar 0
AnchorPoint: "Anchor-4" 127 0 basechar 0
AnchorPoint: "Anchor-3" 117 723 basechar 0
AnchorPoint: "Anchor-2" 190 3 basechar 0
LayerCount: 2
Fore
SplineSet
316 723 m 1,0,-1
 214 0 l 1,1,-1
 19 0 l 1,2,-1
 121 723 l 1,3,-1
 316 723 l 1,0,-1
384 834 m 1,4,-1
 347 757 l 1,5,-1
 80 823 l 1,6,-1
 138 941 l 1,7,-1
 384 834 l 1,4,-1
EndSplineSet
EndChar

StartChar: Iacute
Encoding: 205 205 142
Width: 325
GlyphClass: 2
Flags: W
AnchorPoint: "Anchor-5" -46 0 basechar 0
AnchorPoint: "Anchor-4" 127 0 basechar 0
AnchorPoint: "Anchor-3" 117 723 basechar 0
AnchorPoint: "Anchor-2" 190 3 basechar 0
LayerCount: 2
Fore
SplineSet
316 723 m 1,0,-1
 214 0 l 1,1,-1
 19 0 l 1,2,-1
 121 723 l 1,3,-1
 316 723 l 1,0,-1
386 823 m 1,4,-1
 99 757 l 1,5,-1
 84 834 l 1,6,-1
 361 941 l 1,7,-1
 386 823 l 1,4,-1
EndSplineSet
EndChar

StartChar: Icircumflex
Encoding: 206 206 143
Width: 325
GlyphClass: 2
Flags: W
AnchorPoint: "Anchor-5" -46 0 basechar 0
AnchorPoint: "Anchor-4" 127 0 basechar 0
AnchorPoint: "Anchor-3" 117 723 basechar 0
AnchorPoint: "Anchor-2" 190 3 basechar 0
LayerCount: 2
Fore
SplineSet
316 723 m 1,0,-1
 214 0 l 1,1,-1
 19 0 l 1,2,-1
 121 723 l 1,3,-1
 316 723 l 1,0,-1
238 868 m 1,4,-1
 156 786 l 1,5,-1
 24 786 l 1,6,-1
 183 939 l 1,7,-1
 315 939 l 1,8,-1
 428 786 l 1,9,-1
 289 786 l 1,10,-1
 238 868 l 1,4,-1
EndSplineSet
EndChar

StartChar: Idieresis
Encoding: 207 207 144
Width: 325
GlyphClass: 2
Flags: W
AnchorPoint: "Anchor-5" -46 0 basechar 0
AnchorPoint: "Anchor-4" 127 0 basechar 0
AnchorPoint: "Anchor-3" 117 723 basechar 0
AnchorPoint: "Anchor-2" 190 3 basechar 0
LayerCount: 2
Fore
SplineSet
316 723 m 1,0,-1
 214 0 l 1,1,-1
 19 0 l 1,2,-1
 121 723 l 1,3,-1
 316 723 l 1,0,-1
194 790 m 1,4,-1
 28 790 l 1,5,-1
 48 929 l 1,6,-1
 214 929 l 1,7,-1
 194 790 l 1,4,-1
428 790 m 1,8,-1
 262 790 l 1,9,-1
 282 929 l 1,10,-1
 448 929 l 1,11,-1
 428 790 l 1,8,-1
EndSplineSet
EndChar

StartChar: Eth
Encoding: 208 208 145
Width: 769
GlyphClass: 2
Flags: W
AnchorPoint: "Anchor-5" -46 0 basechar 0
AnchorPoint: "Anchor-4" -46 0 basechar 0
AnchorPoint: "Anchor-3" 357 723 basechar 0
AnchorPoint: "Anchor-2" -46 0 basechar 0
LayerCount: 2
Fore
SplineSet
681.5 620 m 128,-1,1
 761 525 761 525 738 364 c 0,2,3
 723 256 723 256 670.5 174 c 128,-1,4
 618 92 618 92 527 46 c 128,-1,5
 436 0 436 0 312 0 c 2,6,-1
 53 0 l 1,7,-1
 93 286 l 1,8,-1
 50 286 l 2,9,10
 35 286 35 286 30.5 291.5 c 128,-1,11
 26 297 26 297 28 310 c 2,12,-1
 40 401 l 2,13,14
 43 423 43 423 62 423 c 2,15,-1
 112 423 l 1,16,-1
 155 723 l 1,17,-1
 269 723 l 2,18,19
 384 723 384 723 414 722 c 0,20,0
 602 715 602 715 681.5 620 c 128,-1,1
421 175 m 128,-1,22
 462 197 462 197 493.5 245 c 128,-1,23
 525 293 525 293 536 367 c 0,24,25
 550 465 550 465 512 517.5 c 128,-1,26
 474 570 474 570 398 570 c 2,27,-1
 328 570 l 1,28,-1
 307 423 l 1,29,-1
 423 423 l 2,30,31
 431 423 431 423 435.5 417.5 c 128,-1,32
 440 412 440 412 439 404 c 2,33,-1
 426 313 l 2,34,35
 424 298 424 298 415.5 292 c 128,-1,36
 407 286 407 286 390 286 c 2,37,-1
 288 286 l 1,38,-1
 270 153 l 1,39,-1
 340 153 l 2,40,21
 380 153 380 153 421 175 c 128,-1,22
EndSplineSet
EndChar

StartChar: Ntilde
Encoding: 209 209 146
Width: 803
GlyphClass: 2
Flags: W
AnchorPoint: "Anchor-5" -46 0 basechar 0
AnchorPoint: "Anchor-4" 355 0 basechar 0
AnchorPoint: "Anchor-3" 355 723 basechar 0
AnchorPoint: "Anchor-2" -46 0 basechar 0
LayerCount: 2
Fore
SplineSet
794 723 m 1,0,-1
 692 0 l 1,1,-1
 516 0 l 1,2,-1
 275 431 l 1,3,-1
 214 0 l 1,4,-1
 19 0 l 1,5,-1
 121 723 l 1,6,-1
 317 723 l 1,7,-1
 542 320 l 1,8,-1
 599 723 l 1,9,-1
 794 723 l 1,0,-1
605 808.5 m 128,-1,11
 577 800 577 800 549 800 c 0,12,13
 530 800 530 800 510 804.5 c 128,-1,14
 490 809 490 809 472 815 c 0,15,16
 427 830 427 830 396 830 c 0,17,18
 376 830 376 830 360 825 c 128,-1,19
 344 820 344 820 323 806 c 0,20,21
 314 801 314 801 311 801 c 0,22,23
 304 801 304 801 301 813 c 2,24,-1
 293 866 l 2,25,26
 292 868 292 868 291.5 871 c 128,-1,27
 291 874 291 874 291 878 c 0,28,29
 292 885 292 885 305 896 c 0,30,31
 328 915 328 915 351 925.5 c 128,-1,32
 374 936 374 936 406 936 c 0,33,34
 425 936 425 936 442.5 932 c 128,-1,35
 460 928 460 928 475.5 923.5 c 128,-1,36
 491 919 491 919 496 918 c 0,37,38
 541 903 541 903 563 903 c 0,39,40
 600 903 600 903 642 930 c 0,41,42
 648 934 648 934 654 934 c 0,43,44
 663 934 663 934 665 922 c 2,45,-1
 669 858 l 2,46,47
 670 855 670 855 669 851 c 0,48,49
 667 840 667 840 652 829 c 0,50,10
 633 817 633 817 605 808.5 c 128,-1,11
EndSplineSet
EndChar

StartChar: Ograve
Encoding: 210 210 147
Width: 772
GlyphClass: 2
Flags: W
AnchorPoint: "Anchor-5" -46 0 basechar 0
AnchorPoint: "Anchor-4" 342 0 basechar 0
AnchorPoint: "Anchor-3" 340 723 basechar 0
AnchorPoint: "Anchor-2" 431 10 basechar 0
LayerCount: 2
Fore
SplineSet
160.5 35.5 m 128,-1,1
 87 81 87 81 56 164.5 c 128,-1,2
 25 248 25 248 41 360 c 128,-1,3
 57 472 57 472 112 556.5 c 128,-1,4
 167 641 167 641 253 687 c 128,-1,5
 339 733 339 733 444 733 c 0,6,7
 548 733 548 733 620.5 687 c 128,-1,8
 693 641 693 641 724.5 556.5 c 128,-1,9
 756 472 756 472 741 360 c 0,10,11
 725 249 725 249 670 165 c 128,-1,12
 615 81 615 81 530 35.5 c 128,-1,13
 445 -10 445 -10 340 -10 c 0,14,0
 234 -10 234 -10 160.5 35.5 c 128,-1,1
470 196 m 128,-1,16
 514 246 514 246 529 357 c 0,17,18
 545 472 545 472 515.5 524.5 c 128,-1,19
 486 577 486 577 422 577 c 128,-1,20
 358 577 358 577 313 524.5 c 128,-1,21
 268 472 268 472 252 357 c 0,22,23
 236 246 236 246 266.5 196 c 128,-1,24
 297 146 297 146 362 146 c 0,25,15
 426 146 426 146 470 196 c 128,-1,16
607 834 m 1,26,-1
 570 757 l 1,27,-1
 303 823 l 1,28,-1
 361 941 l 1,29,-1
 607 834 l 1,26,-1
EndSplineSet
EndChar

StartChar: Oacute
Encoding: 211 211 148
Width: 772
GlyphClass: 2
Flags: W
AnchorPoint: "Anchor-5" -46 0 basechar 0
AnchorPoint: "Anchor-4" 342 0 basechar 0
AnchorPoint: "Anchor-3" 340 723 basechar 0
AnchorPoint: "Anchor-2" 431 10 basechar 0
LayerCount: 2
Fore
SplineSet
160.5 35.5 m 128,-1,1
 87 81 87 81 56 164.5 c 128,-1,2
 25 248 25 248 41 360 c 128,-1,3
 57 472 57 472 112 556.5 c 128,-1,4
 167 641 167 641 253 687 c 128,-1,5
 339 733 339 733 444 733 c 0,6,7
 548 733 548 733 620.5 687 c 128,-1,8
 693 641 693 641 724.5 556.5 c 128,-1,9
 756 472 756 472 741 360 c 0,10,11
 725 249 725 249 670 165 c 128,-1,12
 615 81 615 81 530 35.5 c 128,-1,13
 445 -10 445 -10 340 -10 c 0,14,0
 234 -10 234 -10 160.5 35.5 c 128,-1,1
470 196 m 128,-1,16
 514 246 514 246 529 357 c 0,17,18
 545 472 545 472 515.5 524.5 c 128,-1,19
 486 577 486 577 422 577 c 128,-1,20
 358 577 358 577 313 524.5 c 128,-1,21
 268 472 268 472 252 357 c 0,22,23
 236 246 236 246 266.5 196 c 128,-1,24
 297 146 297 146 362 146 c 0,25,15
 426 146 426 146 470 196 c 128,-1,16
609 823 m 1,26,-1
 322 757 l 1,27,-1
 307 834 l 1,28,-1
 584 941 l 1,29,-1
 609 823 l 1,26,-1
EndSplineSet
EndChar

StartChar: Ocircumflex
Encoding: 212 212 149
Width: 772
GlyphClass: 2
Flags: W
AnchorPoint: "Anchor-5" -46 0 basechar 0
AnchorPoint: "Anchor-4" 342 0 basechar 0
AnchorPoint: "Anchor-3" 340 723 basechar 0
AnchorPoint: "Anchor-2" 431 10 basechar 0
LayerCount: 2
Fore
SplineSet
160.5 35.5 m 128,-1,1
 87 81 87 81 56 164.5 c 128,-1,2
 25 248 25 248 41 360 c 128,-1,3
 57 472 57 472 112 556.5 c 128,-1,4
 167 641 167 641 253 687 c 128,-1,5
 339 733 339 733 444 733 c 0,6,7
 548 733 548 733 620.5 687 c 128,-1,8
 693 641 693 641 724.5 556.5 c 128,-1,9
 756 472 756 472 741 360 c 0,10,11
 725 249 725 249 670 165 c 128,-1,12
 615 81 615 81 530 35.5 c 128,-1,13
 445 -10 445 -10 340 -10 c 0,14,0
 234 -10 234 -10 160.5 35.5 c 128,-1,1
470 196 m 128,-1,16
 514 246 514 246 529 357 c 0,17,18
 545 472 545 472 515.5 524.5 c 128,-1,19
 486 577 486 577 422 577 c 128,-1,20
 358 577 358 577 313 524.5 c 128,-1,21
 268 472 268 472 252 357 c 0,22,23
 236 246 236 246 266.5 196 c 128,-1,24
 297 146 297 146 362 146 c 0,25,15
 426 146 426 146 470 196 c 128,-1,16
461 868 m 1,26,-1
 379 786 l 1,27,-1
 247 786 l 1,28,-1
 406 939 l 1,29,-1
 538 939 l 1,30,-1
 651 786 l 1,31,-1
 512 786 l 1,32,-1
 461 868 l 1,26,-1
EndSplineSet
EndChar

StartChar: Otilde
Encoding: 213 213 150
Width: 772
GlyphClass: 2
Flags: W
AnchorPoint: "Anchor-5" -46 0 basechar 0
AnchorPoint: "Anchor-4" 342 0 basechar 0
AnchorPoint: "Anchor-3" 340 723 basechar 0
AnchorPoint: "Anchor-2" 431 10 basechar 0
LayerCount: 2
Fore
SplineSet
160.5 35.5 m 128,-1,1
 87 81 87 81 56 164.5 c 128,-1,2
 25 248 25 248 41 360 c 128,-1,3
 57 472 57 472 112 556.5 c 128,-1,4
 167 641 167 641 253 687 c 128,-1,5
 339 733 339 733 444 733 c 0,6,7
 548 733 548 733 620.5 687 c 128,-1,8
 693 641 693 641 724.5 556.5 c 128,-1,9
 756 472 756 472 741 360 c 0,10,11
 725 249 725 249 670 165 c 128,-1,12
 615 81 615 81 530 35.5 c 128,-1,13
 445 -10 445 -10 340 -10 c 0,14,0
 234 -10 234 -10 160.5 35.5 c 128,-1,1
470 196 m 128,-1,16
 514 246 514 246 529 357 c 0,17,18
 545 472 545 472 515.5 524.5 c 128,-1,19
 486 577 486 577 422 577 c 128,-1,20
 358 577 358 577 313 524.5 c 128,-1,21
 268 472 268 472 252 357 c 0,22,23
 236 246 236 246 266.5 196 c 128,-1,24
 297 146 297 146 362 146 c 0,25,15
 426 146 426 146 470 196 c 128,-1,16
590 808.5 m 128,-1,27
 562 800 562 800 534 800 c 0,28,29
 515 800 515 800 495 804.5 c 128,-1,30
 475 809 475 809 457 815 c 0,31,32
 412 830 412 830 381 830 c 0,33,34
 361 830 361 830 345 825 c 128,-1,35
 329 820 329 820 308 806 c 0,36,37
 299 801 299 801 296 801 c 0,38,39
 289 801 289 801 286 813 c 2,40,-1
 278 866 l 2,41,42
 277 868 277 868 276.5 871 c 128,-1,43
 276 874 276 874 276 878 c 0,44,45
 277 885 277 885 290 896 c 0,46,47
 313 915 313 915 336 925.5 c 128,-1,48
 359 936 359 936 391 936 c 0,49,50
 410 936 410 936 427.5 932 c 128,-1,51
 445 928 445 928 460.5 923.5 c 128,-1,52
 476 919 476 919 481 918 c 0,53,54
 526 903 526 903 548 903 c 0,55,56
 585 903 585 903 627 930 c 0,57,58
 633 934 633 934 639 934 c 0,59,60
 648 934 648 934 650 922 c 2,61,-1
 654 858 l 2,62,63
 655 855 655 855 654 851 c 0,64,65
 652 840 652 840 637 829 c 0,66,26
 618 817 618 817 590 808.5 c 128,-1,27
EndSplineSet
EndChar

StartChar: Odieresis
Encoding: 214 214 151
Width: 772
GlyphClass: 2
Flags: W
AnchorPoint: "Anchor-5" -46 0 basechar 0
AnchorPoint: "Anchor-4" 342 0 basechar 0
AnchorPoint: "Anchor-3" 340 723 basechar 0
AnchorPoint: "Anchor-2" 431 10 basechar 0
LayerCount: 2
Fore
SplineSet
160.5 35.5 m 128,-1,1
 87 81 87 81 56 164.5 c 128,-1,2
 25 248 25 248 41 360 c 128,-1,3
 57 472 57 472 112 556.5 c 128,-1,4
 167 641 167 641 253 687 c 128,-1,5
 339 733 339 733 444 733 c 0,6,7
 548 733 548 733 620.5 687 c 128,-1,8
 693 641 693 641 724.5 556.5 c 128,-1,9
 756 472 756 472 741 360 c 0,10,11
 725 249 725 249 670 165 c 128,-1,12
 615 81 615 81 530 35.5 c 128,-1,13
 445 -10 445 -10 340 -10 c 0,14,0
 234 -10 234 -10 160.5 35.5 c 128,-1,1
470 196 m 128,-1,16
 514 246 514 246 529 357 c 0,17,18
 545 472 545 472 515.5 524.5 c 128,-1,19
 486 577 486 577 422 577 c 128,-1,20
 358 577 358 577 313 524.5 c 128,-1,21
 268 472 268 472 252 357 c 0,22,23
 236 246 236 246 266.5 196 c 128,-1,24
 297 146 297 146 362 146 c 0,25,15
 426 146 426 146 470 196 c 128,-1,16
417 790 m 1,26,-1
 251 790 l 1,27,-1
 271 929 l 1,28,-1
 437 929 l 1,29,-1
 417 790 l 1,26,-1
651 790 m 1,30,-1
 485 790 l 1,31,-1
 505 929 l 1,32,-1
 671 929 l 1,33,-1
 651 790 l 1,30,-1
EndSplineSet
EndChar

StartChar: multiply
Encoding: 215 215 152
Width: 609
GlyphClass: 2
Flags: W
LayerCount: 2
Fore
SplineSet
403 364 m 1,0,-1
 533 213 l 1,1,-1
 421 115 l 1,2,-1
 291 266 l 1,3,-1
 118 115 l 1,4,-1
 36 213 l 1,5,-1
 208 364 l 1,6,-1
 78 516 l 1,7,-1
 187 614 l 1,8,-1
 319 461 l 1,9,-1
 493 614 l 1,10,-1
 578 516 l 1,11,-1
 403 364 l 1,0,-1
EndSplineSet
EndChar

StartChar: Oslash
Encoding: 216 216 153
Width: 790
GlyphClass: 2
Flags: W
AnchorPoint: "Anchor-5" -46 0 basechar 0
AnchorPoint: "Anchor-4" -46 0 basechar 0
AnchorPoint: "Anchor-3" 344 723 basechar 0
AnchorPoint: "Anchor-2" -46 0 basechar 0
LayerCount: 2
Fore
SplineSet
815 656 m 128,-1,1
 814 649 814 649 806 643 c 2,2,-1
 722 570 l 1,3,4
 762 483 762 483 745 360 c 0,5,6
 729 249 729 249 674 165 c 128,-1,7
 619 81 619 81 534 35.5 c 128,-1,8
 449 -10 449 -10 344 -10 c 0,9,10
 212 -10 212 -10 130 61 c 1,11,-1
 66 7 l 2,12,13
 54 -5 54 -5 43 -5 c 0,14,15
 34 -5 34 -5 24 7 c 2,16,-1
 -9 46 l 2,17,18
 -18 57 -18 57 -17 66 c 128,-1,19
 -16 75 -16 75 -7 82 c 2,20,-1
 68 146 l 1,21,22
 28 236 28 236 45 360 c 0,23,24
 61 472 61 472 116 556.5 c 128,-1,25
 171 641 171 641 257 687 c 128,-1,26
 343 733 343 733 448 733 c 0,27,28
 584 733 584 733 663 657 c 1,29,-1
 736 719 l 2,30,31
 746 728 746 728 755 728 c 0,32,33
 762 728 762 728 767 723 c 2,34,-1
 811 669 l 2,35,0
 816 663 816 663 815 656 c 128,-1,1
272 321 m 1,36,-1
 511 526 l 1,37,38
 501 556 501 556 480.5 569.5 c 128,-1,39
 460 583 460 583 427 583 c 0,40,41
 363 583 363 583 328 530.5 c 128,-1,42
 293 478 293 478 276 357 c 0,43,44
 273 333 273 333 272 321 c 1,36,-1
516 394 m 1,45,-1
 280 190 l 1,46,47
 301 142 301 142 365 142 c 0,48,49
 408 142 408 142 436.5 163.5 c 128,-1,50
 465 185 465 185 483 231.5 c 128,-1,51
 501 278 501 278 512 357 c 0,52,53
 515 381 515 381 516 394 c 1,45,-1
EndSplineSet
EndChar

StartChar: Ugrave
Encoding: 217 217 154
Width: 754
GlyphClass: 2
Flags: W
AnchorPoint: "Anchor-5" -46 0 basechar 0
AnchorPoint: "Anchor-4" -46 0 basechar 0
AnchorPoint: "Anchor-3" 313 723 basechar 0
AnchorPoint: "Anchor-2" 410 12 basechar 0
LayerCount: 2
Fore
SplineSet
580 71 m 128,-1,1
 496 -10 496 -10 330 -10 c 128,-1,2
 164 -10 164 -10 102 71 c 128,-1,3
 40 152 40 152 61 299 c 2,4,-1
 121 723 l 1,5,-1
 318 723 l 1,6,-1
 257 291 l 2,7,8
 247 221 247 221 275 187 c 128,-1,9
 303 153 303 153 353 153 c 128,-1,10
 403 153 403 153 440 187 c 128,-1,11
 477 221 477 221 487 291 c 2,12,-1
 548 723 l 1,13,-1
 745 723 l 1,14,-1
 685 299 l 2,15,0
 664 152 664 152 580 71 c 128,-1,1
580 834 m 1,16,-1
 543 757 l 1,17,-1
 276 823 l 1,18,-1
 334 941 l 1,19,-1
 580 834 l 1,16,-1
EndSplineSet
EndChar

StartChar: Uacute
Encoding: 218 218 155
Width: 754
GlyphClass: 2
Flags: W
AnchorPoint: "Anchor-5" -46 0 basechar 0
AnchorPoint: "Anchor-4" -46 0 basechar 0
AnchorPoint: "Anchor-3" 313 723 basechar 0
AnchorPoint: "Anchor-2" 410 12 basechar 0
LayerCount: 2
Fore
SplineSet
580 71 m 128,-1,1
 496 -10 496 -10 330 -10 c 128,-1,2
 164 -10 164 -10 102 71 c 128,-1,3
 40 152 40 152 61 299 c 2,4,-1
 121 723 l 1,5,-1
 318 723 l 1,6,-1
 257 291 l 2,7,8
 247 221 247 221 275 187 c 128,-1,9
 303 153 303 153 353 153 c 128,-1,10
 403 153 403 153 440 187 c 128,-1,11
 477 221 477 221 487 291 c 2,12,-1
 548 723 l 1,13,-1
 745 723 l 1,14,-1
 685 299 l 2,15,0
 664 152 664 152 580 71 c 128,-1,1
582 823 m 1,16,-1
 295 757 l 1,17,-1
 280 834 l 1,18,-1
 557 941 l 1,19,-1
 582 823 l 1,16,-1
EndSplineSet
EndChar

StartChar: Ucircumflex
Encoding: 219 219 156
Width: 754
GlyphClass: 2
Flags: W
AnchorPoint: "Anchor-5" -46 0 basechar 0
AnchorPoint: "Anchor-4" -46 0 basechar 0
AnchorPoint: "Anchor-3" 313 723 basechar 0
AnchorPoint: "Anchor-2" 410 12 basechar 0
LayerCount: 2
Fore
SplineSet
580 71 m 128,-1,1
 496 -10 496 -10 330 -10 c 128,-1,2
 164 -10 164 -10 102 71 c 128,-1,3
 40 152 40 152 61 299 c 2,4,-1
 121 723 l 1,5,-1
 318 723 l 1,6,-1
 257 291 l 2,7,8
 247 221 247 221 275 187 c 128,-1,9
 303 153 303 153 353 153 c 128,-1,10
 403 153 403 153 440 187 c 128,-1,11
 477 221 477 221 487 291 c 2,12,-1
 548 723 l 1,13,-1
 745 723 l 1,14,-1
 685 299 l 2,15,0
 664 152 664 152 580 71 c 128,-1,1
434 868 m 1,16,-1
 352 786 l 1,17,-1
 220 786 l 1,18,-1
 379 939 l 1,19,-1
 511 939 l 1,20,-1
 624 786 l 1,21,-1
 485 786 l 1,22,-1
 434 868 l 1,16,-1
EndSplineSet
EndChar

StartChar: Udieresis
Encoding: 220 220 157
Width: 754
GlyphClass: 2
Flags: W
AnchorPoint: "Anchor-5" -46 0 basechar 0
AnchorPoint: "Anchor-4" -46 0 basechar 0
AnchorPoint: "Anchor-3" 313 723 basechar 0
AnchorPoint: "Anchor-2" 410 12 basechar 0
LayerCount: 2
Fore
SplineSet
580 71 m 128,-1,1
 496 -10 496 -10 330 -10 c 128,-1,2
 164 -10 164 -10 102 71 c 128,-1,3
 40 152 40 152 61 299 c 2,4,-1
 121 723 l 1,5,-1
 318 723 l 1,6,-1
 257 291 l 2,7,8
 247 221 247 221 275 187 c 128,-1,9
 303 153 303 153 353 153 c 128,-1,10
 403 153 403 153 440 187 c 128,-1,11
 477 221 477 221 487 291 c 2,12,-1
 548 723 l 1,13,-1
 745 723 l 1,14,-1
 685 299 l 2,15,0
 664 152 664 152 580 71 c 128,-1,1
390 790 m 1,16,-1
 224 790 l 1,17,-1
 244 929 l 1,18,-1
 410 929 l 1,19,-1
 390 790 l 1,16,-1
624 790 m 1,20,-1
 458 790 l 1,21,-1
 478 929 l 1,22,-1
 644 929 l 1,23,-1
 624 790 l 1,20,-1
EndSplineSet
EndChar

StartChar: Yacute
Encoding: 221 221 158
Width: 710
GlyphClass: 2
Flags: W
AnchorPoint: "Anchor-5" -46 0 basechar 0
AnchorPoint: "Anchor-4" -46 0 basechar 0
AnchorPoint: "Anchor-3" 333 723 basechar 0
AnchorPoint: "Anchor-2" -46 0 basechar 0
LayerCount: 2
Fore
SplineSet
447 301 m 1,0,-1
 405 0 l 1,1,-1
 210 0 l 1,2,-1
 252 301 l 1,3,-1
 57 723 l 1,4,-1
 267 723 l 1,5,-1
 373 466 l 1,6,-1
 552 723 l 1,7,-1
 764 723 l 1,8,-1
 447 301 l 1,0,-1
602 823 m 1,9,-1
 315 757 l 1,10,-1
 300 834 l 1,11,-1
 577 941 l 1,12,-1
 602 823 l 1,9,-1
EndSplineSet
EndChar

StartChar: Thorn
Encoding: 222 222 159
Width: 739
GlyphClass: 2
Flags: W
LayerCount: 2
Fore
SplineSet
667.5 243 m 128,-1,1
 627 192 627 192 562 165 c 128,-1,2
 497 138 497 138 418 138 c 2,3,-1
 260 138 l 1,4,-1
 241 0 l 1,5,-1
 19 0 l 1,6,-1
 121 723 l 1,7,-1
 343 723 l 1,8,-1
 324 593 l 1,9,-1
 456 593 l 2,10,11
 538 593 538 593 601.5 567 c 128,-1,12
 665 541 665 541 696.5 489 c 128,-1,13
 728 437 728 437 718 363 c 0,14,0
 708 294 708 294 667.5 243 c 128,-1,1
476 417.5 m 128,-1,16
 455 437 455 437 421 437 c 2,17,-1
 302 437 l 1,18,-1
 282 294 l 1,19,-1
 406 294 l 2,20,21
 440 294 440 294 464 315 c 128,-1,22
 488 336 488 336 492 366 c 0,23,15
 497 398 497 398 476 417.5 c 128,-1,16
EndSplineSet
EndChar

StartChar: germandbls
Encoding: 223 223 160
Width: 672
GlyphClass: 2
Flags: W
LayerCount: 2
Fore
SplineSet
564 683 m 128,-1,1
 618 643 618 643 608 566 c 0,2,3
 601 515 601 515 564 480 c 128,-1,4
 527 445 527 445 447 414 c 0,5,6
 442 412 442 412 441 408 c 0,7,8
 440 403 440 403 447 400 c 0,9,10
 515 368 515 368 553 342.5 c 128,-1,11
 591 317 591 317 613 276.5 c 128,-1,12
 635 236 635 236 627 175 c 0,13,14
 614 86 614 86 547.5 38 c 128,-1,15
 481 -10 481 -10 376 -10 c 0,16,17
 298 -10 298 -10 249 22 c 1,18,-1
 318 138 l 1,19,20
 335 125 335 125 350 117.5 c 128,-1,21
 365 110 365 110 388 110 c 0,22,23
 412 110 412 110 430.5 121 c 128,-1,24
 449 132 449 132 452 154 c 0,25,26
 455 173 455 173 441 184.5 c 128,-1,27
 427 196 427 196 385 215 c 0,28,29
 284 264 284 264 297 359 c 0,30,31
 302 394 302 394 319.5 420 c 128,-1,32
 337 446 337 446 363 470 c 0,33,34
 371 477 371 477 390 493.5 c 128,-1,35
 409 510 409 510 419.5 524.5 c 128,-1,36
 430 539 430 539 432 554 c 0,37,38
 435 575 435 575 420.5 588.5 c 128,-1,39
 406 602 406 602 377 602 c 0,40,41
 340 602 340 602 316.5 579.5 c 128,-1,42
 293 557 293 557 288 522 c 2,43,-1
 215 0 l 1,44,-1
 24 0 l 1,45,-1
 73 352 l 1,46,-1
 19 352 l 1,47,-1
 38 484 l 1,48,-1
 91 484 l 1,49,50
 109 586 109 586 183 654.5 c 128,-1,51
 257 723 257 723 401 723 c 0,52,0
 510 723 510 723 564 683 c 128,-1,1
EndSplineSet
EndChar

StartChar: agrave
Encoding: 224 224 161
Width: 582
GlyphClass: 2
Flags: W
AnchorPoint: "Anchor-5" -46 0 basechar 0
AnchorPoint: "Anchor-4" -46 0 basechar 0
AnchorPoint: "Anchor-3" 246 517 basechar 0
AnchorPoint: "Anchor-2" 452 10 basechar 0
LayerCount: 2
Fore
SplineSet
517 0 m 1,0,-1
 321 0 l 1,1,-1
 517 0 l 1,0,-1
321 0 m 1,2,-1
 329 48 l 1,3,4
 291 16 291 16 255 3 c 128,-1,5
 219 -10 219 -10 183 -10 c 0,6,7
 93 -10 93 -10 44 56 c 0,8,9
 -4 120 -4 120 15 260 c 0,10,11
 27 348 27 348 62.5 408 c 128,-1,12
 98 468 98 468 147.5 497.5 c 128,-1,13
 197 527 197 527 253 527 c 0,14,15
 291 527 291 527 326.5 514 c 128,-1,16
 362 501 362 501 388 477 c 1,17,-1
 394 517 l 1,18,-1
 590 517 l 1,19,-1
 516 0 l 1,20,-1
 321 0 l 1,2,-1
325 155 m 128,-1,22
 349 194 349 194 359 264 c 0,23,24
 378 400 378 400 308 400 c 0,25,26
 273 400 273 400 247.5 366 c 128,-1,27
 222 332 222 332 212 264 c 128,-1,28
 202 196 202 196 218 156 c 128,-1,29
 234 116 234 116 268 116 c 0,30,21
 301 116 301 116 325 155 c 128,-1,22
484 628 m 1,31,-1
 447 551 l 1,32,-1
 180 617 l 1,33,-1
 238 735 l 1,34,-1
 484 628 l 1,31,-1
EndSplineSet
EndChar

StartChar: aacute
Encoding: 225 225 162
Width: 582
GlyphClass: 2
Flags: W
AnchorPoint: "Anchor-5" -46 0 basechar 0
AnchorPoint: "Anchor-4" -46 0 basechar 0
AnchorPoint: "Anchor-3" 246 517 basechar 0
AnchorPoint: "Anchor-2" 452 10 basechar 0
LayerCount: 2
Fore
SplineSet
517 0 m 1,0,-1
 321 0 l 1,1,-1
 517 0 l 1,0,-1
321 0 m 1,2,-1
 329 48 l 1,3,4
 291 16 291 16 255 3 c 128,-1,5
 219 -10 219 -10 183 -10 c 0,6,7
 93 -10 93 -10 44 56 c 0,8,9
 -4 120 -4 120 15 260 c 0,10,11
 27 348 27 348 62.5 408 c 128,-1,12
 98 468 98 468 147.5 497.5 c 128,-1,13
 197 527 197 527 253 527 c 0,14,15
 291 527 291 527 326.5 514 c 128,-1,16
 362 501 362 501 388 477 c 1,17,-1
 394 517 l 1,18,-1
 590 517 l 1,19,-1
 516 0 l 1,20,-1
 321 0 l 1,2,-1
325 155 m 128,-1,22
 349 194 349 194 359 264 c 0,23,24
 378 400 378 400 308 400 c 0,25,26
 273 400 273 400 247.5 366 c 128,-1,27
 222 332 222 332 212 264 c 128,-1,28
 202 196 202 196 218 156 c 128,-1,29
 234 116 234 116 268 116 c 0,30,21
 301 116 301 116 325 155 c 128,-1,22
486 617 m 1,31,-1
 199 551 l 1,32,-1
 184 628 l 1,33,-1
 461 735 l 1,34,-1
 486 617 l 1,31,-1
EndSplineSet
EndChar

StartChar: acircumflex
Encoding: 226 226 163
Width: 582
GlyphClass: 2
Flags: W
AnchorPoint: "Anchor-5" -46 0 basechar 0
AnchorPoint: "Anchor-4" -46 0 basechar 0
AnchorPoint: "Anchor-3" 246 517 basechar 0
AnchorPoint: "Anchor-2" 452 10 basechar 0
LayerCount: 2
Fore
SplineSet
517 0 m 1,0,-1
 321 0 l 1,1,-1
 517 0 l 1,0,-1
321 0 m 1,2,-1
 329 48 l 1,3,4
 291 16 291 16 255 3 c 128,-1,5
 219 -10 219 -10 183 -10 c 0,6,7
 93 -10 93 -10 44 56 c 0,8,9
 -4 120 -4 120 15 260 c 0,10,11
 27 348 27 348 62.5 408 c 128,-1,12
 98 468 98 468 147.5 497.5 c 128,-1,13
 197 527 197 527 253 527 c 0,14,15
 291 527 291 527 326.5 514 c 128,-1,16
 362 501 362 501 388 477 c 1,17,-1
 394 517 l 1,18,-1
 590 517 l 1,19,-1
 516 0 l 1,20,-1
 321 0 l 1,2,-1
325 155 m 128,-1,22
 349 194 349 194 359 264 c 0,23,24
 378 400 378 400 308 400 c 0,25,26
 273 400 273 400 247.5 366 c 128,-1,27
 222 332 222 332 212 264 c 128,-1,28
 202 196 202 196 218 156 c 128,-1,29
 234 116 234 116 268 116 c 0,30,21
 301 116 301 116 325 155 c 128,-1,22
338 662 m 1,31,-1
 256 580 l 1,32,-1
 124 580 l 1,33,-1
 283 733 l 1,34,-1
 415 733 l 1,35,-1
 528 580 l 1,36,-1
 389 580 l 1,37,-1
 338 662 l 1,31,-1
EndSplineSet
EndChar

StartChar: atilde
Encoding: 227 227 164
Width: 582
GlyphClass: 2
Flags: W
AnchorPoint: "Anchor-5" -46 0 basechar 0
AnchorPoint: "Anchor-4" -46 0 basechar 0
AnchorPoint: "Anchor-3" 246 517 basechar 0
AnchorPoint: "Anchor-2" 452 10 basechar 0
LayerCount: 2
Fore
SplineSet
517 0 m 1,0,-1
 321 0 l 1,1,-1
 517 0 l 1,0,-1
321 0 m 1,2,-1
 329 48 l 1,3,4
 291 16 291 16 255 3 c 128,-1,5
 219 -10 219 -10 183 -10 c 0,6,7
 93 -10 93 -10 44 56 c 0,8,9
 -4 120 -4 120 15 260 c 0,10,11
 27 348 27 348 62.5 408 c 128,-1,12
 98 468 98 468 147.5 497.5 c 128,-1,13
 197 527 197 527 253 527 c 0,14,15
 291 527 291 527 326.5 514 c 128,-1,16
 362 501 362 501 388 477 c 1,17,-1
 394 517 l 1,18,-1
 590 517 l 1,19,-1
 516 0 l 1,20,-1
 321 0 l 1,2,-1
325 155 m 128,-1,22
 349 194 349 194 359 264 c 0,23,24
 378 400 378 400 308 400 c 0,25,26
 273 400 273 400 247.5 366 c 128,-1,27
 222 332 222 332 212 264 c 128,-1,28
 202 196 202 196 218 156 c 128,-1,29
 234 116 234 116 268 116 c 0,30,21
 301 116 301 116 325 155 c 128,-1,22
467 602.5 m 128,-1,32
 439 594 439 594 411 594 c 0,33,34
 392 594 392 594 372 598.5 c 128,-1,35
 352 603 352 603 334 609 c 0,36,37
 289 624 289 624 258 624 c 0,38,39
 238 624 238 624 222 619 c 128,-1,40
 206 614 206 614 185 600 c 0,41,42
 176 595 176 595 173 595 c 0,43,44
 166 595 166 595 163 607 c 2,45,-1
 155 660 l 2,46,47
 154 662 154 662 153.5 665 c 128,-1,48
 153 668 153 668 153 672 c 0,49,50
 154 679 154 679 167 690 c 0,51,52
 190 709 190 709 213 719.5 c 128,-1,53
 236 730 236 730 268 730 c 0,54,55
 287 730 287 730 304.5 726 c 128,-1,56
 322 722 322 722 337.5 717.5 c 128,-1,57
 353 713 353 713 358 712 c 0,58,59
 403 697 403 697 425 697 c 0,60,61
 462 697 462 697 504 724 c 0,62,63
 510 728 510 728 516 728 c 0,64,65
 525 728 525 728 527 716 c 2,66,-1
 531 652 l 2,67,68
 532 649 532 649 531 645 c 0,69,70
 529 634 529 634 514 623 c 0,71,31
 495 611 495 611 467 602.5 c 128,-1,32
EndSplineSet
EndChar

StartChar: adieresis
Encoding: 228 228 165
Width: 582
GlyphClass: 2
Flags: W
AnchorPoint: "Anchor-5" -46 0 basechar 0
AnchorPoint: "Anchor-4" -46 0 basechar 0
AnchorPoint: "Anchor-3" 246 517 basechar 0
AnchorPoint: "Anchor-2" 452 10 basechar 0
LayerCount: 2
Fore
SplineSet
517 0 m 1,0,-1
 321 0 l 1,1,-1
 517 0 l 1,0,-1
321 0 m 1,2,-1
 329 48 l 1,3,4
 291 16 291 16 255 3 c 128,-1,5
 219 -10 219 -10 183 -10 c 0,6,7
 93 -10 93 -10 44 56 c 0,8,9
 -4 120 -4 120 15 260 c 0,10,11
 27 348 27 348 62.5 408 c 128,-1,12
 98 468 98 468 147.5 497.5 c 128,-1,13
 197 527 197 527 253 527 c 0,14,15
 291 527 291 527 326.5 514 c 128,-1,16
 362 501 362 501 388 477 c 1,17,-1
 394 517 l 1,18,-1
 590 517 l 1,19,-1
 516 0 l 1,20,-1
 321 0 l 1,2,-1
325 155 m 128,-1,22
 349 194 349 194 359 264 c 0,23,24
 378 400 378 400 308 400 c 0,25,26
 273 400 273 400 247.5 366 c 128,-1,27
 222 332 222 332 212 264 c 128,-1,28
 202 196 202 196 218 156 c 128,-1,29
 234 116 234 116 268 116 c 0,30,21
 301 116 301 116 325 155 c 128,-1,22
294 584 m 1,31,-1
 128 584 l 1,32,-1
 148 723 l 1,33,-1
 314 723 l 1,34,-1
 294 584 l 1,31,-1
528 584 m 1,35,-1
 362 584 l 1,36,-1
 382 723 l 1,37,-1
 548 723 l 1,38,-1
 528 584 l 1,35,-1
EndSplineSet
EndChar

StartChar: aring
Encoding: 229 229 166
Width: 582
GlyphClass: 2
Flags: W
AnchorPoint: "Anchor-5" -46 0 basechar 0
AnchorPoint: "Anchor-4" -46 0 basechar 0
AnchorPoint: "Anchor-3" 246 517 basechar 0
AnchorPoint: "Anchor-2" 452 10 basechar 0
LayerCount: 2
Fore
SplineSet
517 0 m 1,0,-1
 321 0 l 1,1,-1
 517 0 l 1,0,-1
321 0 m 1,2,-1
 329 48 l 1,3,4
 291 16 291 16 255 3 c 128,-1,5
 219 -10 219 -10 183 -10 c 0,6,7
 93 -10 93 -10 44 56 c 0,8,9
 -4 120 -4 120 15 260 c 0,10,11
 27 348 27 348 62.5 408 c 128,-1,12
 98 468 98 468 147.5 497.5 c 128,-1,13
 197 527 197 527 253 527 c 0,14,15
 291 527 291 527 326.5 514 c 128,-1,16
 362 501 362 501 388 477 c 1,17,-1
 394 517 l 1,18,-1
 590 517 l 1,19,-1
 516 0 l 1,20,-1
 321 0 l 1,2,-1
325 155 m 128,-1,22
 349 194 349 194 359 264 c 0,23,24
 378 400 378 400 308 400 c 0,25,26
 273 400 273 400 247.5 366 c 128,-1,27
 222 332 222 332 212 264 c 128,-1,28
 202 196 202 196 218 156 c 128,-1,29
 234 116 234 116 268 116 c 0,30,21
 301 116 301 116 325 155 c 128,-1,22
410 592 m 128,-1,32
 372 559 372 559 325 559 c 0,33,34
 277 559 277 559 248.5 592.5 c 128,-1,35
 220 626 220 626 227 675 c 0,36,37
 233 721 233 721 271.5 753 c 128,-1,38
 310 785 310 785 357 785 c 128,-1,39
 404 785 404 785 433 752 c 128,-1,40
 462 719 462 719 455 673 c 0,41,31
 448 625 448 625 410 592 c 128,-1,32
377 705 m 128,-1,43
 365 718 365 718 346 718 c 0,44,45
 326 718 326 718 310.5 704.5 c 128,-1,46
 295 691 295 691 292 672 c 128,-1,47
 289 653 289 653 301.5 638.5 c 128,-1,48
 314 624 314 624 333 624 c 128,-1,49
 352 624 352 624 367.5 638.5 c 128,-1,50
 383 653 383 653 386 672 c 0,51,42
 389 692 389 692 377 705 c 128,-1,43
EndSplineSet
EndChar

StartChar: ae
Encoding: 230 230 167
Width: 904
GlyphClass: 2
Flags: W
AnchorPoint: "Anchor-5" -46 0 basechar 0
AnchorPoint: "Anchor-4" -46 0 basechar 0
AnchorPoint: "Anchor-3" 406 517 basechar 0
AnchorPoint: "Anchor-2" -46 0 basechar 0
LayerCount: 2
Fore
SplineSet
548.5 145.5 m 128,-1,1
 573 119 573 119 617 119 c 0,2,3
 645 119 645 119 673 132.5 c 128,-1,4
 701 146 701 146 739 180 c 1,5,-1
 851 132 l 1,6,7
 786 51 786 51 724 20.5 c 128,-1,8
 662 -10 662 -10 573 -10 c 0,9,10
 512 -10 512 -10 462 11 c 128,-1,11
 412 32 412 32 381 69 c 0,12,13
 376 75 376 75 371 69 c 0,14,15
 320 27 320 27 267.5 8.5 c 128,-1,16
 215 -10 215 -10 147 -10 c 0,17,18
 66 -10 66 -10 27.5 30.5 c 128,-1,19
 -11 71 -11 71 -1 139 c 0,20,21
 10 219 10 219 88 267.5 c 128,-1,22
 166 316 166 316 305 323 c 2,23,-1
 346 325 l 1,24,-1
 350 354 l 2,25,26
 358 410 358 410 301 410 c 0,27,28
 240 410 240 410 209 350 c 1,29,-1
 46 383 l 1,30,31
 74 433 74 433 108 464 c 128,-1,32
 142 495 142 495 193.5 511 c 128,-1,33
 245 527 245 527 321 527 c 0,34,35
 445 526 445 526 498 488 c 1,36,37
 569 527 569 527 644 527 c 0,38,39
 721 527 721 527 776 490.5 c 128,-1,40
 831 454 831 454 855.5 385.5 c 128,-1,41
 880 317 880 317 866 223 c 1,42,-1
 531 223 l 1,43,0
 524 172 524 172 548.5 145.5 c 128,-1,1
579 389.5 m 128,-1,45
 554 367 554 367 549 325 c 1,46,-1
 692 324 l 1,47,48
 696 353 696 353 683 382.5 c 128,-1,49
 670 412 670 412 637 412 c 128,-1,44
 604 412 604 412 579 389.5 c 128,-1,45
301 227 m 2,50,51
 266 224 266 224 230.5 204 c 128,-1,52
 195 184 195 184 190 152 c 0,53,54
 187 130 187 130 200.5 117.5 c 128,-1,55
 214 105 214 105 242 105 c 0,56,57
 271 105 271 105 295 119 c 128,-1,58
 319 133 319 133 322 156 c 2,59,-1
 332 229 l 1,60,-1
 301 227 l 2,50,51
EndSplineSet
EndChar

StartChar: ccedilla
Encoding: 231 231 168
Width: 535
GlyphClass: 2
Flags: W
AnchorPoint: "Anchor-5" -46 0 basechar 0
AnchorPoint: "Anchor-4" 238 0 basechar 0
AnchorPoint: "Anchor-3" 239 517 basechar 0
AnchorPoint: "Anchor-2" -46 0 basechar 0
LayerCount: 2
Fore
SplineSet
429.5 496.5 m 128,-1,1
 476 466 476 466 495.5 416 c 128,-1,2
 515 366 515 366 509 306 c 1,3,-1
 351 306 l 1,4,5
 351 336 351 336 339 359.5 c 128,-1,6
 327 383 327 383 294 383 c 0,7,8
 256 383 256 383 229 351 c 128,-1,9
 202 319 202 319 193 258 c 0,10,11
 184 196 184 196 203.5 160 c 128,-1,12
 223 124 223 124 261 124 c 0,13,14
 293 124 293 124 311.5 149 c 128,-1,15
 330 174 330 174 338 200 c 1,16,-1
 491 200 l 1,17,18
 483 144 483 144 449.5 96 c 128,-1,19
 416 48 416 48 361 19 c 128,-1,20
 306 -10 306 -10 238 -10 c 0,21,22
 164 -10 164 -10 109 23.5 c 128,-1,23
 54 57 54 57 28.5 117.5 c 128,-1,24
 3 178 3 178 14 256 c 0,25,26
 25 335 25 335 67.5 396.5 c 128,-1,27
 110 458 110 458 174.5 492.5 c 128,-1,28
 239 527 239 527 313 527 c 0,29,0
 383 527 383 527 429.5 496.5 c 128,-1,1
307.5 -195.5 m 128,-1,31
 266 -219 266 -219 212 -219 c 0,32,33
 128 -219 128 -219 83 -190 c 1,34,-1
 116 -131 l 1,35,36
 160 -157 160 -157 197 -157 c 0,37,38
 217 -157 217 -157 231 -150 c 128,-1,39
 245 -143 245 -143 247 -131 c 0,40,41
 250 -112 250 -112 230.5 -102.5 c 128,-1,42
 211 -93 211 -93 163 -93 c 0,43,44
 155 -93 155 -93 152.5 -91 c 128,-1,45
 150 -89 150 -89 155 -81 c 2,46,-1
 204 5 l 1,47,-1
 283 5 l 1,48,-1
 254 -52 l 1,49,50
 310 -52 310 -52 334.5 -77 c 128,-1,51
 359 -102 359 -102 354 -134 c 0,52,30
 349 -172 349 -172 307.5 -195.5 c 128,-1,31
EndSplineSet
EndChar

StartChar: egrave
Encoding: 232 232 169
Width: 566
GlyphClass: 2
Flags: W
AnchorPoint: "Anchor-5" -46 0 basechar 0
AnchorPoint: "Anchor-4" 245 0 basechar 0
AnchorPoint: "Anchor-3" 242 517 basechar 0
AnchorPoint: "Anchor-2" 370 25 basechar 0
LayerCount: 2
Fore
SplineSet
210 148 m 128,-1,1
 228 126 228 126 262 126 c 0,2,3
 292 126 292 126 313.5 137 c 128,-1,4
 335 148 335 148 350 176 c 1,5,-1
 522 176 l 1,6,7
 506 121 506 121 463.5 78.5 c 128,-1,8
 421 36 421 36 363.5 13 c 128,-1,9
 306 -10 306 -10 248 -10 c 0,10,11
 168 -10 168 -10 111 22.5 c 128,-1,12
 54 55 54 55 28 114.5 c 128,-1,13
 2 174 2 174 13 252 c 0,14,15
 24 327 24 327 64.5 390 c 128,-1,16
 105 453 105 453 170 490 c 128,-1,17
 235 527 235 527 315 527 c 0,18,19
 397 527 397 527 449 492.5 c 128,-1,20
 501 458 501 458 521.5 397.5 c 128,-1,21
 542 337 542 337 531 259 c 2,22,-1
 525 214 l 1,23,-1
 199 214 l 1,24,0
 192 170 192 170 210 148 c 128,-1,1
361 323 m 1,25,26
 365 354 365 354 348.5 375 c 128,-1,27
 332 396 332 396 297 396 c 0,28,29
 267 396 267 396 242 374 c 128,-1,30
 217 352 217 352 213 323 c 1,31,-1
 361 323 l 1,25,26
480 628 m 1,32,-1
 443 551 l 1,33,-1
 176 617 l 1,34,-1
 234 735 l 1,35,-1
 480 628 l 1,32,-1
EndSplineSet
EndChar

StartChar: eacute
Encoding: 233 233 170
Width: 566
GlyphClass: 2
Flags: W
AnchorPoint: "Anchor-5" -46 0 basechar 0
AnchorPoint: "Anchor-4" 245 0 basechar 0
AnchorPoint: "Anchor-3" 242 517 basechar 0
AnchorPoint: "Anchor-2" 370 25 basechar 0
LayerCount: 2
Fore
SplineSet
210 148 m 128,-1,1
 228 126 228 126 262 126 c 0,2,3
 292 126 292 126 313.5 137 c 128,-1,4
 335 148 335 148 350 176 c 1,5,-1
 522 176 l 1,6,7
 506 121 506 121 463.5 78.5 c 128,-1,8
 421 36 421 36 363.5 13 c 128,-1,9
 306 -10 306 -10 248 -10 c 0,10,11
 168 -10 168 -10 111 22.5 c 128,-1,12
 54 55 54 55 28 114.5 c 128,-1,13
 2 174 2 174 13 252 c 0,14,15
 24 327 24 327 64.5 390 c 128,-1,16
 105 453 105 453 170 490 c 128,-1,17
 235 527 235 527 315 527 c 0,18,19
 397 527 397 527 449 492.5 c 128,-1,20
 501 458 501 458 521.5 397.5 c 128,-1,21
 542 337 542 337 531 259 c 2,22,-1
 525 214 l 1,23,-1
 199 214 l 1,24,0
 192 170 192 170 210 148 c 128,-1,1
361 323 m 1,25,26
 365 354 365 354 348.5 375 c 128,-1,27
 332 396 332 396 297 396 c 0,28,29
 267 396 267 396 242 374 c 128,-1,30
 217 352 217 352 213 323 c 1,31,-1
 361 323 l 1,25,26
482 617 m 1,32,-1
 195 551 l 1,33,-1
 180 628 l 1,34,-1
 457 735 l 1,35,-1
 482 617 l 1,32,-1
EndSplineSet
EndChar

StartChar: ecircumflex
Encoding: 234 234 171
Width: 566
GlyphClass: 2
Flags: W
AnchorPoint: "Anchor-5" -46 0 basechar 0
AnchorPoint: "Anchor-4" 245 0 basechar 0
AnchorPoint: "Anchor-3" 242 517 basechar 0
AnchorPoint: "Anchor-2" 370 25 basechar 0
LayerCount: 2
Fore
SplineSet
210 148 m 128,-1,1
 228 126 228 126 262 126 c 0,2,3
 292 126 292 126 313.5 137 c 128,-1,4
 335 148 335 148 350 176 c 1,5,-1
 522 176 l 1,6,7
 506 121 506 121 463.5 78.5 c 128,-1,8
 421 36 421 36 363.5 13 c 128,-1,9
 306 -10 306 -10 248 -10 c 0,10,11
 168 -10 168 -10 111 22.5 c 128,-1,12
 54 55 54 55 28 114.5 c 128,-1,13
 2 174 2 174 13 252 c 0,14,15
 24 327 24 327 64.5 390 c 128,-1,16
 105 453 105 453 170 490 c 128,-1,17
 235 527 235 527 315 527 c 0,18,19
 397 527 397 527 449 492.5 c 128,-1,20
 501 458 501 458 521.5 397.5 c 128,-1,21
 542 337 542 337 531 259 c 2,22,-1
 525 214 l 1,23,-1
 199 214 l 1,24,0
 192 170 192 170 210 148 c 128,-1,1
361 323 m 1,25,26
 365 354 365 354 348.5 375 c 128,-1,27
 332 396 332 396 297 396 c 0,28,29
 267 396 267 396 242 374 c 128,-1,30
 217 352 217 352 213 323 c 1,31,-1
 361 323 l 1,25,26
334 662 m 1,32,-1
 252 580 l 1,33,-1
 120 580 l 1,34,-1
 279 733 l 1,35,-1
 411 733 l 1,36,-1
 524 580 l 1,37,-1
 385 580 l 1,38,-1
 334 662 l 1,32,-1
EndSplineSet
EndChar

StartChar: edieresis
Encoding: 235 235 172
Width: 566
GlyphClass: 2
Flags: W
AnchorPoint: "Anchor-5" -46 0 basechar 0
AnchorPoint: "Anchor-4" 245 0 basechar 0
AnchorPoint: "Anchor-3" 242 517 basechar 0
AnchorPoint: "Anchor-2" 370 25 basechar 0
LayerCount: 2
Fore
SplineSet
210 148 m 128,-1,1
 228 126 228 126 262 126 c 0,2,3
 292 126 292 126 313.5 137 c 128,-1,4
 335 148 335 148 350 176 c 1,5,-1
 522 176 l 1,6,7
 506 121 506 121 463.5 78.5 c 128,-1,8
 421 36 421 36 363.5 13 c 128,-1,9
 306 -10 306 -10 248 -10 c 0,10,11
 168 -10 168 -10 111 22.5 c 128,-1,12
 54 55 54 55 28 114.5 c 128,-1,13
 2 174 2 174 13 252 c 0,14,15
 24 327 24 327 64.5 390 c 128,-1,16
 105 453 105 453 170 490 c 128,-1,17
 235 527 235 527 315 527 c 0,18,19
 397 527 397 527 449 492.5 c 128,-1,20
 501 458 501 458 521.5 397.5 c 128,-1,21
 542 337 542 337 531 259 c 2,22,-1
 525 214 l 1,23,-1
 199 214 l 1,24,0
 192 170 192 170 210 148 c 128,-1,1
361 323 m 1,25,26
 365 354 365 354 348.5 375 c 128,-1,27
 332 396 332 396 297 396 c 0,28,29
 267 396 267 396 242 374 c 128,-1,30
 217 352 217 352 213 323 c 1,31,-1
 361 323 l 1,25,26
290 584 m 1,32,-1
 124 584 l 1,33,-1
 144 723 l 1,34,-1
 310 723 l 1,35,-1
 290 584 l 1,32,-1
524 584 m 1,36,-1
 358 584 l 1,37,-1
 378 723 l 1,38,-1
 544 723 l 1,39,-1
 524 584 l 1,36,-1
EndSplineSet
EndChar

StartChar: igrave
Encoding: 236 236 173
Width: 307
GlyphClass: 2
Flags: W
AnchorPoint: "Anchor-5" -46 0 basechar 0
AnchorPoint: "Anchor-4" -46 0 basechar 0
AnchorPoint: "Anchor-3" 111 517 basechar 0
AnchorPoint: "Anchor-2" 177 9 basechar 0
LayerCount: 2
Fore
SplineSet
205 0 m 1,0,-1
 10 0 l 1,1,-1
 83 517 l 1,2,-1
 278 517 l 1,3,-1
 205 0 l 1,0,-1
349 628 m 1,4,-1
 312 551 l 1,5,-1
 45 617 l 1,6,-1
 103 735 l 1,7,-1
 349 628 l 1,4,-1
EndSplineSet
EndChar

StartChar: iacute
Encoding: 237 237 174
Width: 307
GlyphClass: 2
Flags: W
AnchorPoint: "Anchor-5" -46 0 basechar 0
AnchorPoint: "Anchor-4" -46 0 basechar 0
AnchorPoint: "Anchor-3" 111 517 basechar 0
AnchorPoint: "Anchor-2" 177 9 basechar 0
LayerCount: 2
Fore
SplineSet
205 0 m 1,0,-1
 10 0 l 1,1,-1
 83 517 l 1,2,-1
 278 517 l 1,3,-1
 205 0 l 1,0,-1
351 617 m 1,4,-1
 64 551 l 1,5,-1
 49 628 l 1,6,-1
 326 735 l 1,7,-1
 351 617 l 1,4,-1
EndSplineSet
EndChar

StartChar: icircumflex
Encoding: 238 238 175
Width: 307
GlyphClass: 2
Flags: W
AnchorPoint: "Anchor-5" -46 0 basechar 0
AnchorPoint: "Anchor-4" -46 0 basechar 0
AnchorPoint: "Anchor-3" 111 517 basechar 0
AnchorPoint: "Anchor-2" 177 9 basechar 0
LayerCount: 2
Fore
SplineSet
205 0 m 1,0,-1
 10 0 l 1,1,-1
 83 517 l 1,2,-1
 278 517 l 1,3,-1
 205 0 l 1,0,-1
203 662 m 1,4,-1
 121 580 l 1,5,-1
 -11 580 l 1,6,-1
 148 733 l 1,7,-1
 280 733 l 1,8,-1
 393 580 l 1,9,-1
 254 580 l 1,10,-1
 203 662 l 1,4,-1
EndSplineSet
EndChar

StartChar: idieresis
Encoding: 239 239 176
Width: 307
GlyphClass: 2
Flags: W
AnchorPoint: "Anchor-5" -46 0 basechar 0
AnchorPoint: "Anchor-4" -46 0 basechar 0
AnchorPoint: "Anchor-3" 111 517 basechar 0
AnchorPoint: "Anchor-2" 177 9 basechar 0
LayerCount: 2
Fore
SplineSet
205 0 m 1,0,-1
 10 0 l 1,1,-1
 83 517 l 1,2,-1
 278 517 l 1,3,-1
 205 0 l 1,0,-1
159 584 m 1,4,-1
 -7 584 l 1,5,-1
 13 723 l 1,6,-1
 179 723 l 1,7,-1
 159 584 l 1,4,-1
393 584 m 1,8,-1
 227 584 l 1,9,-1
 247 723 l 1,10,-1
 413 723 l 1,11,-1
 393 584 l 1,8,-1
EndSplineSet
EndChar

StartChar: eth
Encoding: 240 240 177
Width: 592
GlyphClass: 2
Flags: W
LayerCount: 2
Fore
SplineSet
505 123.5 m 128,-1,1
 462 59 462 59 395.5 24.5 c 128,-1,2
 329 -10 329 -10 248 -10 c 0,3,4
 170 -10 170 -10 112.5 23.5 c 128,-1,5
 55 57 55 57 28.5 115.5 c 128,-1,6
 2 174 2 174 13 246 c 0,7,8
 24 321 24 321 67.5 380.5 c 128,-1,9
 111 440 111 440 178 473.5 c 128,-1,10
 245 507 245 507 321 507 c 0,11,12
 326 507 326 507 324 512 c 0,13,14
 305 545 305 545 269 575 c 1,15,-1
 152 515 l 1,16,-1
 127 568 l 1,17,-1
 214 612 l 1,18,19
 173 635 173 635 126 651 c 1,20,-1
 238 734 l 1,21,22
 312 716 312 716 363 689 c 1,23,-1
 456 737 l 1,24,-1
 478 683 l 1,25,-1
 420 652 l 1,26,27
 502 588 502 588 539.5 489 c 128,-1,28
 577 390 577 390 561 275 c 0,29,0
 548 188 548 188 505 123.5 c 128,-1,1
327.5 148 m 128,-1,31
 350 181 350 181 360 250 c 0,32,33
 370 320 370 320 356.5 353 c 128,-1,34
 343 386 343 386 304 386 c 0,35,36
 266 386 266 386 243 352.5 c 128,-1,37
 220 319 220 319 210 250 c 128,-1,38
 200 181 200 181 214 148 c 128,-1,39
 228 115 228 115 266 115 c 0,40,30
 305 115 305 115 327.5 148 c 128,-1,31
EndSplineSet
EndChar

StartChar: ntilde
Encoding: 241 241 178
Width: 625
GlyphClass: 2
Flags: W
AnchorPoint: "Anchor-5" -46 0 basechar 0
AnchorPoint: "Anchor-4" 266 0 basechar 0
AnchorPoint: "Anchor-3" 266 517 basechar 0
AnchorPoint: "Anchor-2" -46 0 basechar 0
LayerCount: 2
Fore
SplineSet
83 517 m 1,0,-1
 276 517 l 1,1,-1
 267 455 l 1,2,3
 293 479 293 479 309.5 490.5 c 128,-1,4
 326 502 326 502 351.5 510.5 c 128,-1,5
 377 519 377 519 415 519 c 0,6,7
 460 519 460 519 499 496.5 c 128,-1,8
 538 474 538 474 558.5 435 c 128,-1,9
 579 396 579 396 572 349 c 2,10,-1
 523 0 l 1,11,-1
 328 0 l 1,12,-1
 373 323 l 2,13,14
 376 344 376 344 359.5 357 c 128,-1,15
 343 370 343 370 320 370 c 0,16,17
 296 370 296 370 274.5 357 c 128,-1,18
 253 344 253 344 250 323 c 2,19,-1
 205 0 l 1,20,-1
 10 0 l 1,21,-1
 83 517 l 1,0,-1
487 602.5 m 128,-1,23
 459 594 459 594 431 594 c 0,24,25
 412 594 412 594 392 598.5 c 128,-1,26
 372 603 372 603 354 609 c 0,27,28
 309 624 309 624 278 624 c 0,29,30
 258 624 258 624 242 619 c 128,-1,31
 226 614 226 614 205 600 c 0,32,33
 196 595 196 595 193 595 c 0,34,35
 186 595 186 595 183 607 c 2,36,-1
 175 660 l 2,37,38
 174 662 174 662 173.5 665 c 128,-1,39
 173 668 173 668 173 672 c 0,40,41
 174 679 174 679 187 690 c 0,42,43
 210 709 210 709 233 719.5 c 128,-1,44
 256 730 256 730 288 730 c 0,45,46
 307 730 307 730 324.5 726 c 128,-1,47
 342 722 342 722 357.5 717.5 c 128,-1,48
 373 713 373 713 378 712 c 0,49,50
 423 697 423 697 445 697 c 0,51,52
 482 697 482 697 524 724 c 0,53,54
 530 728 530 728 536 728 c 0,55,56
 545 728 545 728 547 716 c 2,57,-1
 551 652 l 2,58,59
 552 649 552 649 551 645 c 0,60,61
 549 634 549 634 534 623 c 0,62,22
 515 611 515 611 487 602.5 c 128,-1,23
EndSplineSet
EndChar

StartChar: ograve
Encoding: 242 242 179
Width: 573
GlyphClass: 2
Flags: W
AnchorPoint: "Anchor-5" -46 0 basechar 0
AnchorPoint: "Anchor-4" 238 0 basechar 0
AnchorPoint: "Anchor-3" 241 517 basechar 0
AnchorPoint: "Anchor-2" 317 10 basechar 0
LayerCount: 2
Fore
SplineSet
105 23.5 m 128,-1,1
 50 57 50 57 26.5 117.5 c 128,-1,2
 3 178 3 178 14 255 c 0,3,4
 25 335 25 335 67.5 397 c 128,-1,5
 110 459 110 459 174.5 493 c 128,-1,6
 239 527 239 527 315 527 c 0,7,8
 394 527 394 527 448.5 492 c 128,-1,9
 503 457 503 457 526.5 395 c 128,-1,10
 550 333 550 333 539 255 c 0,11,12
 528 178 528 178 487 118 c 128,-1,13
 446 58 446 58 382 24 c 128,-1,14
 318 -10 318 -10 239 -10 c 128,-1,0
 160 -10 160 -10 105 23.5 c 128,-1,1
322 170 m 128,-1,16
 343 209 343 209 351 262 c 0,17,18
 369 388 369 388 296 388 c 0,19,20
 222 388 222 388 204 262 c 0,21,22
 196 208 196 208 206.5 169.5 c 128,-1,23
 217 131 217 131 259 131 c 128,-1,15
 301 131 301 131 322 170 c 128,-1,16
479 628 m 1,24,-1
 442 551 l 1,25,-1
 175 617 l 1,26,-1
 233 735 l 1,27,-1
 479 628 l 1,24,-1
EndSplineSet
EndChar

StartChar: oacute
Encoding: 243 243 180
Width: 573
GlyphClass: 2
Flags: W
AnchorPoint: "Anchor-5" -46 0 basechar 0
AnchorPoint: "Anchor-4" 238 0 basechar 0
AnchorPoint: "Anchor-3" 241 517 basechar 0
AnchorPoint: "Anchor-2" 317 10 basechar 0
LayerCount: 2
Fore
SplineSet
105 23.5 m 128,-1,1
 50 57 50 57 26.5 117.5 c 128,-1,2
 3 178 3 178 14 255 c 0,3,4
 25 335 25 335 67.5 397 c 128,-1,5
 110 459 110 459 174.5 493 c 128,-1,6
 239 527 239 527 315 527 c 0,7,8
 394 527 394 527 448.5 492 c 128,-1,9
 503 457 503 457 526.5 395 c 128,-1,10
 550 333 550 333 539 255 c 0,11,12
 528 178 528 178 487 118 c 128,-1,13
 446 58 446 58 382 24 c 128,-1,14
 318 -10 318 -10 239 -10 c 128,-1,0
 160 -10 160 -10 105 23.5 c 128,-1,1
322 170 m 128,-1,16
 343 209 343 209 351 262 c 0,17,18
 369 388 369 388 296 388 c 0,19,20
 222 388 222 388 204 262 c 0,21,22
 196 208 196 208 206.5 169.5 c 128,-1,23
 217 131 217 131 259 131 c 128,-1,15
 301 131 301 131 322 170 c 128,-1,16
481 617 m 1,24,-1
 194 551 l 1,25,-1
 179 628 l 1,26,-1
 456 735 l 1,27,-1
 481 617 l 1,24,-1
EndSplineSet
EndChar

StartChar: ocircumflex
Encoding: 244 244 181
Width: 573
GlyphClass: 2
Flags: W
AnchorPoint: "Anchor-5" -46 0 basechar 0
AnchorPoint: "Anchor-4" 238 0 basechar 0
AnchorPoint: "Anchor-3" 241 517 basechar 0
AnchorPoint: "Anchor-2" 317 10 basechar 0
LayerCount: 2
Fore
SplineSet
105 23.5 m 128,-1,1
 50 57 50 57 26.5 117.5 c 128,-1,2
 3 178 3 178 14 255 c 0,3,4
 25 335 25 335 67.5 397 c 128,-1,5
 110 459 110 459 174.5 493 c 128,-1,6
 239 527 239 527 315 527 c 0,7,8
 394 527 394 527 448.5 492 c 128,-1,9
 503 457 503 457 526.5 395 c 128,-1,10
 550 333 550 333 539 255 c 0,11,12
 528 178 528 178 487 118 c 128,-1,13
 446 58 446 58 382 24 c 128,-1,14
 318 -10 318 -10 239 -10 c 128,-1,0
 160 -10 160 -10 105 23.5 c 128,-1,1
322 170 m 128,-1,16
 343 209 343 209 351 262 c 0,17,18
 369 388 369 388 296 388 c 0,19,20
 222 388 222 388 204 262 c 0,21,22
 196 208 196 208 206.5 169.5 c 128,-1,23
 217 131 217 131 259 131 c 128,-1,15
 301 131 301 131 322 170 c 128,-1,16
333 662 m 1,24,-1
 251 580 l 1,25,-1
 119 580 l 1,26,-1
 278 733 l 1,27,-1
 410 733 l 1,28,-1
 523 580 l 1,29,-1
 384 580 l 1,30,-1
 333 662 l 1,24,-1
EndSplineSet
EndChar

StartChar: otilde
Encoding: 245 245 182
Width: 573
GlyphClass: 2
Flags: W
AnchorPoint: "Anchor-5" -46 0 basechar 0
AnchorPoint: "Anchor-4" 238 0 basechar 0
AnchorPoint: "Anchor-3" 241 517 basechar 0
AnchorPoint: "Anchor-2" 317 10 basechar 0
LayerCount: 2
Fore
SplineSet
105 23.5 m 128,-1,1
 50 57 50 57 26.5 117.5 c 128,-1,2
 3 178 3 178 14 255 c 0,3,4
 25 335 25 335 67.5 397 c 128,-1,5
 110 459 110 459 174.5 493 c 128,-1,6
 239 527 239 527 315 527 c 0,7,8
 394 527 394 527 448.5 492 c 128,-1,9
 503 457 503 457 526.5 395 c 128,-1,10
 550 333 550 333 539 255 c 0,11,12
 528 178 528 178 487 118 c 128,-1,13
 446 58 446 58 382 24 c 128,-1,14
 318 -10 318 -10 239 -10 c 128,-1,0
 160 -10 160 -10 105 23.5 c 128,-1,1
322 170 m 128,-1,16
 343 209 343 209 351 262 c 0,17,18
 369 388 369 388 296 388 c 0,19,20
 222 388 222 388 204 262 c 0,21,22
 196 208 196 208 206.5 169.5 c 128,-1,23
 217 131 217 131 259 131 c 128,-1,15
 301 131 301 131 322 170 c 128,-1,16
462 602.5 m 128,-1,25
 434 594 434 594 406 594 c 0,26,27
 387 594 387 594 367 598.5 c 128,-1,28
 347 603 347 603 329 609 c 0,29,30
 284 624 284 624 253 624 c 0,31,32
 233 624 233 624 217 619 c 128,-1,33
 201 614 201 614 180 600 c 0,34,35
 171 595 171 595 168 595 c 0,36,37
 161 595 161 595 158 607 c 2,38,-1
 150 660 l 2,39,40
 149 662 149 662 148.5 665 c 128,-1,41
 148 668 148 668 148 672 c 0,42,43
 149 679 149 679 162 690 c 0,44,45
 185 709 185 709 208 719.5 c 128,-1,46
 231 730 231 730 263 730 c 0,47,48
 282 730 282 730 299.5 726 c 128,-1,49
 317 722 317 722 332.5 717.5 c 128,-1,50
 348 713 348 713 353 712 c 0,51,52
 398 697 398 697 420 697 c 0,53,54
 457 697 457 697 499 724 c 0,55,56
 505 728 505 728 511 728 c 0,57,58
 520 728 520 728 522 716 c 2,59,-1
 526 652 l 2,60,61
 527 649 527 649 526 645 c 0,62,63
 524 634 524 634 509 623 c 0,64,24
 490 611 490 611 462 602.5 c 128,-1,25
EndSplineSet
EndChar

StartChar: odieresis
Encoding: 246 246 183
Width: 573
GlyphClass: 2
Flags: W
AnchorPoint: "Anchor-5" -46 0 basechar 0
AnchorPoint: "Anchor-4" 238 0 basechar 0
AnchorPoint: "Anchor-3" 241 517 basechar 0
AnchorPoint: "Anchor-2" 317 10 basechar 0
LayerCount: 2
Fore
SplineSet
105 23.5 m 128,-1,1
 50 57 50 57 26.5 117.5 c 128,-1,2
 3 178 3 178 14 255 c 0,3,4
 25 335 25 335 67.5 397 c 128,-1,5
 110 459 110 459 174.5 493 c 128,-1,6
 239 527 239 527 315 527 c 0,7,8
 394 527 394 527 448.5 492 c 128,-1,9
 503 457 503 457 526.5 395 c 128,-1,10
 550 333 550 333 539 255 c 0,11,12
 528 178 528 178 487 118 c 128,-1,13
 446 58 446 58 382 24 c 128,-1,14
 318 -10 318 -10 239 -10 c 128,-1,0
 160 -10 160 -10 105 23.5 c 128,-1,1
322 170 m 128,-1,16
 343 209 343 209 351 262 c 0,17,18
 369 388 369 388 296 388 c 0,19,20
 222 388 222 388 204 262 c 0,21,22
 196 208 196 208 206.5 169.5 c 128,-1,23
 217 131 217 131 259 131 c 128,-1,15
 301 131 301 131 322 170 c 128,-1,16
289 584 m 1,24,-1
 123 584 l 1,25,-1
 143 723 l 1,26,-1
 309 723 l 1,27,-1
 289 584 l 1,24,-1
523 584 m 1,28,-1
 357 584 l 1,29,-1
 377 723 l 1,30,-1
 543 723 l 1,31,-1
 523 584 l 1,28,-1
EndSplineSet
EndChar

StartChar: divide
Encoding: 247 247 184
Width: 611
GlyphClass: 2
Flags: W
LayerCount: 2
Fore
SplineSet
417 491 m 1,0,-1
 232 491 l 1,1,-1
 257 669 l 1,2,-1
 442 669 l 1,3,-1
 417 491 l 1,0,-1
550 295 m 1,4,-1
 41 295 l 1,5,-1
 61 433 l 1,6,-1
 570 433 l 1,7,-1
 550 295 l 1,4,-1
356 59 m 1,8,-1
 171 59 l 1,9,-1
 196 237 l 1,10,-1
 381 237 l 1,11,-1
 356 59 l 1,8,-1
EndSplineSet
EndChar

StartChar: oslash
Encoding: 248 248 185
Width: 612
GlyphClass: 2
Flags: W
AnchorPoint: "Anchor-5" -46 0 basechar 0
AnchorPoint: "Anchor-4" 252 0 basechar 0
AnchorPoint: "Anchor-3" 255 517 basechar 0
AnchorPoint: "Anchor-2" 331 10 basechar 0
LayerCount: 2
Fore
SplineSet
535 408 m 1,0,1
 565 341 565 341 553 255 c 0,2,3
 542 178 542 178 501 118 c 128,-1,4
 460 58 460 58 396 24 c 128,-1,5
 332 -10 332 -10 253 -10 c 0,6,7
 154 -10 154 -10 92 43 c 1,8,-1
 29 -9 l 1,9,-1
 -21 53 l 1,10,-1
 45 107 l 1,11,12
 16 169 16 169 28 255 c 0,13,14
 39 335 39 335 81.5 397 c 128,-1,15
 124 459 124 459 188.5 493 c 128,-1,16
 253 527 253 527 329 527 c 0,17,18
 429 527 429 527 489 472 c 1,19,-1
 554 525 l 1,20,-1
 602 463 l 1,21,-1
 535 408 l 1,0,1
216 247 m 1,22,-1
 356 363 l 1,23,24
 342 388 342 388 310 388 c 0,25,26
 236 388 236 388 218 262 c 2,27,-1
 216 247 l 1,22,-1
366 268 m 1,28,-1
 228 155 l 1,29,30
 243 131 243 131 273 131 c 0,31,32
 315 131 315 131 336 170 c 128,-1,33
 357 209 357 209 365 262 c 2,34,-1
 366 268 l 1,28,-1
EndSplineSet
EndChar

StartChar: ugrave
Encoding: 249 249 186
Width: 625
GlyphClass: 2
Flags: W
AnchorPoint: "Anchor-5" -46 0 basechar 0
AnchorPoint: "Anchor-4" 267 0 basechar 0
AnchorPoint: "Anchor-3" 266 517 basechar 0
AnchorPoint: "Anchor-2" 492 10 basechar 0
LayerCount: 2
Fore
SplineSet
114 10 m 128,-1,1
 72 30 72 30 48.5 67 c 128,-1,2
 25 104 25 104 32 153 c 2,3,-1
 83 517 l 1,4,-1
 278 517 l 1,5,-1
 230 180 l 2,6,7
 227 157 227 157 241 142 c 128,-1,8
 255 127 255 127 283 127 c 128,-1,9
 311 127 311 127 329.5 142 c 128,-1,10
 348 157 348 157 351 180 c 2,11,-1
 399 517 l 1,12,-1
 596 517 l 1,13,-1
 519 0 l 1,14,-1
 375 0 l 1,15,-1
 371 68 l 1,16,17
 342 29 342 29 293 9.5 c 128,-1,18
 244 -10 244 -10 200 -10 c 128,-1,0
 156 -10 156 -10 114 10 c 128,-1,1
504 628 m 1,19,-1
 467 551 l 1,20,-1
 200 617 l 1,21,-1
 258 735 l 1,22,-1
 504 628 l 1,19,-1
EndSplineSet
EndChar

StartChar: uacute
Encoding: 250 250 187
Width: 625
GlyphClass: 2
Flags: W
AnchorPoint: "Anchor-5" -46 0 basechar 0
AnchorPoint: "Anchor-4" 267 0 basechar 0
AnchorPoint: "Anchor-3" 266 517 basechar 0
AnchorPoint: "Anchor-2" 492 10 basechar 0
LayerCount: 2
Fore
SplineSet
114 10 m 128,-1,1
 72 30 72 30 48.5 67 c 128,-1,2
 25 104 25 104 32 153 c 2,3,-1
 83 517 l 1,4,-1
 278 517 l 1,5,-1
 230 180 l 2,6,7
 227 157 227 157 241 142 c 128,-1,8
 255 127 255 127 283 127 c 128,-1,9
 311 127 311 127 329.5 142 c 128,-1,10
 348 157 348 157 351 180 c 2,11,-1
 399 517 l 1,12,-1
 596 517 l 1,13,-1
 519 0 l 1,14,-1
 375 0 l 1,15,-1
 371 68 l 1,16,17
 342 29 342 29 293 9.5 c 128,-1,18
 244 -10 244 -10 200 -10 c 128,-1,0
 156 -10 156 -10 114 10 c 128,-1,1
506 617 m 1,19,-1
 219 551 l 1,20,-1
 204 628 l 1,21,-1
 481 735 l 1,22,-1
 506 617 l 1,19,-1
EndSplineSet
EndChar

StartChar: ucircumflex
Encoding: 251 251 188
Width: 625
GlyphClass: 2
Flags: W
AnchorPoint: "Anchor-5" -46 0 basechar 0
AnchorPoint: "Anchor-4" 267 0 basechar 0
AnchorPoint: "Anchor-3" 266 517 basechar 0
AnchorPoint: "Anchor-2" 492 10 basechar 0
LayerCount: 2
Fore
SplineSet
114 10 m 128,-1,1
 72 30 72 30 48.5 67 c 128,-1,2
 25 104 25 104 32 153 c 2,3,-1
 83 517 l 1,4,-1
 278 517 l 1,5,-1
 230 180 l 2,6,7
 227 157 227 157 241 142 c 128,-1,8
 255 127 255 127 283 127 c 128,-1,9
 311 127 311 127 329.5 142 c 128,-1,10
 348 157 348 157 351 180 c 2,11,-1
 399 517 l 1,12,-1
 596 517 l 1,13,-1
 519 0 l 1,14,-1
 375 0 l 1,15,-1
 371 68 l 1,16,17
 342 29 342 29 293 9.5 c 128,-1,18
 244 -10 244 -10 200 -10 c 128,-1,0
 156 -10 156 -10 114 10 c 128,-1,1
358 662 m 1,19,-1
 276 580 l 1,20,-1
 144 580 l 1,21,-1
 303 733 l 1,22,-1
 435 733 l 1,23,-1
 548 580 l 1,24,-1
 409 580 l 1,25,-1
 358 662 l 1,19,-1
EndSplineSet
EndChar

StartChar: udieresis
Encoding: 252 252 189
Width: 625
GlyphClass: 2
Flags: W
AnchorPoint: "Anchor-5" -46 0 basechar 0
AnchorPoint: "Anchor-4" 267 0 basechar 0
AnchorPoint: "Anchor-3" 266 517 basechar 0
AnchorPoint: "Anchor-2" 492 10 basechar 0
LayerCount: 2
Fore
SplineSet
114 10 m 128,-1,1
 72 30 72 30 48.5 67 c 128,-1,2
 25 104 25 104 32 153 c 2,3,-1
 83 517 l 1,4,-1
 278 517 l 1,5,-1
 230 180 l 2,6,7
 227 157 227 157 241 142 c 128,-1,8
 255 127 255 127 283 127 c 128,-1,9
 311 127 311 127 329.5 142 c 128,-1,10
 348 157 348 157 351 180 c 2,11,-1
 399 517 l 1,12,-1
 596 517 l 1,13,-1
 519 0 l 1,14,-1
 375 0 l 1,15,-1
 371 68 l 1,16,17
 342 29 342 29 293 9.5 c 128,-1,18
 244 -10 244 -10 200 -10 c 128,-1,0
 156 -10 156 -10 114 10 c 128,-1,1
314 584 m 1,19,-1
 148 584 l 1,20,-1
 168 723 l 1,21,-1
 334 723 l 1,22,-1
 314 584 l 1,19,-1
548 584 m 1,23,-1
 382 584 l 1,24,-1
 402 723 l 1,25,-1
 568 723 l 1,26,-1
 548 584 l 1,23,-1
EndSplineSet
EndChar

StartChar: yacute
Encoding: 253 253 190
Width: 603
GlyphClass: 2
Flags: W
AnchorPoint: "Anchor-5" -46 0 basechar 0
AnchorPoint: "Anchor-4" -46 0 basechar 0
AnchorPoint: "Anchor-3" 280 517 basechar 0
AnchorPoint: "Anchor-2" -46 0 basechar 0
LayerCount: 2
Fore
SplineSet
36.5 -160 m 128,-1,1
 12 -155 12 -155 1 -150 c 128,-1,2
 -10 -145 -10 -145 -13 -143 c 2,3,-1
 4 -20 l 1,4,-1
 54 -23 l 2,5,6
 62 -24 62 -24 77 -24 c 0,7,8
 112 -24 112 -24 131.5 -15.5 c 128,-1,9
 151 -7 151 -7 156.5 1 c 128,-1,10
 162 9 162 9 168 20 c 2,11,-1
 171 30 l 1,12,-1
 39 517 l 1,13,-1
 230 517 l 1,14,-1
 288 236 l 1,15,-1
 430 517 l 1,16,-1
 620 517 l 1,17,-1
 349 30 l 2,18,19
 306 -49 306 -49 265.5 -91.5 c 128,-1,20
 225 -134 225 -134 185.5 -149.5 c 128,-1,21
 146 -165 146 -165 97 -165 c 0,22,0
 61 -165 61 -165 36.5 -160 c 128,-1,1
520 617 m 1,23,-1
 233 551 l 1,24,-1
 218 628 l 1,25,-1
 495 735 l 1,26,-1
 520 617 l 1,23,-1
EndSplineSet
EndChar

StartChar: thorn
Encoding: 254 254 191
Width: 618
GlyphClass: 2
Flags: W
LayerCount: 2
Fore
SplineSet
270 457 m 1,0,1
 308 492 308 492 345.5 509.5 c 128,-1,2
 383 527 383 527 431 527 c 0,3,4
 516 527 516 527 559.5 459.5 c 128,-1,5
 603 392 603 392 585 260 c 0,6,7
 565 121 565 121 501.5 55.5 c 128,-1,8
 438 -10 438 -10 349 -10 c 0,9,10
 313 -10 313 -10 284.5 1 c 128,-1,11
 256 12 256 12 231 40 c 0,12,13
 221 50 221 50 217 50 c 0,14,15
 212 50 212 50 210 35 c 2,16,-1
 182 -161 l 1,17,-1
 -13 -161 l 1,18,-1
 112 723 l 1,19,-1
 308 723 l 1,20,-1
 270 457 l 1,0,1
288 108 m 0,21,22
 327 108 327 108 351.5 142.5 c 128,-1,23
 376 177 376 177 388 266 c 0,24,25
 399 347 399 347 384.5 378 c 128,-1,26
 370 409 370 409 330 409 c 0,27,28
 301 409 301 409 279.5 393 c 128,-1,29
 258 377 258 377 255 354 c 2,30,-1
 226 147 l 1,31,32
 247 108 247 108 288 108 c 0,21,22
EndSplineSet
EndChar

StartChar: ydieresis
Encoding: 255 255 192
Width: 603
GlyphClass: 2
Flags: W
AnchorPoint: "Anchor-5" -46 0 basechar 0
AnchorPoint: "Anchor-4" -46 0 basechar 0
AnchorPoint: "Anchor-3" 280 517 basechar 0
AnchorPoint: "Anchor-2" -46 0 basechar 0
LayerCount: 2
Fore
SplineSet
36.5 -160 m 128,-1,1
 12 -155 12 -155 1 -150 c 128,-1,2
 -10 -145 -10 -145 -13 -143 c 2,3,-1
 4 -20 l 1,4,-1
 54 -23 l 2,5,6
 62 -24 62 -24 77 -24 c 0,7,8
 112 -24 112 -24 131.5 -15.5 c 128,-1,9
 151 -7 151 -7 156.5 1 c 128,-1,10
 162 9 162 9 168 20 c 2,11,-1
 171 30 l 1,12,-1
 39 517 l 1,13,-1
 230 517 l 1,14,-1
 288 236 l 1,15,-1
 430 517 l 1,16,-1
 620 517 l 1,17,-1
 349 30 l 2,18,19
 306 -49 306 -49 265.5 -91.5 c 128,-1,20
 225 -134 225 -134 185.5 -149.5 c 128,-1,21
 146 -165 146 -165 97 -165 c 0,22,0
 61 -165 61 -165 36.5 -160 c 128,-1,1
328 584 m 1,23,-1
 162 584 l 1,24,-1
 182 723 l 1,25,-1
 348 723 l 1,26,-1
 328 584 l 1,23,-1
562 584 m 1,27,-1
 396 584 l 1,28,-1
 416 723 l 1,29,-1
 582 723 l 1,30,-1
 562 584 l 1,27,-1
EndSplineSet
EndChar

StartChar: Amacron
Encoding: 256 256 193
Width: 724
GlyphClass: 2
Flags: W
AnchorPoint: "Anchor-5" -46 0 basechar 0
AnchorPoint: "Anchor-4" -46 0 basechar 0
AnchorPoint: "Anchor-3" 331 723 basechar 0
AnchorPoint: "Anchor-2" 674 9 basechar 0
LayerCount: 2
Fore
SplineSet
319 723 m 1,0,-1
 518 723 l 1,1,-1
 672 0 l 1,2,-1
 480 0 l 1,3,-1
 452 140 l 1,4,-1
 224 140 l 1,5,-1
 155 0 l 1,6,-1
 -39 0 l 1,7,-1
 319 723 l 1,0,-1
431 306 m 1,8,-1
 392 537 l 1,9,-1
 288 306 l 1,10,-1
 431 306 l 1,8,-1
645 810 m 1,11,-1
 245 810 l 1,12,-1
 262 929 l 1,13,-1
 662 929 l 1,14,-1
 645 810 l 1,11,-1
EndSplineSet
EndChar

StartChar: amacron
Encoding: 257 257 194
Width: 582
GlyphClass: 2
Flags: W
AnchorPoint: "Anchor-5" -46 0 basechar 0
AnchorPoint: "Anchor-4" -46 0 basechar 0
AnchorPoint: "Anchor-3" 246 517 basechar 0
AnchorPoint: "Anchor-2" 452 10 basechar 0
LayerCount: 2
Fore
SplineSet
517 0 m 1,0,-1
 321 0 l 1,1,-1
 517 0 l 1,0,-1
321 0 m 1,2,-1
 329 48 l 1,3,4
 291 16 291 16 255 3 c 128,-1,5
 219 -10 219 -10 183 -10 c 0,6,7
 93 -10 93 -10 44 56 c 0,8,9
 -4 120 -4 120 15 260 c 0,10,11
 27 348 27 348 62.5 408 c 128,-1,12
 98 468 98 468 147.5 497.5 c 128,-1,13
 197 527 197 527 253 527 c 0,14,15
 291 527 291 527 326.5 514 c 128,-1,16
 362 501 362 501 388 477 c 1,17,-1
 394 517 l 1,18,-1
 590 517 l 1,19,-1
 516 0 l 1,20,-1
 321 0 l 1,2,-1
325 155 m 128,-1,22
 349 194 349 194 359 264 c 0,23,24
 378 400 378 400 308 400 c 0,25,26
 273 400 273 400 247.5 366 c 128,-1,27
 222 332 222 332 212 264 c 128,-1,28
 202 196 202 196 218 156 c 128,-1,29
 234 116 234 116 268 116 c 0,30,21
 301 116 301 116 325 155 c 128,-1,22
531 604 m 1,31,-1
 131 604 l 1,32,-1
 148 723 l 1,33,-1
 548 723 l 1,34,-1
 531 604 l 1,31,-1
EndSplineSet
EndChar

StartChar: Abreve
Encoding: 258 258 195
Width: 724
GlyphClass: 2
Flags: W
AnchorPoint: "Anchor-5" -46 0 basechar 0
AnchorPoint: "Anchor-4" -46 0 basechar 0
AnchorPoint: "Anchor-3" 331 723 basechar 0
AnchorPoint: "Anchor-2" 674 9 basechar 0
LayerCount: 2
Fore
SplineSet
319 723 m 1,0,-1
 518 723 l 1,1,-1
 672 0 l 1,2,-1
 480 0 l 1,3,-1
 452 140 l 1,4,-1
 224 140 l 1,5,-1
 155 0 l 1,6,-1
 -39 0 l 1,7,-1
 319 723 l 1,0,-1
431 306 m 1,8,-1
 392 537 l 1,9,-1
 288 306 l 1,10,-1
 431 306 l 1,8,-1
569.5 821 m 128,-1,12
 511 784 511 784 442 784 c 128,-1,13
 373 784 373 784 324 820.5 c 128,-1,14
 275 857 275 857 265 929 c 1,15,-1
 370 929 l 1,16,17
 380 903 380 903 403.5 887 c 128,-1,18
 427 871 427 871 454 871 c 0,19,20
 479 871 479 871 507.5 887 c 128,-1,21
 536 903 536 903 553 929 c 1,22,-1
 659 929 l 1,23,11
 628 858 628 858 569.5 821 c 128,-1,12
EndSplineSet
EndChar

StartChar: abreve
Encoding: 259 259 196
Width: 582
GlyphClass: 2
Flags: W
AnchorPoint: "Anchor-5" -46 0 basechar 0
AnchorPoint: "Anchor-4" -46 0 basechar 0
AnchorPoint: "Anchor-3" 246 517 basechar 0
AnchorPoint: "Anchor-2" 452 10 basechar 0
LayerCount: 2
Fore
SplineSet
517 0 m 1,0,-1
 321 0 l 1,1,-1
 517 0 l 1,0,-1
321 0 m 1,2,-1
 329 48 l 1,3,4
 291 16 291 16 255 3 c 128,-1,5
 219 -10 219 -10 183 -10 c 0,6,7
 93 -10 93 -10 44 56 c 0,8,9
 -4 120 -4 120 15 260 c 0,10,11
 27 348 27 348 62.5 408 c 128,-1,12
 98 468 98 468 147.5 497.5 c 128,-1,13
 197 527 197 527 253 527 c 0,14,15
 291 527 291 527 326.5 514 c 128,-1,16
 362 501 362 501 388 477 c 1,17,-1
 394 517 l 1,18,-1
 590 517 l 1,19,-1
 516 0 l 1,20,-1
 321 0 l 1,2,-1
325 155 m 128,-1,22
 349 194 349 194 359 264 c 0,23,24
 378 400 378 400 308 400 c 0,25,26
 273 400 273 400 247.5 366 c 128,-1,27
 222 332 222 332 212 264 c 128,-1,28
 202 196 202 196 218 156 c 128,-1,29
 234 116 234 116 268 116 c 0,30,21
 301 116 301 116 325 155 c 128,-1,22
455.5 615 m 128,-1,32
 397 578 397 578 328 578 c 128,-1,33
 259 578 259 578 210 614.5 c 128,-1,34
 161 651 161 651 151 723 c 1,35,-1
 256 723 l 1,36,37
 266 697 266 697 289.5 681 c 128,-1,38
 313 665 313 665 340 665 c 0,39,40
 365 665 365 665 393.5 681 c 128,-1,41
 422 697 422 697 439 723 c 1,42,-1
 545 723 l 1,43,31
 514 652 514 652 455.5 615 c 128,-1,32
EndSplineSet
EndChar

StartChar: Aogonek
Encoding: 260 260 197
Width: 724
GlyphClass: 2
Flags: W
AnchorPoint: "Anchor-5" -46 0 basechar 0
AnchorPoint: "Anchor-4" -46 0 basechar 0
AnchorPoint: "Anchor-3" 331 723 basechar 0
AnchorPoint: "Anchor-2" 674 9 basechar 0
LayerCount: 2
Fore
SplineSet
319 723 m 1,0,-1
 518 723 l 1,1,-1
 672 0 l 1,2,-1
 480 0 l 1,3,-1
 452 140 l 1,4,-1
 224 140 l 1,5,-1
 155 0 l 1,6,-1
 -39 0 l 1,7,-1
 319 723 l 1,0,-1
431 306 m 1,8,-1
 392 537 l 1,9,-1
 288 306 l 1,10,-1
 431 306 l 1,8,-1
486 -36 m 128,-1,12
 508 -14 508 -14 564 5 c 1,13,-1
 697 5 l 1,14,15
 643 -12 643 -12 621.5 -26.5 c 128,-1,16
 600 -41 600 -41 598 -59 c 0,17,18
 594 -87 594 -87 621 -87 c 0,19,20
 636 -87 636 -87 648 -83 c 128,-1,21
 660 -79 660 -79 678 -71 c 0,22,23
 684 -68 684 -68 689 -68 c 0,24,25
 697 -68 697 -68 695 -82 c 2,26,-1
 687 -133 l 2,27,28
 685 -144 685 -144 675 -150 c 0,29,30
 659 -158 659 -158 628.5 -164.5 c 128,-1,31
 598 -171 598 -171 566 -171 c 0,32,33
 511 -171 511 -171 482.5 -149.5 c 128,-1,34
 454 -128 454 -128 460 -86 c 0,35,11
 464 -58 464 -58 486 -36 c 128,-1,12
EndSplineSet
EndChar

StartChar: aogonek
Encoding: 261 261 198
Width: 582
GlyphClass: 2
Flags: W
AnchorPoint: "Anchor-5" -46 0 basechar 0
AnchorPoint: "Anchor-4" -46 0 basechar 0
AnchorPoint: "Anchor-3" 246 517 basechar 0
AnchorPoint: "Anchor-2" 452 10 basechar 0
LayerCount: 2
Fore
SplineSet
517 0 m 1,0,-1
 321 0 l 1,1,-1
 517 0 l 1,0,-1
321 0 m 1,2,-1
 329 48 l 1,3,4
 291 16 291 16 255 3 c 128,-1,5
 219 -10 219 -10 183 -10 c 0,6,7
 93 -10 93 -10 44 56 c 0,8,9
 -4 120 -4 120 15 260 c 0,10,11
 27 348 27 348 62.5 408 c 128,-1,12
 98 468 98 468 147.5 497.5 c 128,-1,13
 197 527 197 527 253 527 c 0,14,15
 291 527 291 527 326.5 514 c 128,-1,16
 362 501 362 501 388 477 c 1,17,-1
 394 517 l 1,18,-1
 590 517 l 1,19,-1
 516 0 l 1,20,-1
 321 0 l 1,2,-1
325 155 m 128,-1,22
 349 194 349 194 359 264 c 0,23,24
 378 400 378 400 308 400 c 0,25,26
 273 400 273 400 247.5 366 c 128,-1,27
 222 332 222 332 212 264 c 128,-1,28
 202 196 202 196 218 156 c 128,-1,29
 234 116 234 116 268 116 c 0,30,21
 301 116 301 116 325 155 c 128,-1,22
264 -35 m 128,-1,32
 286 -13 286 -13 342 6 c 1,33,-1
 475 6 l 1,34,35
 421 -11 421 -11 399.5 -25.5 c 128,-1,36
 378 -40 378 -40 376 -58 c 0,37,38
 372 -86 372 -86 399 -86 c 0,39,40
 414 -86 414 -86 426 -82 c 128,-1,41
 438 -78 438 -78 456 -70 c 0,42,43
 462 -67 462 -67 467 -67 c 0,44,45
 475 -67 475 -67 473 -81 c 2,46,-1
 465 -132 l 2,47,48
 463 -143 463 -143 453 -149 c 0,49,50
 437 -157 437 -157 406.5 -163.5 c 128,-1,51
 376 -170 376 -170 344 -170 c 0,52,53
 289 -170 289 -170 260.5 -148.5 c 128,-1,54
 232 -127 232 -127 238 -85 c 0,55,31
 242 -57 242 -57 264 -35 c 128,-1,32
EndSplineSet
EndChar

StartChar: Cacute
Encoding: 262 262 199
Width: 732
GlyphClass: 2
Flags: W
AnchorPoint: "Anchor-5" -46 0 basechar 0
AnchorPoint: "Anchor-4" 336 0 basechar 0
AnchorPoint: "Anchor-3" 336 723 basechar 0
AnchorPoint: "Anchor-2" -46 0 basechar 0
LayerCount: 2
Fore
SplineSet
588 699.5 m 128,-1,1
 652 666 652 666 685.5 605.5 c 128,-1,2
 719 545 719 545 716 468 c 1,3,-1
 513 468 l 1,4,5
 512 519 512 519 485.5 548 c 128,-1,6
 459 577 459 577 410 577 c 0,7,8
 351 577 351 577 311 529 c 128,-1,9
 271 481 271 481 255 368 c 0,10,11
 239 253 239 253 265.5 199.5 c 128,-1,12
 292 146 292 146 350 146 c 0,13,14
 398 146 398 146 433 181 c 128,-1,15
 468 216 468 216 485 270 c 1,16,-1
 688 270 l 1,17,18
 653 140 653 140 573.5 65 c 128,-1,19
 494 -10 494 -10 335 -10 c 0,20,21
 232 -10 232 -10 160 39 c 128,-1,22
 88 88 88 88 57.5 175 c 128,-1,23
 27 262 27 262 42 371 c 128,-1,24
 57 480 57 480 111.5 562 c 128,-1,25
 166 644 166 644 250 688.5 c 128,-1,26
 334 733 334 733 439 733 c 0,27,0
 524 733 524 733 588 699.5 c 128,-1,1
605 823 m 1,28,-1
 318 757 l 1,29,-1
 303 834 l 1,30,-1
 580 941 l 1,31,-1
 605 823 l 1,28,-1
EndSplineSet
EndChar

StartChar: cacute
Encoding: 263 263 200
Width: 535
GlyphClass: 2
Flags: W
AnchorPoint: "Anchor-5" -46 0 basechar 0
AnchorPoint: "Anchor-4" 238 0 basechar 0
AnchorPoint: "Anchor-3" 239 517 basechar 0
AnchorPoint: "Anchor-2" -46 0 basechar 0
LayerCount: 2
Fore
SplineSet
429.5 496.5 m 128,-1,1
 476 466 476 466 495.5 416 c 128,-1,2
 515 366 515 366 509 306 c 1,3,-1
 351 306 l 1,4,5
 351 336 351 336 339 359.5 c 128,-1,6
 327 383 327 383 294 383 c 0,7,8
 256 383 256 383 229 351 c 128,-1,9
 202 319 202 319 193 258 c 0,10,11
 184 196 184 196 203.5 160 c 128,-1,12
 223 124 223 124 261 124 c 0,13,14
 293 124 293 124 311.5 149 c 128,-1,15
 330 174 330 174 338 200 c 1,16,-1
 491 200 l 1,17,18
 483 144 483 144 449.5 96 c 128,-1,19
 416 48 416 48 361 19 c 128,-1,20
 306 -10 306 -10 238 -10 c 0,21,22
 164 -10 164 -10 109 23.5 c 128,-1,23
 54 57 54 57 28.5 117.5 c 128,-1,24
 3 178 3 178 14 256 c 0,25,26
 25 335 25 335 67.5 396.5 c 128,-1,27
 110 458 110 458 174.5 492.5 c 128,-1,28
 239 527 239 527 313 527 c 0,29,0
 383 527 383 527 429.5 496.5 c 128,-1,1
479 617 m 1,30,-1
 192 551 l 1,31,-1
 177 628 l 1,32,-1
 454 735 l 1,33,-1
 479 617 l 1,30,-1
EndSplineSet
EndChar

StartChar: Ccircumflex
Encoding: 264 264 201
Width: 732
GlyphClass: 2
Flags: W
AnchorPoint: "Anchor-5" -46 0 basechar 0
AnchorPoint: "Anchor-4" 336 0 basechar 0
AnchorPoint: "Anchor-3" 336 723 basechar 0
AnchorPoint: "Anchor-2" -46 0 basechar 0
LayerCount: 2
Fore
SplineSet
588 699.5 m 128,-1,1
 652 666 652 666 685.5 605.5 c 128,-1,2
 719 545 719 545 716 468 c 1,3,-1
 513 468 l 1,4,5
 512 519 512 519 485.5 548 c 128,-1,6
 459 577 459 577 410 577 c 0,7,8
 351 577 351 577 311 529 c 128,-1,9
 271 481 271 481 255 368 c 0,10,11
 239 253 239 253 265.5 199.5 c 128,-1,12
 292 146 292 146 350 146 c 0,13,14
 398 146 398 146 433 181 c 128,-1,15
 468 216 468 216 485 270 c 1,16,-1
 688 270 l 1,17,18
 653 140 653 140 573.5 65 c 128,-1,19
 494 -10 494 -10 335 -10 c 0,20,21
 232 -10 232 -10 160 39 c 128,-1,22
 88 88 88 88 57.5 175 c 128,-1,23
 27 262 27 262 42 371 c 128,-1,24
 57 480 57 480 111.5 562 c 128,-1,25
 166 644 166 644 250 688.5 c 128,-1,26
 334 733 334 733 439 733 c 0,27,0
 524 733 524 733 588 699.5 c 128,-1,1
457 868 m 1,28,-1
 375 786 l 1,29,-1
 243 786 l 1,30,-1
 402 939 l 1,31,-1
 534 939 l 1,32,-1
 647 786 l 1,33,-1
 508 786 l 1,34,-1
 457 868 l 1,28,-1
EndSplineSet
EndChar

StartChar: ccircumflex
Encoding: 265 265 202
Width: 535
GlyphClass: 2
Flags: W
AnchorPoint: "Anchor-5" -46 0 basechar 0
AnchorPoint: "Anchor-4" 238 0 basechar 0
AnchorPoint: "Anchor-3" 239 517 basechar 0
AnchorPoint: "Anchor-2" -46 0 basechar 0
LayerCount: 2
Fore
SplineSet
429.5 496.5 m 128,-1,1
 476 466 476 466 495.5 416 c 128,-1,2
 515 366 515 366 509 306 c 1,3,-1
 351 306 l 1,4,5
 351 336 351 336 339 359.5 c 128,-1,6
 327 383 327 383 294 383 c 0,7,8
 256 383 256 383 229 351 c 128,-1,9
 202 319 202 319 193 258 c 0,10,11
 184 196 184 196 203.5 160 c 128,-1,12
 223 124 223 124 261 124 c 0,13,14
 293 124 293 124 311.5 149 c 128,-1,15
 330 174 330 174 338 200 c 1,16,-1
 491 200 l 1,17,18
 483 144 483 144 449.5 96 c 128,-1,19
 416 48 416 48 361 19 c 128,-1,20
 306 -10 306 -10 238 -10 c 0,21,22
 164 -10 164 -10 109 23.5 c 128,-1,23
 54 57 54 57 28.5 117.5 c 128,-1,24
 3 178 3 178 14 256 c 0,25,26
 25 335 25 335 67.5 396.5 c 128,-1,27
 110 458 110 458 174.5 492.5 c 128,-1,28
 239 527 239 527 313 527 c 0,29,0
 383 527 383 527 429.5 496.5 c 128,-1,1
331 662 m 1,30,-1
 249 580 l 1,31,-1
 117 580 l 1,32,-1
 276 733 l 1,33,-1
 408 733 l 1,34,-1
 521 580 l 1,35,-1
 382 580 l 1,36,-1
 331 662 l 1,30,-1
EndSplineSet
EndChar

StartChar: Cdotaccent
Encoding: 266 266 203
Width: 732
GlyphClass: 2
Flags: W
AnchorPoint: "Anchor-5" -46 0 basechar 0
AnchorPoint: "Anchor-4" 336 0 basechar 0
AnchorPoint: "Anchor-3" 336 723 basechar 0
AnchorPoint: "Anchor-2" -46 0 basechar 0
LayerCount: 2
Fore
SplineSet
588 699.5 m 128,-1,1
 652 666 652 666 685.5 605.5 c 128,-1,2
 719 545 719 545 716 468 c 1,3,-1
 513 468 l 1,4,5
 512 519 512 519 485.5 548 c 128,-1,6
 459 577 459 577 410 577 c 0,7,8
 351 577 351 577 311 529 c 128,-1,9
 271 481 271 481 255 368 c 0,10,11
 239 253 239 253 265.5 199.5 c 128,-1,12
 292 146 292 146 350 146 c 0,13,14
 398 146 398 146 433 181 c 128,-1,15
 468 216 468 216 485 270 c 1,16,-1
 688 270 l 1,17,18
 653 140 653 140 573.5 65 c 128,-1,19
 494 -10 494 -10 335 -10 c 0,20,21
 232 -10 232 -10 160 39 c 128,-1,22
 88 88 88 88 57.5 175 c 128,-1,23
 27 262 27 262 42 371 c 128,-1,24
 57 480 57 480 111.5 562 c 128,-1,25
 166 644 166 644 250 688.5 c 128,-1,26
 334 733 334 733 439 733 c 0,27,0
 524 733 524 733 588 699.5 c 128,-1,1
542 766 m 1,28,-1
 347 766 l 1,29,-1
 370 929 l 1,30,-1
 565 929 l 1,31,-1
 542 766 l 1,28,-1
EndSplineSet
EndChar

StartChar: cdotaccent
Encoding: 267 267 204
Width: 535
GlyphClass: 2
Flags: W
AnchorPoint: "Anchor-5" -46 0 basechar 0
AnchorPoint: "Anchor-4" 238 0 basechar 0
AnchorPoint: "Anchor-3" 239 517 basechar 0
AnchorPoint: "Anchor-2" -46 0 basechar 0
LayerCount: 2
Fore
SplineSet
429.5 496.5 m 128,-1,1
 476 466 476 466 495.5 416 c 128,-1,2
 515 366 515 366 509 306 c 1,3,-1
 351 306 l 1,4,5
 351 336 351 336 339 359.5 c 128,-1,6
 327 383 327 383 294 383 c 0,7,8
 256 383 256 383 229 351 c 128,-1,9
 202 319 202 319 193 258 c 0,10,11
 184 196 184 196 203.5 160 c 128,-1,12
 223 124 223 124 261 124 c 0,13,14
 293 124 293 124 311.5 149 c 128,-1,15
 330 174 330 174 338 200 c 1,16,-1
 491 200 l 1,17,18
 483 144 483 144 449.5 96 c 128,-1,19
 416 48 416 48 361 19 c 128,-1,20
 306 -10 306 -10 238 -10 c 0,21,22
 164 -10 164 -10 109 23.5 c 128,-1,23
 54 57 54 57 28.5 117.5 c 128,-1,24
 3 178 3 178 14 256 c 0,25,26
 25 335 25 335 67.5 396.5 c 128,-1,27
 110 458 110 458 174.5 492.5 c 128,-1,28
 239 527 239 527 313 527 c 0,29,0
 383 527 383 527 429.5 496.5 c 128,-1,1
416 560 m 1,30,-1
 221 560 l 1,31,-1
 244 723 l 1,32,-1
 439 723 l 1,33,-1
 416 560 l 1,30,-1
EndSplineSet
EndChar

StartChar: Ccaron
Encoding: 268 268 205
Width: 732
GlyphClass: 2
Flags: W
AnchorPoint: "Anchor-5" -46 0 basechar 0
AnchorPoint: "Anchor-4" 336 0 basechar 0
AnchorPoint: "Anchor-3" 336 723 basechar 0
AnchorPoint: "Anchor-2" -46 0 basechar 0
LayerCount: 2
Fore
SplineSet
588 699.5 m 128,-1,1
 652 666 652 666 685.5 605.5 c 128,-1,2
 719 545 719 545 716 468 c 1,3,-1
 513 468 l 1,4,5
 512 519 512 519 485.5 548 c 128,-1,6
 459 577 459 577 410 577 c 0,7,8
 351 577 351 577 311 529 c 128,-1,9
 271 481 271 481 255 368 c 0,10,11
 239 253 239 253 265.5 199.5 c 128,-1,12
 292 146 292 146 350 146 c 0,13,14
 398 146 398 146 433 181 c 128,-1,15
 468 216 468 216 485 270 c 1,16,-1
 688 270 l 1,17,18
 653 140 653 140 573.5 65 c 128,-1,19
 494 -10 494 -10 335 -10 c 0,20,21
 232 -10 232 -10 160 39 c 128,-1,22
 88 88 88 88 57.5 175 c 128,-1,23
 27 262 27 262 42 371 c 128,-1,24
 57 480 57 480 111.5 562 c 128,-1,25
 166 644 166 644 250 688.5 c 128,-1,26
 334 733 334 733 439 733 c 0,27,0
 524 733 524 733 588 699.5 c 128,-1,1
667 930 m 1,28,-1
 511 776 l 1,29,-1
 378 776 l 1,30,-1
 263 930 l 1,31,-1
 395 930 l 1,32,-1
 454 848 l 1,33,-1
 528 930 l 1,34,-1
 667 930 l 1,28,-1
EndSplineSet
EndChar

StartChar: ccaron
Encoding: 269 269 206
Width: 535
GlyphClass: 2
Flags: W
AnchorPoint: "Anchor-5" -46 0 basechar 0
AnchorPoint: "Anchor-4" 238 0 basechar 0
AnchorPoint: "Anchor-3" 239 517 basechar 0
AnchorPoint: "Anchor-2" -46 0 basechar 0
LayerCount: 2
Fore
SplineSet
429.5 496.5 m 128,-1,1
 476 466 476 466 495.5 416 c 128,-1,2
 515 366 515 366 509 306 c 1,3,-1
 351 306 l 1,4,5
 351 336 351 336 339 359.5 c 128,-1,6
 327 383 327 383 294 383 c 0,7,8
 256 383 256 383 229 351 c 128,-1,9
 202 319 202 319 193 258 c 0,10,11
 184 196 184 196 203.5 160 c 128,-1,12
 223 124 223 124 261 124 c 0,13,14
 293 124 293 124 311.5 149 c 128,-1,15
 330 174 330 174 338 200 c 1,16,-1
 491 200 l 1,17,18
 483 144 483 144 449.5 96 c 128,-1,19
 416 48 416 48 361 19 c 128,-1,20
 306 -10 306 -10 238 -10 c 0,21,22
 164 -10 164 -10 109 23.5 c 128,-1,23
 54 57 54 57 28.5 117.5 c 128,-1,24
 3 178 3 178 14 256 c 0,25,26
 25 335 25 335 67.5 396.5 c 128,-1,27
 110 458 110 458 174.5 492.5 c 128,-1,28
 239 527 239 527 313 527 c 0,29,0
 383 527 383 527 429.5 496.5 c 128,-1,1
541 724 m 1,30,-1
 385 570 l 1,31,-1
 252 570 l 1,32,-1
 137 724 l 1,33,-1
 269 724 l 1,34,-1
 328 642 l 1,35,-1
 402 724 l 1,36,-1
 541 724 l 1,30,-1
EndSplineSet
EndChar

StartChar: Dcaron
Encoding: 270 270 207
Width: 735
GlyphClass: 2
Flags: W
AnchorPoint: "Anchor-5" -46 0 basechar 0
AnchorPoint: "Anchor-4" -46 0 basechar 0
AnchorPoint: "Anchor-3" 323 723 basechar 0
AnchorPoint: "Anchor-2" -46 0 basechar 0
LayerCount: 2
Fore
SplineSet
235 723 m 2,0,1
 350 723 350 723 380 722 c 0,2,3
 568 715 568 715 647.5 620 c 128,-1,4
 727 525 727 525 704 364 c 0,5,6
 689 256 689 256 636.5 174 c 128,-1,7
 584 92 584 92 493 46 c 128,-1,8
 402 0 402 0 278 0 c 2,9,-1
 19 0 l 1,10,-1
 121 723 l 1,11,-1
 235 723 l 2,0,1
236 153 m 1,12,-1
 306 153 l 2,13,14
 346 153 346 153 387 175 c 128,-1,15
 428 197 428 197 459.5 245 c 128,-1,16
 491 293 491 293 502 367 c 0,17,18
 516 465 516 465 478 517.5 c 128,-1,19
 440 570 440 570 364 570 c 2,20,-1
 294 570 l 1,21,-1
 236 153 l 1,12,-1
654 930 m 1,22,-1
 498 776 l 1,23,-1
 365 776 l 1,24,-1
 250 930 l 1,25,-1
 382 930 l 1,26,-1
 441 848 l 1,27,-1
 515 930 l 1,28,-1
 654 930 l 1,22,-1
EndSplineSet
EndChar

StartChar: dcaron
Encoding: 271 271 208
Width: 619
GlyphClass: 2
Flags: W
AnchorPoint: "Anchor-5" 530 517 basechar 0
AnchorPoint: "Anchor-4" 251 0 basechar 0
AnchorPoint: "Anchor-3" -46 0 basechar 0
AnchorPoint: "Anchor-2" -46 0 basechar 0
LayerCount: 2
Fore
SplineSet
45 63 m 128,-1,1
 -3 136 -3 136 15 262 c 0,2,3
 32 385 32 385 95 456 c 128,-1,4
 158 527 158 527 253 527 c 0,5,6
 297 527 297 527 333.5 511 c 128,-1,7
 370 495 370 495 386 458 c 1,8,-1
 426 743 l 1,9,-1
 621 743 l 1,10,-1
 517 0 l 1,11,-1
 379 0 l 1,12,-1
 374 68 l 1,13,14
 348 34 348 34 303 12 c 128,-1,15
 258 -10 258 -10 199 -10 c 0,16,0
 93 -10 93 -10 45 63 c 128,-1,1
323.5 154.5 m 128,-1,18
 348 183 348 183 356 239 c 2,19,-1
 362 284 l 2,20,21
 377 390 377 390 300 390 c 0,22,23
 265 390 265 390 239 362.5 c 128,-1,24
 213 335 213 335 203 264 c 0,25,26
 193 191 193 191 210.5 158.5 c 128,-1,27
 228 126 228 126 265 126 c 0,28,17
 299 126 299 126 323.5 154.5 c 128,-1,18
468 282 m 128,-1,30
 466 287 466 287 469 292 c 2,31,-1
 510 367 l 2,32,33
 514 375 514 375 514 379 c 0,34,35
 515 387 515 387 505 388 c 2,36,-1
 494 390 l 2,37,38
 485 391 485 391 481.5 394.5 c 128,-1,39
 478 398 478 398 479 406 c 2,40,-1
 493 502 l 2,41,42
 495 517 495 517 508 517 c 2,43,-1
 603 517 l 2,44,45
 616 517 616 517 614 505 c 2,46,-1
 598 390 l 2,47,48
 597 386 597 386 593 380 c 2,49,-1
 544 292 l 2,50,51
 540 284 540 284 533 280.5 c 128,-1,52
 526 277 526 277 512 277 c 2,53,-1
 476 277 l 2,54,29
 470 277 470 277 468 282 c 128,-1,30
EndSplineSet
EndChar

StartChar: Dcroat
Encoding: 272 272 209
Width: 769
GlyphClass: 2
Flags: W
AnchorPoint: "Anchor-5" -46 0 basechar 0
AnchorPoint: "Anchor-4" -46 0 basechar 0
AnchorPoint: "Anchor-3" 357 723 basechar 0
AnchorPoint: "Anchor-2" -46 0 basechar 0
LayerCount: 2
Fore
SplineSet
681.5 620 m 128,-1,1
 761 525 761 525 738 364 c 0,2,3
 723 256 723 256 670.5 174 c 128,-1,4
 618 92 618 92 527 46 c 128,-1,5
 436 0 436 0 312 0 c 2,6,-1
 53 0 l 1,7,-1
 93 286 l 1,8,-1
 50 286 l 2,9,10
 35 286 35 286 30.5 291.5 c 128,-1,11
 26 297 26 297 28 310 c 2,12,-1
 40 401 l 2,13,14
 43 423 43 423 62 423 c 2,15,-1
 112 423 l 1,16,-1
 155 723 l 1,17,-1
 269 723 l 2,18,19
 384 723 384 723 414 722 c 0,20,0
 602 715 602 715 681.5 620 c 128,-1,1
421 175 m 128,-1,22
 462 197 462 197 493.5 245 c 128,-1,23
 525 293 525 293 536 367 c 0,24,25
 550 465 550 465 512 517.5 c 128,-1,26
 474 570 474 570 398 570 c 2,27,-1
 328 570 l 1,28,-1
 307 423 l 1,29,-1
 423 423 l 2,30,31
 431 423 431 423 435.5 417.5 c 128,-1,32
 440 412 440 412 439 404 c 2,33,-1
 426 313 l 2,34,35
 424 298 424 298 415.5 292 c 128,-1,36
 407 286 407 286 390 286 c 2,37,-1
 288 286 l 1,38,-1
 270 153 l 1,39,-1
 340 153 l 2,40,21
 380 153 380 153 421 175 c 128,-1,22
EndSplineSet
EndChar

StartChar: dcroat
Encoding: 273 273 210
Width: 620
GlyphClass: 2
Flags: W
AnchorPoint: "Anchor-5" 530 517 basechar 0
AnchorPoint: "Anchor-4" 251 0 basechar 0
AnchorPoint: "Anchor-3" -46 0 basechar 0
AnchorPoint: "Anchor-2" -46 0 basechar 0
LayerCount: 2
Fore
SplineSet
625 566 m 1,0,-1
 597 566 l 1,1,-1
 517 0 l 1,2,-1
 379 0 l 1,3,-1
 374 68 l 1,4,5
 348 34 348 34 303 12 c 128,-1,6
 258 -10 258 -10 199 -10 c 0,7,8
 93 -10 93 -10 45 63 c 128,-1,9
 -3 136 -3 136 15 262 c 0,10,11
 32 385 32 385 95 456 c 128,-1,12
 158 527 158 527 253 527 c 0,13,14
 297 527 297 527 333.5 511 c 128,-1,15
 370 495 370 495 386 458 c 1,16,-1
 402 566 l 1,17,-1
 263 566 l 1,18,-1
 277 670 l 1,19,-1
 416 670 l 1,20,-1
 426 743 l 1,21,-1
 621 743 l 1,22,-1
 611 670 l 1,23,-1
 639 670 l 1,24,-1
 625 566 l 1,0,-1
362 284 m 2,25,26
 377 390 377 390 300 390 c 0,27,28
 265 390 265 390 239 362.5 c 128,-1,29
 213 335 213 335 203 264 c 0,30,31
 193 191 193 191 210.5 158.5 c 128,-1,32
 228 126 228 126 265 126 c 0,33,34
 299 126 299 126 323.5 154.5 c 128,-1,35
 348 183 348 183 356 239 c 2,36,-1
 362 284 l 2,25,26
EndSplineSet
EndChar

StartChar: Emacron
Encoding: 274 274 211
Width: 650
GlyphClass: 2
Flags: W
AnchorPoint: "Anchor-5" -46 0 basechar 0
AnchorPoint: "Anchor-4" 286 0 basechar 0
AnchorPoint: "Anchor-3" 286 723 basechar 0
AnchorPoint: "Anchor-2" 553 10 basechar 0
LayerCount: 2
Fore
SplineSet
121 723 m 1,0,-1
 655 723 l 1,1,-1
 631 562 l 1,2,-1
 294 562 l 1,3,-1
 277 442 l 1,4,-1
 559 442 l 1,5,-1
 537 285 l 1,6,-1
 254 285 l 1,7,-1
 237 162 l 1,8,-1
 577 162 l 1,9,-1
 554 0 l 1,10,-1
 19 0 l 1,11,-1
 121 723 l 1,0,-1
600 810 m 1,12,-1
 200 810 l 1,13,-1
 217 929 l 1,14,-1
 617 929 l 1,15,-1
 600 810 l 1,12,-1
EndSplineSet
EndChar

StartChar: emacron
Encoding: 275 275 212
Width: 566
GlyphClass: 2
Flags: W
AnchorPoint: "Anchor-5" -46 0 basechar 0
AnchorPoint: "Anchor-4" 245 0 basechar 0
AnchorPoint: "Anchor-3" 242 517 basechar 0
AnchorPoint: "Anchor-2" 370 25 basechar 0
LayerCount: 2
Fore
SplineSet
210 148 m 128,-1,1
 228 126 228 126 262 126 c 0,2,3
 292 126 292 126 313.5 137 c 128,-1,4
 335 148 335 148 350 176 c 1,5,-1
 522 176 l 1,6,7
 506 121 506 121 463.5 78.5 c 128,-1,8
 421 36 421 36 363.5 13 c 128,-1,9
 306 -10 306 -10 248 -10 c 0,10,11
 168 -10 168 -10 111 22.5 c 128,-1,12
 54 55 54 55 28 114.5 c 128,-1,13
 2 174 2 174 13 252 c 0,14,15
 24 327 24 327 64.5 390 c 128,-1,16
 105 453 105 453 170 490 c 128,-1,17
 235 527 235 527 315 527 c 0,18,19
 397 527 397 527 449 492.5 c 128,-1,20
 501 458 501 458 521.5 397.5 c 128,-1,21
 542 337 542 337 531 259 c 2,22,-1
 525 214 l 1,23,-1
 199 214 l 1,24,0
 192 170 192 170 210 148 c 128,-1,1
361 323 m 1,25,26
 365 354 365 354 348.5 375 c 128,-1,27
 332 396 332 396 297 396 c 0,28,29
 267 396 267 396 242 374 c 128,-1,30
 217 352 217 352 213 323 c 1,31,-1
 361 323 l 1,25,26
527 604 m 1,32,-1
 127 604 l 1,33,-1
 144 723 l 1,34,-1
 544 723 l 1,35,-1
 527 604 l 1,32,-1
EndSplineSet
EndChar

StartChar: Ebreve
Encoding: 276 276 213
Width: 650
GlyphClass: 2
Flags: W
AnchorPoint: "Anchor-5" -46 0 basechar 0
AnchorPoint: "Anchor-4" 286 0 basechar 0
AnchorPoint: "Anchor-3" 286 723 basechar 0
AnchorPoint: "Anchor-2" 553 10 basechar 0
LayerCount: 2
Fore
SplineSet
121 723 m 1,0,-1
 655 723 l 1,1,-1
 631 562 l 1,2,-1
 294 562 l 1,3,-1
 277 442 l 1,4,-1
 559 442 l 1,5,-1
 537 285 l 1,6,-1
 254 285 l 1,7,-1
 237 162 l 1,8,-1
 577 162 l 1,9,-1
 554 0 l 1,10,-1
 19 0 l 1,11,-1
 121 723 l 1,0,-1
524.5 821 m 128,-1,13
 466 784 466 784 397 784 c 128,-1,14
 328 784 328 784 279 820.5 c 128,-1,15
 230 857 230 857 220 929 c 1,16,-1
 325 929 l 1,17,18
 335 903 335 903 358.5 887 c 128,-1,19
 382 871 382 871 409 871 c 0,20,21
 434 871 434 871 462.5 887 c 128,-1,22
 491 903 491 903 508 929 c 1,23,-1
 614 929 l 1,24,12
 583 858 583 858 524.5 821 c 128,-1,13
EndSplineSet
EndChar

StartChar: ebreve
Encoding: 277 277 214
Width: 566
GlyphClass: 2
Flags: W
AnchorPoint: "Anchor-5" -46 0 basechar 0
AnchorPoint: "Anchor-4" 245 0 basechar 0
AnchorPoint: "Anchor-3" 242 517 basechar 0
AnchorPoint: "Anchor-2" 370 25 basechar 0
LayerCount: 2
Fore
SplineSet
210 148 m 128,-1,1
 228 126 228 126 262 126 c 0,2,3
 292 126 292 126 313.5 137 c 128,-1,4
 335 148 335 148 350 176 c 1,5,-1
 522 176 l 1,6,7
 506 121 506 121 463.5 78.5 c 128,-1,8
 421 36 421 36 363.5 13 c 128,-1,9
 306 -10 306 -10 248 -10 c 0,10,11
 168 -10 168 -10 111 22.5 c 128,-1,12
 54 55 54 55 28 114.5 c 128,-1,13
 2 174 2 174 13 252 c 0,14,15
 24 327 24 327 64.5 390 c 128,-1,16
 105 453 105 453 170 490 c 128,-1,17
 235 527 235 527 315 527 c 0,18,19
 397 527 397 527 449 492.5 c 128,-1,20
 501 458 501 458 521.5 397.5 c 128,-1,21
 542 337 542 337 531 259 c 2,22,-1
 525 214 l 1,23,-1
 199 214 l 1,24,0
 192 170 192 170 210 148 c 128,-1,1
361 323 m 1,25,26
 365 354 365 354 348.5 375 c 128,-1,27
 332 396 332 396 297 396 c 0,28,29
 267 396 267 396 242 374 c 128,-1,30
 217 352 217 352 213 323 c 1,31,-1
 361 323 l 1,25,26
451.5 615 m 128,-1,33
 393 578 393 578 324 578 c 128,-1,34
 255 578 255 578 206 614.5 c 128,-1,35
 157 651 157 651 147 723 c 1,36,-1
 252 723 l 1,37,38
 262 697 262 697 285.5 681 c 128,-1,39
 309 665 309 665 336 665 c 0,40,41
 361 665 361 665 389.5 681 c 128,-1,42
 418 697 418 697 435 723 c 1,43,-1
 541 723 l 1,44,32
 510 652 510 652 451.5 615 c 128,-1,33
EndSplineSet
EndChar

StartChar: Edotaccent
Encoding: 278 278 215
Width: 650
GlyphClass: 2
Flags: W
AnchorPoint: "Anchor-5" -46 0 basechar 0
AnchorPoint: "Anchor-4" 286 0 basechar 0
AnchorPoint: "Anchor-3" 286 723 basechar 0
AnchorPoint: "Anchor-2" 553 10 basechar 0
LayerCount: 2
Fore
SplineSet
121 723 m 1,0,-1
 655 723 l 1,1,-1
 631 562 l 1,2,-1
 294 562 l 1,3,-1
 277 442 l 1,4,-1
 559 442 l 1,5,-1
 537 285 l 1,6,-1
 254 285 l 1,7,-1
 237 162 l 1,8,-1
 577 162 l 1,9,-1
 554 0 l 1,10,-1
 19 0 l 1,11,-1
 121 723 l 1,0,-1
492 766 m 1,12,-1
 297 766 l 1,13,-1
 320 929 l 1,14,-1
 515 929 l 1,15,-1
 492 766 l 1,12,-1
EndSplineSet
EndChar

StartChar: edotaccent
Encoding: 279 279 216
Width: 566
GlyphClass: 2
Flags: W
AnchorPoint: "Anchor-5" -46 0 basechar 0
AnchorPoint: "Anchor-4" 245 0 basechar 0
AnchorPoint: "Anchor-3" 242 517 basechar 0
AnchorPoint: "Anchor-2" 370 25 basechar 0
LayerCount: 2
Fore
SplineSet
210 148 m 128,-1,1
 228 126 228 126 262 126 c 0,2,3
 292 126 292 126 313.5 137 c 128,-1,4
 335 148 335 148 350 176 c 1,5,-1
 522 176 l 1,6,7
 506 121 506 121 463.5 78.5 c 128,-1,8
 421 36 421 36 363.5 13 c 128,-1,9
 306 -10 306 -10 248 -10 c 0,10,11
 168 -10 168 -10 111 22.5 c 128,-1,12
 54 55 54 55 28 114.5 c 128,-1,13
 2 174 2 174 13 252 c 0,14,15
 24 327 24 327 64.5 390 c 128,-1,16
 105 453 105 453 170 490 c 128,-1,17
 235 527 235 527 315 527 c 0,18,19
 397 527 397 527 449 492.5 c 128,-1,20
 501 458 501 458 521.5 397.5 c 128,-1,21
 542 337 542 337 531 259 c 2,22,-1
 525 214 l 1,23,-1
 199 214 l 1,24,0
 192 170 192 170 210 148 c 128,-1,1
361 323 m 1,25,26
 365 354 365 354 348.5 375 c 128,-1,27
 332 396 332 396 297 396 c 0,28,29
 267 396 267 396 242 374 c 128,-1,30
 217 352 217 352 213 323 c 1,31,-1
 361 323 l 1,25,26
419 560 m 1,32,-1
 224 560 l 1,33,-1
 247 723 l 1,34,-1
 442 723 l 1,35,-1
 419 560 l 1,32,-1
EndSplineSet
EndChar

StartChar: Eogonek
Encoding: 280 280 217
Width: 650
GlyphClass: 2
Flags: W
AnchorPoint: "Anchor-5" -46 0 basechar 0
AnchorPoint: "Anchor-4" 286 0 basechar 0
AnchorPoint: "Anchor-3" 286 723 basechar 0
AnchorPoint: "Anchor-2" 553 10 basechar 0
LayerCount: 2
Fore
SplineSet
121 723 m 1,0,-1
 655 723 l 1,1,-1
 631 562 l 1,2,-1
 294 562 l 1,3,-1
 277 442 l 1,4,-1
 559 442 l 1,5,-1
 537 285 l 1,6,-1
 254 285 l 1,7,-1
 237 162 l 1,8,-1
 577 162 l 1,9,-1
 554 0 l 1,10,-1
 19 0 l 1,11,-1
 121 723 l 1,0,-1
365 -35 m 128,-1,13
 387 -13 387 -13 443 6 c 1,14,-1
 576 6 l 1,15,16
 522 -11 522 -11 500.5 -25.5 c 128,-1,17
 479 -40 479 -40 477 -58 c 0,18,19
 473 -86 473 -86 500 -86 c 0,20,21
 515 -86 515 -86 527 -82 c 128,-1,22
 539 -78 539 -78 557 -70 c 0,23,24
 563 -67 563 -67 568 -67 c 0,25,26
 576 -67 576 -67 574 -81 c 2,27,-1
 566 -132 l 2,28,29
 564 -143 564 -143 554 -149 c 0,30,31
 538 -157 538 -157 507.5 -163.5 c 128,-1,32
 477 -170 477 -170 445 -170 c 0,33,34
 390 -170 390 -170 361.5 -148.5 c 128,-1,35
 333 -127 333 -127 339 -85 c 0,36,12
 343 -57 343 -57 365 -35 c 128,-1,13
EndSplineSet
EndChar

StartChar: eogonek
Encoding: 281 281 218
Width: 566
GlyphClass: 2
Flags: W
AnchorPoint: "Anchor-5" -46 0 basechar 0
AnchorPoint: "Anchor-4" 245 0 basechar 0
AnchorPoint: "Anchor-3" 242 517 basechar 0
AnchorPoint: "Anchor-2" 370 25 basechar 0
LayerCount: 2
Fore
SplineSet
210 148 m 128,-1,1
 228 126 228 126 262 126 c 0,2,3
 292 126 292 126 313.5 137 c 128,-1,4
 335 148 335 148 350 176 c 1,5,-1
 522 176 l 1,6,7
 506 121 506 121 463.5 78.5 c 128,-1,8
 421 36 421 36 363.5 13 c 128,-1,9
 306 -10 306 -10 248 -10 c 0,10,11
 168 -10 168 -10 111 22.5 c 128,-1,12
 54 55 54 55 28 114.5 c 128,-1,13
 2 174 2 174 13 252 c 0,14,15
 24 327 24 327 64.5 390 c 128,-1,16
 105 453 105 453 170 490 c 128,-1,17
 235 527 235 527 315 527 c 0,18,19
 397 527 397 527 449 492.5 c 128,-1,20
 501 458 501 458 521.5 397.5 c 128,-1,21
 542 337 542 337 531 259 c 2,22,-1
 525 214 l 1,23,-1
 199 214 l 1,24,0
 192 170 192 170 210 148 c 128,-1,1
361 323 m 1,25,26
 365 354 365 354 348.5 375 c 128,-1,27
 332 396 332 396 297 396 c 0,28,29
 267 396 267 396 242 374 c 128,-1,30
 217 352 217 352 213 323 c 1,31,-1
 361 323 l 1,25,26
184 -20 m 128,-1,33
 206 2 206 2 262 21 c 1,34,-1
 395 21 l 1,35,36
 341 4 341 4 319.5 -10.5 c 128,-1,37
 298 -25 298 -25 296 -43 c 0,38,39
 292 -71 292 -71 319 -71 c 0,40,41
 334 -71 334 -71 346 -67 c 128,-1,42
 358 -63 358 -63 376 -55 c 0,43,44
 382 -52 382 -52 387 -52 c 0,45,46
 395 -52 395 -52 393 -66 c 2,47,-1
 385 -117 l 2,48,49
 383 -128 383 -128 373 -134 c 0,50,51
 357 -142 357 -142 326.5 -148.5 c 128,-1,52
 296 -155 296 -155 264 -155 c 0,53,54
 209 -155 209 -155 180.5 -133.5 c 128,-1,55
 152 -112 152 -112 158 -70 c 0,56,32
 162 -42 162 -42 184 -20 c 128,-1,33
EndSplineSet
EndChar

StartChar: Ecaron
Encoding: 282 282 219
Width: 650
GlyphClass: 2
Flags: W
AnchorPoint: "Anchor-5" -46 0 basechar 0
AnchorPoint: "Anchor-4" 286 0 basechar 0
AnchorPoint: "Anchor-3" 286 723 basechar 0
AnchorPoint: "Anchor-2" 553 10 basechar 0
LayerCount: 2
Fore
SplineSet
121 723 m 1,0,-1
 655 723 l 1,1,-1
 631 562 l 1,2,-1
 294 562 l 1,3,-1
 277 442 l 1,4,-1
 559 442 l 1,5,-1
 537 285 l 1,6,-1
 254 285 l 1,7,-1
 237 162 l 1,8,-1
 577 162 l 1,9,-1
 554 0 l 1,10,-1
 19 0 l 1,11,-1
 121 723 l 1,0,-1
617 930 m 1,12,-1
 461 776 l 1,13,-1
 328 776 l 1,14,-1
 213 930 l 1,15,-1
 345 930 l 1,16,-1
 404 848 l 1,17,-1
 478 930 l 1,18,-1
 617 930 l 1,12,-1
EndSplineSet
EndChar

StartChar: ecaron
Encoding: 283 283 220
Width: 566
GlyphClass: 2
Flags: W
AnchorPoint: "Anchor-5" -46 0 basechar 0
AnchorPoint: "Anchor-4" 245 0 basechar 0
AnchorPoint: "Anchor-3" 242 517 basechar 0
AnchorPoint: "Anchor-2" 370 25 basechar 0
LayerCount: 2
Fore
SplineSet
210 148 m 128,-1,1
 228 126 228 126 262 126 c 0,2,3
 292 126 292 126 313.5 137 c 128,-1,4
 335 148 335 148 350 176 c 1,5,-1
 522 176 l 1,6,7
 506 121 506 121 463.5 78.5 c 128,-1,8
 421 36 421 36 363.5 13 c 128,-1,9
 306 -10 306 -10 248 -10 c 0,10,11
 168 -10 168 -10 111 22.5 c 128,-1,12
 54 55 54 55 28 114.5 c 128,-1,13
 2 174 2 174 13 252 c 0,14,15
 24 327 24 327 64.5 390 c 128,-1,16
 105 453 105 453 170 490 c 128,-1,17
 235 527 235 527 315 527 c 0,18,19
 397 527 397 527 449 492.5 c 128,-1,20
 501 458 501 458 521.5 397.5 c 128,-1,21
 542 337 542 337 531 259 c 2,22,-1
 525 214 l 1,23,-1
 199 214 l 1,24,0
 192 170 192 170 210 148 c 128,-1,1
361 323 m 1,25,26
 365 354 365 354 348.5 375 c 128,-1,27
 332 396 332 396 297 396 c 0,28,29
 267 396 267 396 242 374 c 128,-1,30
 217 352 217 352 213 323 c 1,31,-1
 361 323 l 1,25,26
544 724 m 1,32,-1
 388 570 l 1,33,-1
 255 570 l 1,34,-1
 140 724 l 1,35,-1
 272 724 l 1,36,-1
 331 642 l 1,37,-1
 405 724 l 1,38,-1
 544 724 l 1,32,-1
EndSplineSet
EndChar

StartChar: Gcircumflex
Encoding: 284 284 221
Width: 772
GlyphClass: 2
Flags: W
AnchorPoint: "Anchor-5" -46 0 basechar 0
AnchorPoint: "Anchor-4" 334 0 basechar 0
AnchorPoint: "Anchor-3" 334 723 basechar 0
AnchorPoint: "Anchor-2" -46 0 basechar 0
LayerCount: 2
Fore
SplineSet
158 36.5 m 128,-1,1
 87 83 87 83 56 167 c 128,-1,2
 25 251 25 251 40 359 c 0,3,4
 56 470 56 470 113 555 c 128,-1,5
 170 640 170 640 257 686.5 c 128,-1,6
 344 733 344 733 447 733 c 0,7,8
 540 733 540 733 606.5 695.5 c 128,-1,9
 673 658 673 658 703.5 597.5 c 128,-1,10
 734 537 734 537 726 468 c 1,11,-1
 523 468 l 1,12,13
 520 515 520 515 494 543.5 c 128,-1,14
 468 572 468 572 419 572 c 0,15,16
 359 572 359 572 314 523 c 128,-1,17
 269 474 269 474 253 365 c 0,18,19
 236 246 236 246 272.5 202.5 c 128,-1,20
 309 159 309 159 369 159 c 0,21,22
 408 159 408 159 440 179.5 c 128,-1,23
 472 200 472 200 484 227 c 2,24,-1
 497 253 l 1,25,-1
 371 253 l 1,26,-1
 389 384 l 1,27,-1
 720 382 l 1,28,-1
 666 0 l 1,29,-1
 538 0 l 1,30,-1
 549 80 l 1,31,32
 519 53 519 53 493 35 c 128,-1,33
 467 17 467 17 426.5 3.5 c 128,-1,34
 386 -10 386 -10 331 -10 c 0,35,0
 229 -10 229 -10 158 36.5 c 128,-1,1
455 868 m 1,36,-1
 373 786 l 1,37,-1
 241 786 l 1,38,-1
 400 939 l 1,39,-1
 532 939 l 1,40,-1
 645 786 l 1,41,-1
 506 786 l 1,42,-1
 455 868 l 1,36,-1
EndSplineSet
EndChar

StartChar: gcircumflex
Encoding: 285 285 222
Width: 653
GlyphClass: 2
Flags: W
AnchorPoint: "Anchor-5" -46 0 basechar 0
AnchorPoint: "Anchor-4" -46 0 basechar 0
AnchorPoint: "Anchor-3" 273 517 basechar 0
AnchorPoint: "Anchor-2" -46 0 basechar 0
LayerCount: 2
Fore
SplineSet
85 -155.5 m 128,-1,1
 19 -140 19 -140 -11 -113 c 128,-1,2
 -41 -86 -41 -86 -36 -52 c 0,3,4
 -32 -22 -32 -22 -8 -4 c 128,-1,5
 16 14 16 14 33 19.5 c 128,-1,6
 50 25 50 25 78 32 c 1,7,8
 75 33 75 33 57 42.5 c 128,-1,9
 39 52 39 52 26.5 72.5 c 128,-1,10
 14 93 14 93 18 119 c 0,11,12
 23 152 23 152 56.5 177 c 128,-1,13
 90 202 90 202 150 210 c 1,14,15
 100 233 100 233 77 276.5 c 128,-1,16
 54 320 54 320 60 364 c 0,17,18
 67 414 67 414 107.5 450.5 c 128,-1,19
 148 487 148 487 211 506 c 128,-1,20
 274 525 274 525 346 525 c 0,21,22
 396 525 396 525 428.5 515.5 c 128,-1,23
 461 506 461 506 493 488 c 1,24,25
 626 536 626 536 672 555 c 1,26,-1
 652 417 l 1,27,-1
 562 405 l 1,28,29
 565 383 565 383 562 365 c 0,30,31
 556 320 556 320 520.5 279 c 128,-1,32
 485 238 485 238 424.5 212.5 c 128,-1,33
 364 187 364 187 286 187 c 0,34,35
 242 187 242 187 218 190 c 1,36,37
 204 187 204 187 202 181 c 0,38,39
 201 173 201 173 215 170 c 128,-1,40
 229 167 229 167 252 165.5 c 128,-1,41
 275 164 275 164 283 164 c 2,42,-1
 385 158 l 2,43,44
 487 151 487 151 532.5 108.5 c 128,-1,45
 578 66 578 66 569 3 c 0,46,47
 562 -48 562 -48 523 -87 c 128,-1,48
 484 -126 484 -126 414.5 -148.5 c 128,-1,49
 345 -171 345 -171 250 -171 c 0,50,0
 151 -171 151 -171 85 -155.5 c 128,-1,1
354 308 m 128,-1,52
 374 327 374 327 378 357 c 128,-1,53
 382 387 382 387 367.5 408.5 c 128,-1,54
 353 430 353 430 326 430 c 128,-1,55
 299 430 299 430 278.5 408.5 c 128,-1,56
 258 387 258 387 254 357 c 128,-1,57
 250 327 250 327 265 308 c 128,-1,58
 280 289 280 289 307 289 c 128,-1,51
 334 289 334 289 354 308 c 128,-1,52
359.5 -61 m 128,-1,60
 378 -53 378 -53 380 -37 c 128,-1,61
 382 -21 382 -21 366.5 -10.5 c 128,-1,62
 351 0 351 0 321 2 c 2,63,-1
 228 8 l 2,64,65
 192 10 192 10 175 -1.5 c 128,-1,66
 158 -13 158 -13 156 -29 c 0,67,68
 153 -53 153 -53 184.5 -61 c 128,-1,69
 216 -69 216 -69 294 -69 c 0,70,59
 341 -69 341 -69 359.5 -61 c 128,-1,60
365 662 m 1,71,-1
 283 580 l 1,72,-1
 151 580 l 1,73,-1
 310 733 l 1,74,-1
 442 733 l 1,75,-1
 555 580 l 1,76,-1
 416 580 l 1,77,-1
 365 662 l 1,71,-1
EndSplineSet
EndChar

